# Blender 4.3.2
# www.blender.org
o Cylinder
v -1.910851 -0.384760 0.000000
v -1.101545 0.224937 0.000000
v -1.191396 -0.384760 -1.493964
v -0.686802 0.224937 -0.861222
v 0.425204 -0.384760 -1.862942
v 0.245117 0.224937 -1.073927
v 1.721617 -0.384760 -0.829087
v 0.992458 0.224937 -0.477942
v 1.721617 -0.384760 0.829087
v 0.992458 0.224937 0.477942
v 0.425205 -0.384760 1.862942
v 0.245117 0.224937 1.073927
v -1.191396 -0.384760 1.493964
v -0.686802 0.224937 0.861222
v -0.519183 0.224937 -0.651034
v -0.832704 0.224937 0.000000
v 0.185294 0.224937 -0.811827
v 0.750241 0.224937 -0.361297
v 0.750241 0.224937 0.361297
v 0.185294 0.224937 0.811827
v -0.519183 0.224937 0.651034
v -0.405152 0.135176 -0.508044
v -0.649813 0.135176 0.000000
v 0.144597 0.135176 -0.633520
v 0.585461 0.135176 -0.281943
v 0.585461 0.135176 0.281943
v 0.144597 0.135176 0.633520
v -0.405152 0.135176 0.508044
vn -0.5779 0.7672 -0.2783
vn -0.1427 0.7672 -0.6254
vn 0.3999 0.7672 -0.5015
vn 0.6415 0.7672 -0.0000
vn 0.3999 0.7672 0.5015
vn -0.0000 1.0000 -0.0000
vn -0.1427 0.7672 0.6254
vn -0.5779 0.7672 0.2783
vn -0.0000 -1.0000 -0.0000
vn 0.1064 0.8782 0.4664
vn 0.4310 0.8782 -0.2076
vn -0.2983 0.8782 -0.3740
vn -0.2983 0.8782 0.3740
vn 0.4310 0.8782 0.2076
vn 0.1064 0.8782 -0.4664
vn -0.4784 0.8782 -0.0000
vt 1.000000 0.500000
vt 1.000000 1.000000
vt 0.857143 1.000000
vt 0.857143 0.500000
vt 0.714286 1.000000
vt 0.714286 0.500000
vt 0.571429 1.000000
vt 0.571429 0.500000
vt 0.428571 1.000000
vt 0.428571 0.500000
vt 0.285714 1.000000
vt 0.285714 0.500000
vt 0.142857 1.000000
vt 0.142857 0.500000
vt 0.000000 1.000000
vt 0.000000 0.500000
vt 0.750000 0.490000
vt 0.937640 0.399638
vt 0.983983 0.196595
vt 0.854132 0.033767
vt 0.645868 0.033767
vt 0.516017 0.196595
vt 0.562360 0.399638
vt 0.437640 0.399638
vt 0.250000 0.490000
vt 0.062360 0.399638
vt 0.016017 0.196595
vt 0.145868 0.033767
vt 0.354132 0.033767
vt 0.483983 0.196595
s 0
f 1/1/1 2/2/1 4/3/1 3/4/1
f 3/4/2 4/3/2 6/5/2 5/6/2
f 5/6/3 6/5/3 8/7/3 7/8/3
f 7/8/4 8/7/4 10/9/4 9/10/4
f 9/10/5 10/9/5 12/11/5 11/12/5
f 10/9/6 8/7/6 18/7/6 19/9/6
f 11/12/7 12/11/7 14/13/7 13/14/7
f 13/14/8 14/13/8 2/15/8 1/16/8
f 1/17/9 3/18/9 5/19/9 7/20/9 9/21/9 11/22/9 13/23/9
f 17/5/10 15/3/10 22/3/10 24/5/10
f 2/15/6 14/13/6 21/13/6 16/15/6
f 6/5/6 4/3/6 15/3/6 17/5/6
f 12/11/6 10/9/6 19/9/6 20/11/6
f 4/3/6 2/2/6 16/2/6 15/3/6
f 8/7/6 6/5/6 17/5/6 18/7/6
f 14/13/6 12/11/6 20/11/6 21/13/6
f 22/24/6 23/25/6 28/26/6 27/27/6 26/28/6 25/29/6 24/30/6
f 16/15/11 21/13/11 28/13/11 23/15/11
f 20/11/12 19/9/12 26/9/12 27/11/12
f 18/7/13 17/5/13 24/5/13 25/7/13
f 15/3/14 16/2/14 23/2/14 22/3/14
f 21/13/15 20/11/15 27/11/15 28/13/15
f 19/9/16 18/7/16 25/7/16 26/9/16
