# Blender 4.3.2
# www.blender.org
o Curve
v 0.312897 0.000000 -0.098382
v 0.372785 0.000000 -0.157941
v 0.384419 0.000000 -0.164086
v 0.404348 0.000000 -0.164139
v 0.422315 0.000000 -0.151571
v 0.442406 0.000000 -0.091454
v 0.451743 0.000000 -0.012826
v 0.446839 0.000000 0.064260
v 0.433213 0.000000 0.126485
v 0.411306 0.000000 0.185196
v 0.381777 0.000000 0.239733
v 0.345283 0.000000 0.289440
v 0.302483 0.000000 0.333659
v 0.254034 0.000000 0.371732
v 0.200595 0.000000 0.403001
v 0.142824 0.000000 0.426810
v 0.081377 0.000000 0.442499
v 0.016914 0.000000 0.449411
v -0.049908 0.000000 0.446889
v -0.105137 0.000000 0.437224
v -0.182907 0.000000 0.411453
v -0.275606 0.000000 0.355341
v -0.352093 0.000000 0.279330
v -0.408857 0.000000 0.187363
v -0.442497 0.000000 0.083451
v -0.449908 0.000000 -0.018818
v -0.438119 0.000000 -0.100353
v -0.413065 0.000000 -0.172786
v -0.377561 0.000000 -0.239316
v -0.320685 0.000000 -0.319865
v -0.169193 0.000000 -0.497392
v -0.114224 0.000000 -0.580332
v -0.088159 0.000000 -0.636476
v -0.072348 0.000000 -0.696352
v -0.067823 0.000000 -0.758659
v -0.054488 0.000000 -0.788370
v -0.020450 0.000000 -0.811856
v 0.015862 0.000000 -0.813100
v 0.042597 0.000000 -0.801110
v 0.062699 0.000000 -0.776803
v 0.070085 0.000000 -0.752734
v 0.075582 0.000000 -0.686214
v 0.096282 0.000000 -0.620863
v 0.120881 0.000000 -0.572069
v 0.163808 0.000000 -0.507736
v 0.221351 0.000000 -0.437283
v 0.225505 0.000000 -0.421551
v 0.220487 0.000000 -0.402037
v 0.158745 0.000000 -0.340329
v 0.136804 0.000000 -0.335992
v 0.118798 0.000000 -0.343154
v 0.064105 0.000000 -0.408606
v 0.022188 0.000000 -0.464986
v -0.001893 0.000000 -0.471487
v -0.021859 0.000000 -0.463273
v -0.083677 0.000000 -0.381697
v -0.206182 0.000000 -0.239018
v -0.252842 0.000000 -0.174875
v -0.281225 0.000000 -0.124436
v -0.300841 0.000000 -0.071706
v -0.310012 0.000000 -0.014059
v -0.303818 0.000000 0.064047
v -0.275024 0.000000 0.143553
v -0.226737 0.000000 0.211476
v -0.162384 0.000000 0.264252
v -0.085519 0.000000 0.298411
v -0.022011 0.000000 0.309041
v 0.040735 0.000000 0.307984
v 0.113915 0.000000 0.288971
v 0.178676 0.000000 0.253752
v 0.233279 0.000000 0.204633
v 0.275311 0.000000 0.144127
v 0.302427 0.000000 0.074800
v 0.311615 0.000000 0.011668
v 0.310000 0.000000 -0.035171
v 0.302361 0.000000 -0.073893
v 0.306494 0.000000 -0.090358
v 0.312924 0.000000 -0.098409
v 0.312923 0.000000 -0.098408
v 0.312919 0.000000 -0.098404
v 0.312905 0.000000 -0.098391
v -0.010717 0.000000 -0.171470
v -0.055110 0.000000 -0.162454
v -0.094626 0.000000 -0.142674
v -0.127515 0.000000 -0.113740
v -0.152078 0.000000 -0.077330
v -0.166674 0.000000 -0.035154
v -0.169736 0.000000 0.010778
v -0.160718 0.000000 0.055151
v -0.140934 0.000000 0.094658
v -0.111994 0.000000 0.127543
v -0.075576 0.000000 0.152106
v -0.022120 0.000000 0.169251
v 0.035226 0.000000 0.166703
v 0.077411 0.000000 0.152106
v 0.113830 0.000000 0.127543
v 0.142769 0.000000 0.094658
v 0.162554 0.000000 0.055151
v 0.171572 0.000000 0.010777
v 0.166521 0.000000 -0.046136
v 0.142769 0.000000 -0.096362
v 0.113830 0.000000 -0.129247
v 0.077411 0.000000 -0.153810
v 0.035226 0.000000 -0.168407
v -0.020450 1.000000 -0.811856
v 0.015862 1.000000 -0.813100
v 0.042597 1.000000 -0.801110
v -0.054488 1.000000 -0.788370
v 0.062699 1.000000 -0.776803
v -0.067823 1.000000 -0.758659
v 0.070085 1.000000 -0.752734
v -0.072348 1.000000 -0.696352
v 0.075582 1.000000 -0.686214
v -0.088159 1.000000 -0.636476
v 0.096282 1.000000 -0.620863
v -0.114224 1.000000 -0.580332
v 0.120881 1.000000 -0.572069
v -0.169193 1.000000 -0.497392
v 0.163808 1.000000 -0.507736
v -0.001893 1.000000 -0.471487
v 0.022188 1.000000 -0.464986
v -0.021859 1.000000 -0.463273
v 0.221351 1.000000 -0.437283
v 0.064105 1.000000 -0.408606
v 0.225505 1.000000 -0.421551
v -0.083677 1.000000 -0.381697
v 0.220487 1.000000 -0.402037
v -0.320685 1.000000 -0.319865
v 0.158745 1.000000 -0.340329
v 0.118798 1.000000 -0.343154
v 0.136804 1.000000 -0.335992
v -0.206182 1.000000 -0.239018
v -0.377561 1.000000 -0.239316
v -0.413065 1.000000 -0.172786
v -0.252842 1.000000 -0.174875
v -0.010717 1.000000 -0.171470
v 0.035226 1.000000 -0.168407
v -0.055110 1.000000 -0.162454
v 0.077411 1.000000 -0.153810
v 0.384419 1.000000 -0.164086
v 0.404348 1.000000 -0.164139
v -0.281225 1.000000 -0.124436
v 0.372785 1.000000 -0.157941
v 0.422315 1.000000 -0.151571
v -0.094626 1.000000 -0.142674
v -0.438119 1.000000 -0.100353
v 0.312897 1.000000 -0.098382
v 0.312919 1.000000 -0.098404
v 0.312924 1.000000 -0.098409
v 0.113830 1.000000 -0.129247
v 0.442406 1.000000 -0.091454
v -0.127515 1.000000 -0.113740
v 0.142769 1.000000 -0.096362
v -0.300841 1.000000 -0.071706
v -0.152078 1.000000 -0.077330
v 0.306494 1.000000 -0.090358
v 0.166521 1.000000 -0.046136
v 0.302361 1.000000 -0.073893
v -0.449908 1.000000 -0.018818
v -0.166674 1.000000 -0.035154
v 0.310000 1.000000 -0.035171
v -0.310012 1.000000 -0.014059
v 0.451743 1.000000 -0.012826
v -0.169736 1.000000 0.010778
v 0.171572 1.000000 0.010777
v 0.311615 1.000000 0.011668
v -0.303818 1.000000 0.064047
v 0.446839 1.000000 0.064260
v -0.442497 1.000000 0.083451
v 0.302427 1.000000 0.074800
v 0.162554 1.000000 0.055151
v -0.160718 1.000000 0.055151
v 0.433213 1.000000 0.126485
v 0.142769 1.000000 0.094658
v -0.140934 1.000000 0.094658
v -0.275024 1.000000 0.143553
v 0.275311 1.000000 0.144127
v 0.113830 1.000000 0.127543
v -0.111994 1.000000 0.127543
v -0.408857 1.000000 0.187363
v 0.411306 1.000000 0.185196
v -0.075576 1.000000 0.152106
v 0.077411 1.000000 0.152106
v -0.022120 1.000000 0.169251
v 0.035226 1.000000 0.166703
v 0.233279 1.000000 0.204633
v -0.226737 1.000000 0.211476
v 0.381777 1.000000 0.239733
v -0.352093 1.000000 0.279330
v 0.178676 1.000000 0.253752
v -0.162384 1.000000 0.264252
v 0.345283 1.000000 0.289440
v 0.113915 1.000000 0.288971
v -0.085519 1.000000 0.298411
v 0.302483 1.000000 0.333659
v 0.040735 1.000000 0.307984
v -0.275606 1.000000 0.355341
v -0.022011 1.000000 0.309041
v 0.254034 1.000000 0.371732
v -0.182907 1.000000 0.411453
v 0.200595 1.000000 0.403001
v 0.142824 1.000000 0.426810
v -0.105137 1.000000 0.437224
v 0.081377 1.000000 0.442499
v -0.049908 1.000000 0.446889
v 0.016914 1.000000 0.449411
vn -0.0000 1.0000 -0.0000
vn 0.6179 -0.0000 0.7863
vn -0.8941 -0.0000 0.4478
vn 0.3805 -0.0000 0.9248
vn 0.9484 -0.0000 -0.3170
vn -0.5178 -0.0000 0.8555
vn 0.9402 -0.0000 -0.3405
vn -0.6605 -0.0000 -0.7508
vn 0.7745 -0.0000 -0.6326
vn 0.5050 -0.0000 0.8631
vn -0.9313 -0.0000 -0.3643
vn -0.8025 -0.0000 0.5966
vn 0.7507 -0.0000 -0.6606
vn 0.3810 -0.0000 0.9246
vn 0.9669 -0.0000 -0.2553
vn 0.7507 -0.0000 0.6606
vn -0.3146 -0.0000 0.9492
vn -0.7507 -0.0000 0.6606
vn 0.9373 -0.0000 0.3487
vn 0.7970 -0.0000 0.6040
vn -0.9514 -0.0000 0.3080
vn -0.8290 -0.0000 -0.5592
vn 0.2474 -0.0000 0.9689
vn 0.9685 -0.0000 0.2490
vn -0.1724 -0.0000 0.9850
vn 0.9369 -0.0000 0.3496
vn -0.7814 -0.0000 -0.6240
vn -0.7607 -0.0000 -0.6491
vn -0.0377 -0.0000 0.9993
vn -0.5592 -0.0000 0.8291
vn 0.1066 -0.0000 0.9943
vn 0.7069 -0.0000 0.7073
vn 0.9040 -0.0000 -0.4275
vn -0.7674 -0.0000 0.6412
vn 0.5592 -0.0000 0.8291
vn -0.9699 -0.0000 -0.2435
vn -0.9897 -0.0000 -0.1431
vn -0.3696 -0.0000 0.9292
vn -0.3054 -0.0000 0.9522
vn 0.1939 -0.0000 0.9810
vn 0.0444 -0.0000 0.9990
vn 0.3270 -0.0000 0.9450
vn -0.0342 -0.0000 -0.9994
vn -0.9450 -0.0000 -0.3270
vn 0.7587 -0.0000 0.6514
vn -0.8213 -0.0000 -0.5705
vn 0.4092 -0.0000 -0.9124
vn -0.9811 -0.0000 0.1935
vn -0.8169 -0.0000 -0.5768
vn 0.9876 -0.0000 0.1571
vn 0.8150 -0.0000 -0.5794
vn -0.5679 -0.0000 -0.8231
vn -0.8822 -0.0000 -0.4708
vn 0.9930 -0.0000 -0.1179
vn 0.8794 -0.0000 0.4761
vn 0.7706 -0.0000 -0.6373
vn 0.8087 -0.0000 0.5883
vn -0.8510 -0.0000 0.5252
vn -0.9123 -0.0000 -0.4095
vn 0.0665 -0.0000 -0.9978
vn -0.9978 -0.0000 -0.0665
vn -0.1990 -0.0000 -0.9800
vn -0.6688 -0.0000 -0.7435
vn 0.9560 -0.0000 -0.2933
vn 0.9961 -0.0000 -0.0884
vn 0.6341 -0.0000 -0.7732
vn -0.9974 -0.0000 -0.0724
vn -0.9994 -0.0000 0.0345
vn 0.3270 -0.0000 -0.9450
vn 0.8061 -0.0000 0.5918
vn -0.0027 -0.0000 -1.0000
vn 0.9966 -0.0000 -0.0824
vn 0.9969 -0.0000 -0.0791
vn 0.8715 -0.0000 0.4904
vn -0.4777 -0.0000 -0.8785
vn -0.9669 -0.0000 -0.2553
vn -0.4671 -0.0000 -0.8842
vn 0.9980 -0.0000 0.0635
vn 0.4061 -0.0000 -0.9138
vn 0.9533 -0.0000 -0.3020
vn -0.9974 -0.0000 0.0723
vn 0.5732 -0.0000 -0.8194
vn -0.9070 -0.0000 -0.4211
vn -0.9896 -0.0000 -0.1440
vn -0.4476 -0.0000 -0.8942
vn 0.7185 -0.0000 0.6955
vn -0.2515 -0.0000 -0.9679
vn 0.8929 -0.0000 -0.4502
vn 0.9800 -0.0000 0.1992
vn -0.9451 -0.0000 -0.3269
vn -0.7049 -0.0000 0.7093
vn -0.9800 -0.0000 0.1992
vn -0.7052 -0.0000 -0.7091
vn -0.8336 -0.0000 -0.5524
vn 0.7050 -0.0000 0.7093
vn 0.1651 -0.0000 -0.9863
vn 0.8318 -0.0000 -0.5550
vn 0.7045 -0.0000 0.7097
vn 0.9769 -0.0000 0.2139
vn -0.0169 -0.0000 -0.9999
vn -0.2606 -0.0000 0.9654
vn 0.8941 -0.0000 0.4478
vn 0.5592 -0.0000 -0.8291
vt 0.462307 0.000000
vt 0.005797 0.000000
vt 0.813230 0.000000
vt 0.106667 0.000000
vt 0.103333 0.000000
vt 0.891648 0.000000
vt 0.898321 0.000000
vt 0.558045 0.000000
vt 0.545023 0.000000
vt 0.058573 0.000000
vt 0.037879 0.000000
vt 0.138317 0.000000
vt 0.131641 0.000000
vt 0.654981 0.000000
vt 0.648315 0.000000
vt 0.858321 0.000000
vt 0.865004 0.000000
vt 0.368950 0.000000
vt 0.353865 0.000000
vt 0.110000 0.000000
vt 0.718357 0.000000
vt 0.711684 0.000000
vt 0.529946 0.000000
vt 0.506385 0.000000
vt 0.978321 0.000000
vt 0.985004 0.000000
vt 0.113333 0.000000
vt 0.381651 0.000000
vt 0.941662 0.000000
vt 0.948346 0.000000
vt 0.126667 0.000000
vt 0.905004 0.000000
vt 0.635103 0.000000
vt 0.628522 0.000000
vt 0.583700 0.000000
vt 0.158357 0.000000
vt 0.151686 0.000000
vt 0.871684 0.000000
vt 0.116667 0.000000
vt 0.397415 0.000000
vt 0.123333 0.000000
vt 0.093333 0.000000
vt 0.090000 0.000000
vt 0.802963 0.000000
vt 0.791623 0.000000
vt 0.215006 0.000000
vt 0.193359 0.000000
vt 0.120000 0.000000
vt 0.911684 0.000000
vt 0.449165 0.000000
vt 0.969972 0.000000
vt 0.478593 0.000000
vt 0.934983 0.000000
vt 0.772093 0.000000
vt 0.171591 0.000000
vt 0.164853 0.000000
vt 0.465016 0.000000
vt 0.920006 0.000000
vt 0.928318 0.000000
vt 0.283130 0.000000
vt 0.271723 0.000000
vt 0.878349 0.000000
vt 0.613438 0.000000
vt 0.705000 0.000000
vt 0.294869 0.000000
vt 0.748201 0.000000
vt 0.184767 0.000000
vt 0.641844 0.000000
vt 0.661664 0.000000
vt 0.258307 0.000000
vt 0.178181 0.000000
vt 0.080184 0.000000
vt 0.096667 0.000000
vt 0.308248 0.000000
vt 0.621939 0.000000
vt 0.145003 0.000000
vt 0.247807 0.000000
vt 0.998349 0.000000
vt 0.845000 0.000000
vt 0.885000 0.000000
vt 0.851648 0.000000
vt 0.698315 0.000000
vt 0.318717 0.000000
vt 0.961666 0.000000
vt 0.668349 0.000000
vt 0.238391 0.000000
vt 0.726539 0.000000
vt 0.991684 0.000000
vt 0.100000 0.000000
vt 0.025049 0.000000
vt 0.013276 0.000000
vt 0.329873 0.000000
vt 0.691640 0.000000
vt 0.231808 0.000000
vt 0.086667 0.000000
vt 0.675020 0.000000
vt 0.338190 0.000000
vt 0.225218 0.000000
vt 0.684922 0.000000
vt 0.344799 0.000000
vt 0.955019 0.000000
vt 0.680000 0.000000
s 0
f 1/1/1 2/2/1 80/3/1
f 14/4/2 13/5/2 195/5/2 199/4/2
f 89/6/3 90/7/3 175/7/3 172/6/3
f 55/8/4 54/9/4 120/9/4 122/8/4
f 6/10/5 5/11/5 144/11/5 151/10/5
f 22/12/6 21/13/6 200/13/6 197/12/6
f 63/14/7 62/15/7 167/15/7 176/14/7
f 84/16/8 85/17/8 152/17/8 145/16/8
f 46/18/9 45/19/9 119/19/9 123/18/9
f 15/20/10 14/4/10 199/4/10 201/20/10
f 73/21/11 72/22/11 177/22/11 170/21/11
f 53/23/12 52/24/12 124/24/12 121/23/12
f 101/25/13 102/26/13 150/26/13 153/25/13
f 16/27/14 15/20/14 201/20/14 202/27/14
f 47/28/15 46/18/15 123/18/15 125/28/15
f 96/29/16 97/30/16 174/30/16 178/29/16
f 21/13/17 20/31/17 203/31/17 200/13/17
f 90/7/18 91/32/18 179/32/18 175/7/18
f 60/33/19 59/34/19 142/34/19 154/33/19
f 56/35/20 55/8/20 122/8/20 126/35/20
f 25/36/21 24/37/21 180/37/21 169/36/21
f 85/17/22 86/38/22 155/38/22 152/17/22
f 17/39/23 16/27/23 202/27/23 204/39/23
f 48/40/24 47/28/24 125/28/24 127/40/24
f 20/31/25 19/41/25 205/41/25 203/31/25
f 10/42/26 9/43/26 173/43/26 181/42/26
f 78/44/27 77/45/27 156/45/27 149/44/27
f 31/46/28 30/47/28 128/47/28 118/46/28
f 19/41/29 18/48/29 206/48/29 205/41/29
f 91/32/30 92/49/30 182/49/30 179/32/30
f 18/48/31 17/39/31 204/39/31 206/48/31
f 49/50/32 48/40/32 127/40/32 129/50/32
f 100/51/33 101/25/33 153/25/33 157/51/33
f 52/24/34 51/52/34 130/52/34 124/24/34
f 95/53/35 96/29/35 178/29/35 183/53/35
f 77/45/36 76/54/36 158/54/36 156/45/36
f 27/55/37 26/56/37 159/56/37 146/55/37
f 51/52/38 50/57/38 131/57/38 130/52/38
f 92/49/39 93/58/39 184/58/39 182/49/39
f 50/57/40 49/50/40 129/50/40 131/57/40
f 93/58/41 94/59/41 185/59/41 184/58/41
f 94/59/42 95/53/42 183/53/42 185/59/42
f 38/60/43 37/61/43 105/61/43 106/60/43
f 86/38/44 87/62/44 160/62/44 155/38/44
f 57/63/45 56/35/45 126/35/45 132/63/45
f 72/22/46 71/64/46 186/64/46 177/22/46
f 39/65/47 38/60/47 106/60/47 107/65/47
f 76/54/48 75/66/48 161/66/48 158/54/48
f 30/47/49 29/67/49 133/67/49 128/47/49
f 61/68/50 60/33/50 154/33/50 162/68/50
f 64/69/51 63/14/51 176/14/51 187/69/51
f 37/61/52 36/70/52 108/70/52 105/61/52
f 29/67/53 28/71/53 134/71/53 133/67/53
f 7/72/54 6/10/54 151/10/54 163/72/54
f 11/73/55 10/42/55 181/42/55 188/73/55
f 40/74/56 39/65/56 107/65/56 109/74/56
f 58/75/57 57/63/57 132/63/57 135/75/57
f 24/37/58 23/76/58 189/76/58 180/37/58
f 36/70/59 35/77/59 110/77/59 108/70/59
f 104/78/60 82/79/60 136/79/60 137/78/60
f 87/62/61 88/80/61 164/80/61 160/62/61
f 82/79/62 83/81/62 138/81/62 136/79/62
f 71/64/63 70/82/63 190/82/63 186/64/63
f 41/83/64 40/74/64 109/74/64 111/83/64
f 99/84/65 100/51/65 157/51/65 165/84/65
f 65/85/66 64/69/66 187/69/66 191/85/66
f 35/77/67 34/86/67 112/86/67 110/77/67
f 75/66/68 74/87/68 166/87/68 161/66/68
f 103/88/69 104/78/69 137/78/69 139/88/69
f 12/89/70 11/73/70 188/73/70 192/89/70
f 4/90/71 3/91/71 140/91/71 141/90/71
f 42/92/72 41/83/72 111/83/72 113/92/72
f 62/15/73 61/68/73 162/68/73 167/15/73
f 59/34/74 58/75/74 135/75/74 142/34/74
f 70/82/75 69/93/75 193/93/75 190/82/75
f 34/86/76 33/94/76 114/94/76 112/86/76
f 3/91/77 2/2/77 143/2/77 140/91/77
f 8/95/78 7/72/78 163/72/78 168/95/78
f 66/96/79 65/85/79 191/85/79 194/96/79
f 43/97/80 42/92/80 113/92/80 115/97/80
f 26/56/81 25/36/81 169/36/81 159/56/81
f 5/11/82 4/90/82 141/90/82 144/11/82
f 33/94/83 32/98/83 116/98/83 114/94/83
f 74/87/84 73/21/84 170/21/84 166/87/84
f 83/81/85 84/16/85 145/16/85 138/81/85
f 13/5/86 12/89/86 192/89/86 195/5/86
f 69/93/87 68/99/87 196/99/87 193/93/87
f 44/100/88 43/97/88 115/97/88 117/100/88
f 98/101/89 99/84/89 165/84/89 171/101/89
f 28/71/90 27/55/90 146/55/90 134/71/90
f 23/76/91 22/12/91 197/12/91 189/76/91
f 88/80/92 89/6/92 172/6/92 164/80/92
f 2/2/93 1/1/93 147/1/93 143/2/93
f 32/98/94 31/46/94 118/46/94 116/98/94
f 1/1/95 80/3/95 148/3/95 147/1/95
f 67/102/96 66/96/96 194/96/96 198/102/96
f 45/19/97 44/100/97 117/100/97 119/19/97
f 80/3/98 78/44/98 149/44/98 148/3/98
f 9/43/99 8/95/99 168/95/99 173/43/99
f 68/99/100 67/102/100 198/102/100 196/99/100
f 54/9/101 53/23/101 121/23/101 120/9/101
f 97/30/102 98/101/102 171/101/102 174/30/102
f 102/26/103 103/88/103 139/88/103 150/26/103
l 78 79
l 80 81
