# Blender 4.3.2
# www.blender.org
o Cylinder.001_cell.008
v -0.760712 -0.050000 0.273629
v -0.266034 0.050000 0.133778
v 0.001374 -0.050000 0.038121
v -0.012124 0.050000 0.055312
v 0.042448 -0.050000 0.310979
v 0.027674 0.050000 0.319576
v -0.084007 -0.050000 0.639253
v -0.014501 0.050000 0.429062
v -0.122848 -0.050000 0.739912
v -0.130856 0.050000 0.730603
v -0.503234 -0.050000 0.814006
v -0.506044 -0.012550 0.810483
v -0.300158 0.050000 0.763580
v -0.510791 0.050000 0.804531
v -0.899796 -0.050000 0.316734
v -0.891191 0.050000 0.327524
v -0.266034 0.050000 0.133778
v -0.012124 0.050000 0.055312
v -0.760712 -0.050000 0.273629
v 0.001374 -0.050000 0.038121
v 0.027674 0.050000 0.319576
v 0.042448 -0.050000 0.310979
v -0.014501 0.050000 0.429062
v -0.084007 -0.050000 0.639253
v -0.130856 0.050000 0.730603
v -0.122848 -0.050000 0.739912
v -0.503234 -0.050000 0.814006
v -0.506044 -0.012550 0.810483
v -0.300158 0.050000 0.763580
v -0.510791 0.050000 0.804531
v -0.899796 -0.050000 0.316734
v -0.891191 0.050000 0.327524
vn -0.2930 0.1234 -0.9481
vn 0.9279 0.1064 0.3574
vn 0.9275 0.1076 0.3579
vn 0.1901 0.1061 0.9760
vn 0.1897 0.1073 0.9760
vn -0.2936 0.1275 -0.9474
vn -0.7818 -0.0000 0.6235
vn -0.0000 1.0000 -0.0000
vn -0.0000 -1.0000 -0.0000
vn 0.9766 0.1570 -0.1470
vt 0.749695 0.000000
vt 1.000000 0.249831
vt 1.000000 0.749843
vt 0.248737 0.000000
vt 0.250021 0.000000
vt 0.749644 0.000000
vt 0.750343 0.750343
vt 0.250254 0.250254
vt 1.000000 0.250663
vt 1.000000 0.749859
vt 0.749644 0.749644
vt 0.250021 0.250021
vt 0.563107 0.000000
vt 0.750058 0.186670
vt 0.749859 0.749859
vt 0.250663 0.250663
vt 0.250752 0.000000
vt 0.563107 0.563107
vt 0.250752 0.250752
vt 0.618281 0.250912
vt 0.329175 0.250976
vt 1.000000 0.250305
vt 1.000000 0.751263
vt 0.850756 0.751413
vt 0.409518 0.687252
vt 0.408265 1.000000
vt 0.307824 1.000000
vt 0.305552 0.500000
vt 0.410260 0.500000
vt 0.218595 0.074655
vt 0.246520 0.147025
vt 0.256642 0.173302
vt 0.247090 0.236725
vt 0.186152 0.217893
vt 0.036114 0.171394
vt 0.127410 0.056913
vt 0.177962 0.066741
vt 0.720516 0.072421
vt 0.629224 0.054638
vt 0.534049 0.173984
vt 0.567429 0.184329
vt 0.750330 0.240851
vt 0.760188 0.175365
vt 0.729838 0.096579
vt 1.000000 0.250254
vt 1.000000 0.750343
vt 0.749843 0.749843
vt 0.249831 0.249831
s 0
f 17/1/1 18/2/1 20/3/1 19/4/1
f 23/5/2 24/6/2 22/7/2 6/8/2
f 25/9/3 26/10/3 24/11/3 23/12/3
f 28/13/4 27/14/4 26/15/4 25/16/4 29/17/4
f 28/18/5 29/19/5 30/20/5
f 32/21/6 17/22/6 19/23/6 31/24/6
f 12/25/7 14/26/7 16/27/7 15/28/7 11/29/7
f 10/30/8 8/31/8 21/32/8 4/33/8 2/34/8 16/35/8 14/36/8 13/37/8
f 9/38/9 11/39/9 15/40/9 1/41/9 3/42/9 5/43/9 7/44/9
f 6/45/10 22/46/10 20/47/10 18/48/10
