# Blender 4.3.2
# www.blender.org
o Cylinder.001_cell.006
v 0.433884 -0.050000 0.900969
v 0.433884 0.050000 0.900969
v 0.637901 0.050000 0.645139
v 0.043486 -0.050000 0.312303
v 0.029034 0.050000 0.321097
v 0.647131 -0.050000 0.633566
v 0.005066 -0.050000 0.412028
v -0.086855 0.050000 0.621901
v -0.120952 -0.050000 0.741488
v -0.128954 0.050000 0.731963
v -0.082245 -0.050000 0.900969
v -0.083510 -0.027780 0.900969
v -0.113576 0.050000 0.795323
v -0.087592 0.050000 0.900969
v 0.637901 0.050000 0.645139
v 0.029034 0.050000 0.321097
v 0.647131 -0.050000 0.633566
v 0.043486 -0.050000 0.312303
v -0.086855 0.050000 0.621901
v -0.128954 0.050000 0.731963
v 0.005066 -0.050000 0.412028
v -0.120952 -0.050000 0.741488
v -0.082245 -0.050000 0.900969
v -0.083510 -0.027780 0.900969
v -0.113576 0.050000 0.795323
v -0.087592 0.050000 0.900969
vn -0.9285 -0.1081 -0.3552
vn -0.9282 -0.1027 -0.3576
vn -0.9703 -0.0552 0.2355
vn -0.9698 -0.0509 0.2385
vn 0.7818 -0.0000 0.6235
vn -0.0000 -0.0000 1.0000
vn -0.0000 1.0000 -0.0000
vn -0.0000 -1.0000 -0.0000
vn 0.4649 0.1440 -0.8736
vt 1.000000 0.251128
vt 1.000000 0.751729
vt 0.247919 0.000000
vt 0.748754 0.000000
vt 0.251128 0.251128
vt 1.000000 0.250009
vt 1.000000 0.751357
vt 0.751728 0.751728
vt 1.000000 0.752081
vt 0.234093 0.119678
vt 0.223929 0.000000
vt 0.695714 0.000000
vt 1.000000 0.251246
vt 0.695900 0.223972
vt 0.695714 0.695714
vt 0.223929 0.223929
vt 0.625297 1.000000
vt 0.571429 1.000000
vt 0.571429 0.500000
vt 0.627734 0.500000
vt 0.486252 0.611100
vt 0.486460 0.500000
vt 0.485580 1.000000
vt 0.228978 0.033767
vt 0.354132 0.033767
vt 0.403096 0.095167
vt 0.256968 0.172937
vt 0.229155 0.100744
vt 0.219051 0.074329
vt 0.222742 0.059122
vt 0.730261 0.033767
vt 0.720971 0.072043
vt 0.751216 0.151113
vt 0.760437 0.175047
vt 0.905311 0.097944
vt 0.854132 0.033767
vt 0.751519 0.387674
vt 0.751357 0.751357
vt 0.250009 0.250009
vt 0.857397 0.250554
s 0
f 19/1/1 21/2/1 22/3/1 20/4/1
f 19/5/2 16/6/2 18/7/2 21/8/2
f 22/9/3 23/10/3 24/11/3 25/12/3 20/13/3
f 26/14/4 25/15/4 24/16/4
f 15/17/5 2/18/5 1/19/5 17/20/5
f 12/21/6 11/22/6 1/19/6 2/18/6 14/23/6
f 14/24/7 2/25/7 15/26/7 5/27/7 8/28/7 10/29/7 13/30/7
f 11/31/8 9/32/8 7/33/8 4/34/8 17/35/8 1/36/8
f 6/37/9 18/38/9 16/39/9 3/40/9
