# Blender 4.3.2
# www.blender.org
o Cylinder.001_cell.012
v -0.974928 -0.050000 0.222521
v -0.974928 0.050000 0.222521
v -0.251482 0.050000 -0.372775
v -0.248016 -0.050000 -0.379502
v -0.240739 -0.050000 -0.374294
v -0.229638 0.050000 -0.357142
v -0.022779 -0.050000 -0.203984
v -0.157277 0.050000 -0.300600
v -0.848794 0.050000 -0.330109
v -0.847280 -0.050000 -0.336740
v 0.039064 -0.050000 -0.155383
v 0.028788 0.050000 -0.154374
v 0.028556 -0.050000 -0.101522
v -0.002827 0.050000 0.007678
v 0.001455 -0.050000 0.035395
v -0.011827 0.050000 0.053147
v -0.760516 -0.050000 0.271401
v -0.264875 0.050000 0.131524
v -0.901258 -0.050000 0.314900
v -0.892743 0.050000 0.325578
v -0.229638 0.050000 -0.357142
v -0.157277 0.050000 -0.300600
v -0.240739 -0.050000 -0.374294
v -0.022779 -0.050000 -0.203984
v -0.251482 0.050000 -0.372775
v -0.848794 0.050000 -0.330109
v -0.847280 -0.050000 -0.336740
v -0.248016 -0.050000 -0.379502
v 0.039064 -0.050000 -0.155383
v 0.028788 0.050000 -0.154374
v 0.028556 -0.050000 -0.101522
v -0.002827 0.050000 0.007678
v 0.001455 -0.050000 0.035395
v -0.011827 0.050000 0.053147
v -0.264875 0.050000 0.131524
v -0.760516 -0.050000 0.271401
v -0.892743 0.050000 0.325578
v -0.901258 -0.050000 0.314900
vn 0.5804 0.0747 -0.8109
vn 0.6143 0.0667 -0.7862
vn 0.6163 0.0712 -0.7843
vn 0.9767 0.0984 0.1906
vn 0.9765 0.0954 0.1933
vn 0.2934 -0.1292 0.9472
vn 0.2929 -0.1261 0.9478
vn -0.7818 -0.0000 0.6235
vn -0.0000 1.0000 -0.0000
vn -0.9749 -0.0000 -0.2225
vn -0.0000 -1.0000 -0.0000
vn -0.0711 0.0647 -0.9954
vt 0.165760 0.165760
vt 1.000000 0.248923
vt 1.000000 0.749781
vt 0.722076 0.722076
vt 0.249141 0.000000
vt 0.750437 0.000000
vt 0.749781 0.749781
vt 0.248923 0.248923
vt 0.750951 0.000000
vt 1.000000 0.249563
vt 1.000000 0.750859
vt 0.250686 0.000000
vt 0.750951 0.750951
vt 0.250686 0.250686
vt 1.000000 0.249227
vt 1.000000 0.750466
vt 0.750466 0.750466
vt 0.249227 0.249227
vt 0.248981 0.000000
vt 0.749725 0.000000
vt 0.249347 0.000000
vt 0.750825 0.000000
vt 0.749725 0.749725
vt 0.248981 0.248981
vt 0.327511 0.077833
vt 0.849255 0.098356
vt 1.000000 0.249175
vt 1.000000 0.750653
vt 0.307414 1.000000
vt 0.285714 1.000000
vt 0.285714 0.500000
vt 0.305166 0.500000
vt 0.189644 0.339466
vt 0.046290 0.329226
vt 0.016017 0.196595
vt 0.035742 0.171861
vt 0.186430 0.218434
vt 0.247161 0.237245
vt 0.249321 0.248157
vt 0.256909 0.287050
vt 0.212254 0.322144
vt 0.194887 0.335714
vt 0.191278 0.500000
vt 0.192397 1.000000
vt 0.516017 0.196595
vt 0.546653 0.330818
vt 0.690597 0.341061
vt 0.692223 0.339831
vt 0.744533 0.298956
vt 0.759375 0.287292
vt 0.756853 0.274365
vt 0.750349 0.241505
vt 0.567476 0.184864
vt 0.533698 0.174424
vt 1.000000 0.248598
vt 1.000000 0.749673
vt 0.477571 0.227927
vt 0.974766 0.226128
s 0
f 25/1/1 21/2/1 23/3/1 28/4/1
f 22/5/2 24/6/2 23/7/2 21/8/2
f 29/9/3 24/10/3 22/11/3 30/12/3
f 29/13/4 30/14/4 32/15/4 31/16/4
f 31/17/5 32/18/5 34/19/5 33/20/5
f 35/21/6 36/22/6 33/23/6 34/24/6
f 37/25/7 38/26/7 36/27/7 35/28/7
f 20/29/8 2/30/8 1/31/8 19/32/8
f 3/33/9 26/34/9 2/35/9 20/36/9 18/37/9 16/38/9 14/39/9 12/40/9 8/41/9 6/42/9
f 27/43/10 1/31/10 2/30/10 26/44/10
f 1/45/11 27/46/11 4/47/11 5/48/11 7/49/11 11/50/11 13/51/11 15/52/11 17/53/11 19/54/11
f 25/55/12 28/56/12 10/57/12 9/58/12
