# Blender 4.3.2
# www.blender.org
o Cylinder.001_cell.004
v 0.974928 -0.050000 0.222521
v 0.974928 0.050000 0.222521
v 0.003413 -0.050000 0.036941
v -0.009930 0.050000 0.054395
v 0.044256 -0.050000 0.310188
v 0.029636 0.050000 0.318769
v 0.041346 -0.050000 -0.155071
v 0.031306 0.050000 -0.154413
v 0.296166 -0.050000 0.444530
v 0.641666 0.021044 0.640418
v 0.648252 -0.050000 0.632160
v 0.639013 0.050000 0.643745
v 0.343181 -0.050000 -0.336424
v 0.131854 0.050000 -0.214825
v 0.433566 -0.050000 -0.390536
v 0.404265 0.050000 -0.377914
v 0.563828 -0.050000 -0.396507
v 0.796865 0.050000 -0.395913
v 0.833411 0.050000 -0.397505
v 0.830982 -0.050000 -0.408145
v 0.003413 -0.050000 0.036941
v 0.044256 -0.050000 0.310188
v -0.009930 0.050000 0.054395
v 0.029636 0.050000 0.318769
v 0.031306 0.050000 -0.154413
v 0.041346 -0.050000 -0.155071
v 0.296166 -0.050000 0.444530
v 0.648252 -0.050000 0.632160
v 0.641666 0.021044 0.640418
v 0.639013 0.050000 0.643745
v 0.343181 -0.050000 -0.336424
v 0.433566 -0.050000 -0.390536
v 0.131854 0.050000 -0.214825
v 0.404265 0.050000 -0.377914
v 0.833411 0.050000 -0.397505
v 0.830982 -0.050000 -0.408145
v 0.563828 -0.050000 -0.396507
v 0.796865 0.050000 -0.395913
vn -0.9770 -0.1556 0.1461
vn -0.4654 -0.1446 0.8732
vn -0.4657 -0.1430 0.8733
vn -0.5132 -0.0422 -0.8572
vn -0.5145 -0.0460 -0.8563
vn -0.0433 0.1067 -0.9933
vn -0.0455 0.1120 -0.9927
vn 0.9749 -0.0000 -0.2225
vn 0.7818 -0.0000 0.6235
vn -0.0000 1.0000 -0.0000
vn -0.0000 -1.0000 -0.0000
vn -0.9764 -0.0967 -0.1929
vt 0.249508 0.249508
vt 0.250470 0.000000
vt 0.748542 0.000000
vt 0.750943 0.750943
vt 0.637086 0.387054
vt 1.000000 0.393514
vt 1.000000 0.748632
vt 0.748632 0.748632
vt 0.393514 0.393514
vt 0.391937 0.249286
vt 1.000000 0.251458
vt 1.000000 0.749530
vt 0.751164 0.000000
vt 1.000000 0.248761
vt 1.000000 0.749745
vt 0.250030 0.000000
vt 0.248761 0.248761
vt 1.000000 0.250842
vt 1.000000 0.750438
vt 0.749745 0.749745
vt 0.311321 0.055512
vt 1.000000 0.248448
vt 1.000000 0.748801
vt 0.905791 0.722408
vt 0.748801 0.748801
vt 0.248448 0.248448
vt 0.248836 0.000000
vt 0.749969 0.000000
vt 0.818983 1.000000
vt 0.714286 1.000000
vt 0.714286 0.500000
vt 0.820780 0.500000
vt 0.628030 0.500000
vt 0.625591 1.000000
vt 0.626291 0.855220
vt 0.281645 0.301558
vt 0.257513 0.287059
vt 0.247617 0.236945
vt 0.257113 0.173496
vt 0.403363 0.095501
vt 0.483983 0.196595
vt 0.450019 0.345401
vt 0.441248 0.345019
vt 0.347023 0.340699
vt 0.760621 0.175555
vt 0.750819 0.241134
vt 0.759923 0.287217
vt 0.832363 0.330742
vt 0.854056 0.343729
vt 0.885319 0.345162
vt 0.949436 0.347955
vt 0.983983 0.196595
vt 0.905580 0.098282
vt 0.821080 0.143313
vt 1.000000 0.750943
vt 0.249562 0.000000
vt 0.749158 0.000000
vt 1.000000 0.249508
s 0
f 21/1/1 22/2/1 24/3/1 23/4/1
f 28/5/2 29/6/2 27/7/2
f 27/8/3 29/9/3 30/10/3 24/11/3 22/12/3
f 32/13/4 31/14/4 33/15/4 34/16/4
f 31/17/5 26/18/5 8/19/5 33/20/5
f 36/21/6 37/22/6 38/23/6 35/24/6
f 38/25/7 37/26/7 32/27/7 34/28/7
f 19/29/8 2/30/8 1/31/8 20/32/8
f 11/33/9 1/31/9 2/30/9 12/34/9 10/35/9
f 14/36/10 25/37/10 4/38/10 6/39/10 12/40/10 2/41/10 19/42/10 18/43/10 16/44/10
f 5/45/11 3/46/11 7/47/11 13/48/11 15/49/11 17/50/11 20/51/11 1/52/11 11/53/11 9/54/11
f 23/55/12 8/56/12 26/57/12 21/58/12
