# Blender 4.3.2
# www.blender.org
o Cylinder_cell.005
v 0.000000 -0.050000 -1.000000
v 0.000000 0.050000 -1.000000
v -0.707107 -0.050000 -0.707107
v -0.707107 0.050000 -0.707107
v -0.592763 -0.050000 0.050524
v -0.616749 0.050000 0.061748
v -0.892916 -0.025522 -0.258524
v -0.890334 -0.050000 -0.264757
v -0.733450 0.050000 -0.061898
v -0.900719 0.050000 -0.239686
v 0.336912 -0.050000 -0.860446
v 0.319181 0.050000 -0.867791
v -0.017947 -0.050000 -0.001314
v -0.043157 0.050000 0.009673
v -0.161967 -0.050000 0.011805
v -0.473859 0.050000 0.048906
v -0.616749 0.050000 0.061748
v -0.733450 0.050000 -0.061898
v -0.892916 -0.025522 -0.258524
v -0.890334 -0.050000 -0.264757
v -0.592763 -0.050000 0.050524
v -0.900719 0.050000 -0.239686
v 0.336912 -0.050000 -0.860446
v 0.319181 0.050000 -0.867791
v -0.017947 -0.050000 -0.001314
v -0.043157 0.050000 0.009673
v -0.161967 -0.050000 0.011805
v -0.473859 0.050000 0.048906
vn -0.7053 -0.2439 0.6657
vn -0.7072 -0.2390 0.6654
vn 0.0904 -0.0862 0.9922
vn 0.0892 -0.0900 0.9919
vn 0.3827 -0.0000 -0.9239
vn -0.0000 1.0000 -0.0000
vn -0.9239 -0.0000 -0.3827
vn -0.3827 -0.0000 -0.9239
vn -0.0000 -1.0000 -0.0000
vn 0.9078 0.1881 0.3749
vt 1.000000 0.248740
vt 1.000000 0.627241
vt 0.884197 0.634253
vt 0.249215 0.000000
vt 0.750974 0.000000
vt 0.627242 0.627242
vt 0.248740 0.248740
vt 0.646063 0.249813
vt 0.748828 0.748828
vt 0.248851 0.248851
vt 1.000000 0.248318
vt 1.000000 0.748649
vt 0.249026 0.000000
vt 0.750785 0.000000
vt 0.748649 0.748649
vt 0.248318 0.248318
vt 0.940442 0.500000
vt 1.000000 0.500000
vt 1.000000 1.000000
vt 0.943576 1.000000
vt 0.250000 0.490000
vt 0.080294 0.419706
vt 0.033827 0.307525
vt 0.073972 0.264856
vt 0.101980 0.235180
vt 0.136274 0.238263
vt 0.239642 0.247678
vt 0.326603 0.458270
vt 0.207629 1.000000
vt 0.125000 1.000000
vt 0.125000 0.500000
vt 0.203197 0.500000
vt 0.204299 0.622392
vt 0.000000 1.000000
vt 0.000000 0.500000
vt 0.536320 0.313542
vt 0.580294 0.419706
vt 0.750000 0.490000
vt 0.830859 0.456507
vt 0.745693 0.250315
vt 0.711128 0.247167
vt 0.607737 0.237874
vt 0.748828 0.000000
vt 0.822233 0.072765
vt 0.828947 0.579814
vt 0.248851 0.000000
s 0
f 18/1/1 19/2/1 20/3/1 21/4/1 17/5/1
f 19/6/2 18/7/2 22/8/2
f 25/9/3 26/10/3 28/11/3 27/12/3
f 17/13/4 21/14/4 27/15/4 28/16/4
f 23/17/5 1/18/5 2/19/5 24/20/5
f 2/21/6 4/22/6 10/23/6 9/24/6 6/25/6 16/26/6 14/27/6 24/28/6
f 10/29/7 4/30/7 3/31/7 8/32/7 7/33/7
f 3/31/8 4/30/8 2/34/8 1/35/8
f 8/36/9 3/37/9 1/38/9 23/39/9 13/40/9 15/41/9 5/42/9
f 25/43/10 11/44/10 12/45/10 26/46/10
