# Blender 4.3.2
# www.blender.org
o Cylinder_cell.006
v -0.707107 -0.050000 0.707107
v -0.707107 0.050000 0.707107
v 0.044455 -0.050000 0.097427
v -0.018116 -0.050000 0.000829
v -0.022462 0.050000 0.043929
v -0.043408 0.050000 0.011593
v -0.449101 -0.050000 0.039385
v -0.187680 0.050000 0.024500
v 0.070334 -0.050000 0.137533
v 0.054864 0.050000 0.163768
v -0.593133 -0.050000 0.052458
v -0.617031 0.050000 0.063468
v 0.085302 -0.050000 0.292715
v 0.059880 0.050000 0.215765
v -0.875781 -0.017599 0.299892
v -0.874781 -0.050000 0.302306
v -0.733832 0.050000 0.167081
v 0.088811 -0.050000 0.329928
v 0.070475 0.050000 0.328139
v -0.877822 0.050000 0.294965
v -0.207645 -0.050000 0.913990
v -0.223476 0.050000 0.907433
v -0.022462 0.050000 0.043929
v -0.043408 0.050000 0.011593
v 0.044455 -0.050000 0.097427
v -0.018116 -0.050000 0.000829
v -0.449101 -0.050000 0.039385
v -0.187680 0.050000 0.024500
v 0.054864 0.050000 0.163768
v 0.070334 -0.050000 0.137533
v -0.593133 -0.050000 0.052458
v -0.617031 0.050000 0.063468
v 0.059880 0.050000 0.215765
v 0.085302 -0.050000 0.292715
v -0.874781 -0.050000 0.302306
v -0.875781 -0.017599 0.299892
v -0.733832 0.050000 0.167081
v 0.070475 0.050000 0.328139
v 0.088811 -0.050000 0.329928
v -0.877822 0.050000 0.294965
v -0.207645 -0.050000 0.913990
v -0.223476 0.050000 0.907433
vn 0.8101 0.2614 -0.5248
vn -0.0888 0.0844 -0.9925
vn 0.8108 0.2627 -0.5231
vn -0.0900 0.0877 -0.9921
vn 0.9798 0.1764 -0.0945
vn -0.6617 -0.0760 -0.7459
vn 0.9797 0.1780 -0.0924
vn -0.6622 -0.0743 -0.7456
vn -0.3827 -0.0000 0.9239
vn -0.9239 -0.0000 0.3827
vn -0.0000 1.0000 -0.0000
vn -0.0000 -1.0000 -0.0000
vn 0.8789 0.1688 0.4461
vt 0.250818 0.000000
vt 0.749270 0.000000
vt 0.749124 0.749124
vt 0.250770 0.250770
vt 1.000000 0.749124
vt 0.251398 0.000000
vt 0.749405 0.000000
vt 1.000000 0.250770
vt 0.251091 0.000000
vt 0.749361 0.000000
vt 1.000000 0.250730
vt 1.000000 0.749182
vt 0.251398 0.251398
vt 0.251875 0.000000
vt 0.750826 0.000000
vt 0.749405 0.749405
vt 0.252084 0.000000
vt 0.752324 0.000000
vt 0.749361 0.749361
vt 0.251091 0.251091
vt 0.398825 0.147279
vt 0.413218 0.000000
vt 0.750689 0.000000
vt 1.000000 0.249175
vt 1.000000 0.748125
vt 0.249992 0.000000
vt 0.751631 0.000000
vt 1.000000 0.247676
vt 1.000000 0.747916
vt 0.750689 0.750689
vt 0.413218 0.413218
vt 0.750263 0.408493
vt 0.460495 1.000000
vt 0.375000 1.000000
vt 0.375000 0.500000
vt 0.463293 0.500000
vt 0.302143 1.000000
vt 0.303014 0.662004
vt 0.303441 0.500000
vt 0.263167 0.210696
vt 0.244609 0.239457
vt 0.239582 0.247218
vt 0.204957 0.244120
vt 0.101913 0.234768
vt 0.073880 0.209900
vt 0.039323 0.179208
vt 0.080294 0.080294
vt 0.196366 0.032216
vt 0.266914 0.171247
vt 0.264371 0.198216
vt 0.642216 0.240548
vt 0.745652 0.249801
vt 0.760669 0.226618
vt 0.766880 0.216992
vt 0.770473 0.179748
vt 0.771315 0.170817
vt 0.700165 0.030642
vt 0.580294 0.080294
vt 0.540053 0.177447
vt 0.607648 0.237410
vt 0.249993 0.249993
vt 0.251601 0.198780
vt 0.750520 0.189638
vt 0.751631 0.751631
s 0
f 23/1/1 25/2/1 26/3/1 24/4/1
f 26/5/2 27/6/2 28/7/2 24/8/2
f 29/9/3 30/10/3 25/11/3 23/12/3
f 27/13/4 31/14/4 32/15/4 28/16/4
f 33/17/5 34/18/5 30/19/5 29/20/5
f 35/21/6 36/22/6 37/23/6 32/24/6 31/25/6
f 38/26/7 39/27/7 34/28/7 33/29/7
f 37/30/8 36/31/8 40/32/8
f 42/33/9 2/34/9 1/35/9 41/36/9
f 1/35/10 2/34/10 20/37/10 15/38/10 16/39/10
f 10/40/11 5/41/11 6/42/11 8/43/11 12/44/11 17/45/11 20/46/11 2/47/11 42/48/11 19/49/11 14/50/11
f 7/51/12 4/52/12 3/53/12 9/54/12 13/55/12 18/56/12 41/57/12 1/58/12 16/59/12 11/60/12
f 38/61/13 22/62/13 21/63/13 39/64/13
