# Blender 4.3.2
# www.blender.org
o Cylinder_cell.001
v 1.000000 -0.050000 0.000000
v 1.000000 0.050000 0.000000
v 0.853964 -0.014869 0.352562
v 0.852801 -0.050000 0.355370
v 0.703722 0.050000 0.290620
v 0.362221 -0.050000 0.172662
v 0.513725 0.050000 0.219859
v 0.476235 -0.050000 -0.009969
v 0.857817 0.050000 -0.331317
v 0.860795 0.050000 -0.336071
v 0.789012 -0.050000 -0.509371
v 0.856146 0.050000 0.347294
v 0.703722 0.050000 0.290620
v 0.513725 0.050000 0.219859
v 0.852801 -0.050000 0.355370
v 0.362221 -0.050000 0.172662
v 0.853964 -0.014869 0.352562
v 0.857817 0.050000 -0.331317
v 0.476235 -0.050000 -0.009969
v 0.860795 0.050000 -0.336071
v 0.789012 -0.050000 -0.509371
v 0.856146 0.050000 0.347294
vn -0.3477 0.0862 0.9336
vn -0.4630 0.8379 -0.2891
vn -0.4640 0.8368 -0.2906
vn -0.3472 0.0875 0.9337
vn 0.9239 -0.0000 -0.3827
vn 0.9239 -0.0000 0.3827
vn -0.0000 1.0000 -0.0000
vn -0.0000 -1.0000 -0.0000
vt 1.000000 0.249027
vt 1.000000 0.751167
vt 0.357271 0.108172
vt 0.425479 0.000000
vt 0.751076 0.000000
vt 1.000000 0.252206
vt 1.000000 0.752220
vt 0.751166 0.751166
vt 0.249027 0.249027
vt 0.765994 0.342134
vt 0.752220 0.752220
vt 0.252206 0.252206
vt 0.252337 0.248302
vt 0.669522 0.248818
vt 1.000000 0.248924
vt 1.000000 0.574521
vt 0.809409 1.000000
vt 0.750000 1.000000
vt 0.750000 0.500000
vt 0.840045 0.500000
vt 0.688607 1.000000
vt 0.687675 0.675656
vt 0.687179 0.500000
vt 0.418893 0.180251
vt 0.455475 0.166649
vt 0.490000 0.250000
vt 0.456591 0.330657
vt 0.455876 0.329516
vt 0.373294 0.197234
vt 0.990000 0.250000
vt 0.954672 0.164711
vt 0.836933 0.208561
vt 0.864296 0.252393
vt 0.939363 0.372249
s 0
f 14/1/1 16/2/1 15/3/1 17/4/1 13/5/1
f 18/6/2 19/7/2 16/8/2 14/9/2
f 21/10/3 19/11/3 18/12/3 20/13/3
f 22/14/4 13/15/4 17/16/4
f 10/17/5 2/18/5 1/19/5 11/20/5
f 1/19/6 2/18/6 12/21/6 3/22/6 4/23/6
f 5/24/7 12/25/7 2/26/7 10/27/7 9/28/7 7/29/7
f 1/30/8 4/31/8 6/32/8 8/33/8 11/34/8
