# Blender 4.3.2
# www.blender.org
o Cylinder.001_cell
v 0.000000 -0.050000 -1.000000
v 0.000000 0.050000 -1.000000
v -0.358600 -0.050000 -0.649153
v -0.273026 0.050000 -0.433747
v -0.245950 -0.050000 -0.381578
v -0.248121 0.050000 -0.374591
v -0.356635 -0.050000 -0.654906
v -0.267112 0.050000 -0.451071
v -0.273592 -0.050000 -0.868245
v -0.238531 0.050000 -0.524495
v -0.064909 0.050000 -0.968741
v 0.040105 -0.050000 -0.156975
v 0.030095 0.050000 -0.155928
v -0.239265 -0.050000 -0.376227
v -0.228176 0.050000 -0.358625
v 0.372017 0.050000 -0.820846
v 0.396690 -0.028811 -0.808964
v 0.391689 0.050000 -0.541682
v 0.432068 -0.050000 -0.392120
v 0.402978 0.050000 -0.379589
v 0.403259 -0.050000 -0.805801
v -0.273026 0.050000 -0.433747
v -0.248121 0.050000 -0.374591
v -0.358600 -0.050000 -0.649153
v -0.245950 -0.050000 -0.381578
v -0.356635 -0.050000 -0.654906
v -0.267112 0.050000 -0.451071
v -0.273592 -0.050000 -0.868245
v -0.238531 0.050000 -0.524495
v -0.064909 0.050000 -0.968741
v 0.030095 0.050000 -0.155928
v -0.228176 0.050000 -0.358625
v 0.040105 -0.050000 -0.156975
v -0.239265 -0.050000 -0.376227
v 0.372017 0.050000 -0.820846
v 0.391689 0.050000 -0.541682
v 0.396690 -0.028811 -0.808964
v 0.432068 -0.050000 -0.392120
v 0.403259 -0.050000 -0.805801
v 0.402978 0.050000 -0.379589
vn -0.9206 -0.0471 0.3876
vn -0.5235 0.8330 -0.1787
vn -0.4998 0.8440 -0.1946
vn -0.4986 0.8447 -0.1949
vn 0.5140 0.0423 0.8568
vn -0.6235 -0.0680 0.7789
vn 0.9550 0.2888 -0.0673
vn 0.9558 0.2864 -0.0666
vn 0.4339 -0.0000 -0.9010
vn -0.0000 1.0000 -0.0000
vn -0.4339 -0.0000 -0.9010
vn -0.0000 -1.0000 -0.0000
vn -0.6159 -0.0699 0.7847
vt 0.841253 0.000000
vt 1.000000 0.159366
vt 1.000000 0.720845
vt 0.281954 0.000000
vt 1.000000 0.750610
vt 0.720845 0.720845
vt 0.159366 0.159366
vt 1.000000 0.248999
vt 0.751391 0.027132
vt 0.750610 0.750610
vt 0.248999 0.248999
vt 0.249268 0.000000
vt 0.883846 0.251160
vt 0.742529 0.742529
vt 0.249268 0.249268
vt 0.751833 0.000000
vt 1.000000 0.250886
vt 1.000000 0.749193
vt 0.251783 0.000000
vt 0.748005 0.748005
vt 0.248135 0.248135
vt 1.000000 0.158747
vt 1.000000 0.718046
vt 1.000000 0.248684
vt 1.000000 0.643596
vt 0.589162 0.250453
vt 0.748217 0.000000
vt 0.749535 0.634668
vt 0.643596 0.643596
vt 0.248684 0.248684
vt 0.248167 0.000000
vt 0.927516 0.605947
vt 0.926316 0.500000
vt 1.000000 0.500000
vt 1.000000 1.000000
vt 0.932025 1.000000
vt 0.185893 0.358257
vt 0.184474 0.354099
vt 0.190451 0.339902
vt 0.195238 0.336070
vt 0.257223 0.287423
vt 0.346715 0.341101
vt 0.344005 0.380004
vt 0.339284 0.447003
vt 0.250000 0.490000
vt 0.234422 0.482498
vt 0.192753 0.375879
vt 0.011860 1.000000
vt 0.000000 1.000000
vt 0.000000 0.500000
vt 0.049319 0.508854
vt 0.759625 0.287674
vt 0.692576 0.340294
vt 0.690972 0.341579
vt 0.663936 0.405797
vt 0.664407 0.407177
vt 0.684338 0.458379
vt 0.750000 0.490000
vt 0.846782 0.443392
vt 0.853696 0.344109
vt 1.000000 0.248135
vt 1.000000 0.748005
vt 0.250807 0.000000
vt 0.749114 0.000000
s 0
f 23/1/1 22/2/1 24/3/1 25/4/1
f 26/5/2 24/6/2 22/7/2 27/8/2
f 28/9/3 26/10/3 27/11/3 29/12/3
f 30/13/4 28/14/4 29/15/4
f 40/16/5 31/17/5 33/18/5 38/19/5
f 34/20/6 15/21/6 23/22/6 25/23/6
f 36/24/7 37/25/7 35/26/7
f 38/27/8 39/28/8 37/29/8 36/30/8 40/31/8
f 17/32/9 21/33/9 1/34/9 2/35/9 16/36/9
f 8/37/10 4/38/10 6/39/10 32/40/10 13/41/10 20/42/10 18/43/10 16/44/10 2/45/10 11/46/10 10/47/10
f 11/48/11 2/49/11 1/50/11 9/51/11
f 12/52/12 14/53/12 5/54/12 3/55/12 7/56/12 9/57/12 1/58/12 21/59/12 19/60/12
f 15/61/13 34/62/13 33/63/13 31/64/13
