# Blender 4.3.2
# www.blender.org
o Cylinder.001_cell.013
v -0.781832 -0.050000 -0.623490
v -0.781832 0.050000 -0.623490
v -0.299327 0.050000 -0.482961
v -0.433719 -0.031417 -0.791132
v -0.446682 0.050000 -0.784889
v -0.361097 -0.050000 -0.649119
v -0.275987 0.050000 -0.434981
v -0.430850 -0.050000 -0.792514
v -0.248729 -0.050000 -0.381362
v -0.250598 0.050000 -0.374482
v -0.848393 0.050000 -0.331866
v -0.831161 0.050000 -0.333086
v -0.846779 -0.050000 -0.338936
v -0.442274 -0.050000 -0.367562
v -0.433719 -0.031417 -0.791132
v -0.446682 0.050000 -0.784889
v -0.299327 0.050000 -0.482961
v -0.361097 -0.050000 -0.649119
v -0.430850 -0.050000 -0.792514
v -0.275987 0.050000 -0.434981
v -0.250598 0.050000 -0.374482
v -0.248729 -0.050000 -0.381362
v -0.848393 0.050000 -0.331866
v -0.831161 0.050000 -0.333086
v -0.846779 -0.050000 -0.338936
v -0.442274 -0.050000 -0.367562
vn 0.8850 0.1740 -0.4319
vn 0.8863 0.1689 -0.4311
vn 0.9212 0.0438 -0.3866
vn 0.0704 -0.0692 0.9951
vn 0.0710 -0.0671 0.9952
vn -0.0000 1.0000 -0.0000
vn -0.9749 -0.0000 -0.2225
vn -0.4339 -0.0000 -0.9010
vn -0.0000 -1.0000 -0.0000
vt 0.609133 0.399352
vt 0.163190 0.000000
vt 0.618357 0.000000
vt 0.721218 0.487714
vt 0.618357 0.618357
vt 0.163190 0.163190
vt 0.162476 0.000000
vt 0.719082 0.000000
vt 0.162476 0.162476
vt 0.162893 0.000000
vt 0.720928 0.000000
vt 0.719082 0.719082
vt 0.773316 0.022228
vt 0.771196 0.521781
vt 0.250409 0.000000
vt 0.751130 0.000000
vt 0.250409 0.250409
vt 0.279072 0.000000
vt 0.837107 0.000000
vt 0.751130 0.751130
vt 0.189857 0.339876
vt 0.183763 0.354395
vt 0.178162 0.365911
vt 0.142796 0.438373
vt 0.062360 0.399638
vt 0.046386 0.329648
vt 0.050521 0.329941
vt 0.192101 1.000000
vt 0.142857 1.000000
vt 0.142857 0.500000
vt 0.190907 0.500000
vt 0.079250 0.592914
vt 0.078725 0.500000
vt 0.081618 1.000000
vt 0.562360 0.399638
vt 0.646596 0.440203
vt 0.663337 0.405789
vt 0.690305 0.341527
vt 0.643854 0.338215
vt 0.546773 0.331345
s 0
f 16/1/1 17/2/1 15/3/1
f 19/4/2 15/5/2 17/6/2 20/7/2 18/8/2
f 20/9/3 21/10/3 22/11/3 18/12/3
f 23/13/4 25/14/4 26/15/4 24/16/4
f 26/17/5 22/18/5 21/19/5 24/20/5
f 10/21/6 7/22/6 3/23/6 5/24/6 2/25/6 11/26/6 12/27/6
f 11/28/7 2/29/7 1/30/7 13/31/7
f 4/32/8 8/33/8 1/30/8 2/29/8 5/34/8
f 1/35/9 8/36/9 6/37/9 9/38/9 14/39/9 13/40/9
