# Blender 4.3.2
# www.blender.org
o Cube.004
v 0.271627 1.277178 -0.684441
v -0.427461 0.166044 0.638151
v -0.346303 1.374876 -0.511172
v -0.376401 0.070488 -0.636763
v 0.272726 0.198133 -0.572579
v 0.171662 -1.094254 -0.331967
v 0.399843 0.237277 0.837592
v -0.074248 -0.895581 0.290988
v -0.318715 -1.065234 0.280238
v -0.382299 1.421978 0.820086
v 0.668355 1.387981 1.058696
v 0.446226 0.214120 0.125480
v -0.161035 -0.910288 -0.300791
v -0.409081 0.387108 0.147705
v -0.026423 0.175227 0.765010
v -0.070268 0.062595 -0.918324
v 0.032369 1.595932 0.081548
v -0.058405 1.415318 -0.779091
v -0.397660 -0.441897 0.494788
v -0.463115 0.783743 0.785748
v -0.405482 0.690133 -0.657018
v -0.285879 -0.456213 -0.507249
v 0.276569 0.737566 -0.715009
v 0.268515 -0.416128 -0.474474
v 0.632017 0.810254 1.075024
v 0.139713 -0.337661 0.575440
v -0.182235 0.921267 0.939315
v 0.025378 -1.160656 -0.018724
v 0.013826 -1.180232 -0.344193
v 0.067492 0.805732 -0.961563
v -0.436122 1.044423 -0.148585
v -0.439522 1.552288 0.183628
v 0.568117 1.437441 0.198738
v -0.296278 -0.413764 -0.074003
v -0.221591 -1.119337 0.006954
v 0.178114 1.542671 -0.335750
v 0.452786 0.886907 -0.256436
v -0.482690 1.070454 0.504544
v 0.164400 1.513046 1.089438
v 0.380270 0.933518 1.102064
v -0.226181 0.816853 -0.877628
v -0.198059 1.599588 -0.267411
v -0.173188 1.625864 0.493565
v -0.232101 -1.159665 0.262119
v -0.246548 -0.598676 0.513471
v -0.299509 0.134834 0.703124
v 0.178638 -0.504149 0.207639
v 0.460665 0.239415 0.615910
v 0.093037 -0.641192 -0.675279
v 0.136290 0.137921 -0.792120
v -0.401287 0.227690 -0.325272
v -0.452167 0.283816 0.489518
v -0.381458 -0.448933 0.254170
v 0.373248 0.217839 -0.309874
v 0.312785 -0.560574 -0.145624
v 0.675049 0.936309 0.643376
v -0.087735 -1.358279 -0.033107
v 0.365466 1.599427 0.583704
v -0.281400 0.021907 -0.838607
v -0.106743 -0.622023 -0.659834
v 0.256479 0.216298 0.860605
v -0.095734 -0.526251 0.523115
v -0.075218 1.061611 -0.925507
v -0.221336 -0.813491 0.432140
v 0.175345 -0.797414 -0.008473
v 0.019279 -0.868115 -0.583444
v -0.305836 -0.689870 0.085228
v -0.085152 -1.322006 -0.115695
v 0.420050 1.561399 0.144465
v 0.135311 1.179170 1.103879
v -0.312934 -0.362083 0.575497
v -0.350473 0.641934 0.825853
v 0.244824 -0.235051 0.459908
v 0.646338 0.709601 0.856369
v 0.165906 -0.347061 -0.670422
v 0.162629 0.598610 -0.874244
v -0.330612 -0.248506 -0.293551
v -0.430242 0.697405 -0.405537
v -0.487617 0.763596 0.636484
v -0.426429 -0.240341 0.411195
v 0.368110 0.662502 -0.467105
v 0.347738 -0.283248 -0.288350
v -0.322649 1.632460 0.128784
v 0.602974 1.133884 0.203180
v -0.471315 1.301219 0.203251
v -0.038973 1.558620 -0.551444
v -0.328701 0.527912 -0.837610
v -0.231738 -0.415248 -0.705422
v 0.476460 0.693539 1.070672
v 0.077613 -0.253864 0.654009
v 0.133145 1.626473 0.814404
v -0.119335 -1.326501 0.058593
vn -0.6780 0.3005 -0.6708
vn 0.3872 0.3369 -0.8583
vn -0.2751 -0.0083 -0.9614
vn 0.1011 -0.3353 0.9367
vn -0.3239 -0.3938 0.8602
vn 0.4954 -0.4200 0.7604
vn 0.8798 -0.2859 0.3798
vn 0.7712 -0.3609 0.5245
vn 0.8801 -0.3548 0.3155
vn -0.1053 -0.3456 -0.9324
vn 0.4444 -0.5154 -0.7327
vn -0.7194 -0.4531 -0.5265
vn -0.9492 -0.1189 -0.2915
vn -0.9630 -0.0773 -0.2582
vn -0.9506 -0.1328 -0.2807
vn 0.4615 -0.8265 -0.3224
vn -0.8663 -0.4484 -0.2202
vn -0.8022 -0.3615 -0.4751
vn 0.1016 0.9914 -0.0819
vn 0.6075 0.7942 -0.0144
vn 0.6565 0.6697 -0.3472
vn 0.0663 0.0464 0.9967
vn -0.4632 0.0468 0.8850
vn -0.2621 -0.2705 0.9264
vn -0.1485 -0.2576 0.9548
vn -0.5192 -0.2108 0.8283
vn -0.4558 -0.3414 0.8220
vn -0.1910 -0.2561 0.9476
vn -0.4748 -0.0129 0.8800
vn -0.5268 -0.2368 0.8163
vn 0.9246 -0.3778 0.0494
vn 0.8357 -0.4831 0.2612
vn 0.8255 -0.4762 0.3029
vn 0.9545 -0.2911 -0.0640
vn 0.9950 -0.0569 0.0826
vn 0.8548 -0.4559 0.2479
vn 0.5776 -0.1523 -0.8020
vn 0.8633 -0.0797 -0.4984
vn 0.8425 -0.2169 -0.4931
vn 0.5233 -0.1585 -0.8373
vn 0.7690 0.0546 -0.6370
vn 0.8580 -0.1370 -0.4951
vn -0.9884 -0.1475 0.0366
vn -0.9867 -0.1616 -0.0185
vn -0.9687 -0.2482 0.0011
vn -0.9989 -0.0454 0.0128
vn -0.9862 0.1019 -0.1304
vn -0.9957 -0.0595 -0.0704
vn -0.9865 -0.0989 0.1305
vn -0.9783 0.1071 0.1773
vn -0.9907 -0.0359 -0.1315
vn -0.9908 -0.1193 -0.0632
vn -0.9892 -0.0734 0.1269
vn -0.9854 -0.0421 -0.1651
vn 0.9265 -0.1085 -0.3603
vn 0.9314 0.0176 -0.3636
vn 0.9740 -0.0995 -0.2037
vn 0.9567 -0.1962 -0.2150
vn 0.9337 -0.0627 -0.3526
vn 0.9883 -0.1008 -0.1140
vn -0.6394 0.7212 -0.2667
vn -0.4854 0.8472 0.2160
vn 0.0973 0.9945 -0.0375
vn 0.9624 -0.1446 -0.2298
vn 0.9380 0.0820 -0.3369
vn 0.9875 0.1138 -0.1093
vn -0.9808 0.1611 0.1100
vn -0.9819 0.0991 -0.1616
vn -0.9956 -0.0636 -0.0685
vn -0.5069 0.7576 -0.4112
vn 0.1361 0.9880 -0.0736
vn 0.4752 0.7454 -0.4676
vn -0.9237 -0.0691 -0.3768
vn -0.8129 0.1947 -0.5489
vn -0.3354 -0.0229 -0.9418
vn -0.7828 -0.4570 -0.4224
vn -0.9144 -0.2247 -0.3366
vn -0.2516 -0.3217 -0.9128
vn 0.2705 -0.4736 0.8382
vn 0.1015 -0.0109 0.9948
vn -0.2921 -0.2595 0.9205
vn 0.2340 -0.5201 0.8214
vn 0.2640 -0.4849 0.8338
vn -0.2515 -0.2991 0.9205
vn 0.0572 0.9971 -0.0494
vn -0.3410 0.8693 0.3578
vn 0.2860 0.9192 0.2707
vn 0.8135 -0.4886 0.3156
vn 0.6735 -0.4042 0.6189
vn -0.7758 -0.6294 0.0441
vt 0.625000 0.250000
vt 0.625000 0.375000
vt 0.589458 0.375000
vt 0.567891 0.324603
vt 0.625000 0.500000
vt 0.571840 0.425347
vt 0.625000 0.375000
vt 0.511995 0.375000
vt 0.514941 0.875000
vt 0.447392 0.925347
vt 0.423450 0.875000
vt 0.447729 0.824653
vt 0.375000 1.000000
vt 0.375000 0.875000
vt 0.447392 0.925347
vt 0.375000 0.750000
vt 0.447729 0.824653
vt 0.514941 0.625000
vt 0.447488 0.675637
vt 0.422004 0.626736
vt 0.447488 0.574942
vt 0.364390 0.637731
vt 0.447488 0.675637
vt 0.375000 0.500000
vt 0.447488 0.574942
vt 0.364390 0.637732
vt 0.447418 0.425347
vt 0.422791 0.375000
vt 0.443470 0.324603
vt 0.375000 0.375000
vt 0.375000 0.250000
vt 0.443470 0.324603
vt 0.375000 0.375000
vt 0.375000 0.000000
vt 0.448025 0.066861
vt 0.423557 0.118684
vt 0.375000 0.125000
vt 0.513494 0.112630
vt 0.444414 0.167506
vt 0.448025 0.066861
vt 0.444414 0.167506
vt 0.249759 0.625289
vt 0.208333 0.583333
vt 0.250000 0.500000
vt 0.125000 0.750000
vt 0.125000 0.625000
vt 0.249759 0.625289
vt 0.125000 0.500000
vt 0.125000 0.625000
vt 0.750000 0.632523
vt 0.700280 0.680230
vt 0.670428 0.629720
vt 0.700280 0.580693
vt 0.625000 0.750000
vt 0.627701 0.626519
vt 0.700280 0.580693
vt 0.627701 0.626519
vt 0.625000 0.875000
vt 0.590117 0.875000
vt 0.572151 0.824653
vt 0.625000 1.000000
vt 0.572392 0.925347
vt 0.572150 0.824653
vt 0.572392 0.925347
vt 0.516161 0.949653
vt 0.471483 0.958333
vt 0.447392 0.925347
vt 0.520833 1.000000
vt 0.447917 1.000000
vt 0.516161 0.949653
vt 0.572392 0.925347
vt 0.554816 0.958333
vt 0.516161 0.949653
vt 0.572917 1.000000
vt 0.516161 0.949653
vt 0.515775 0.699653
vt 0.473327 0.708333
vt 0.447488 0.675637
vt 0.515432 0.750000
vt 0.462095 0.750000
vt 0.572199 0.675384
vt 0.553189 0.708333
vt 0.561632 0.750000
vt 0.572199 0.675384
vt 0.515432 0.750000
vt 0.515775 0.699653
vt 0.515561 0.449653
vt 0.473247 0.458333
vt 0.447418 0.425347
vt 0.515432 0.500000
vt 0.462095 0.500000
vt 0.515561 0.449653
vt 0.571840 0.425347
vt 0.553108 0.458333
vt 0.515561 0.449653
vt 0.561632 0.500000
vt 0.571840 0.425347
vt 0.515561 0.449653
vt 0.561632 0.500000
vt 0.501887 0.191513
vt 0.461473 0.201626
vt 0.444414 0.167506
vt 0.495708 0.247215
vt 0.447718 0.247663
vt 0.501887 0.191513
vt 0.444414 0.167506
vt 0.568836 0.167506
vt 0.541334 0.201626
vt 0.501887 0.191513
vt 0.547255 0.247663
vt 0.495708 0.247215
vt 0.547255 0.247663
vt 0.520833 0.000000
vt 0.572917 0.000000
vt 0.555501 0.035351
vt 0.516891 0.042556
vt 0.625000 0.000000
vt 0.573025 0.066861
vt 0.516891 0.042556
vt 0.447917 0.000000
vt 0.472168 0.035351
vt 0.448025 0.066861
vt 0.516891 0.042556
vt 0.561632 0.500000
vt 0.553189 0.541667
vt 0.515775 0.550347
vt 0.572199 0.574689
vt 0.572199 0.574689
vt 0.462095 0.500000
vt 0.473327 0.541667
vt 0.447488 0.574942
vt 0.515775 0.550347
vt 0.875000 0.500000
vt 0.875000 0.625000
vt 0.829861 0.629503
vt 0.799769 0.580657
vt 0.875000 0.750000
vt 0.799769 0.680194
vt 0.875000 0.625000
vt 0.750000 0.632523
vt 0.799769 0.580657
vt 0.799769 0.680194
vt 0.572199 0.574689
vt 0.590406 0.625217
vt 0.627701 0.626519
vt 0.572199 0.675384
vt 0.625000 0.125000
vt 0.590223 0.118684
vt 0.573025 0.066861
vt 0.568836 0.167506
vt 0.750000 0.549642
vt 0.750000 0.500000
vt 0.700280 0.580693
vt 0.799769 0.580657
vt 0.750000 0.500000
vt 0.547255 0.247663
vt 0.540569 0.291275
vt 0.500942 0.299999
vt 0.567891 0.324603
vt 0.547255 0.247663
vt 0.500942 0.299999
vt 0.567891 0.324603
vt 0.447718 0.247663
vt 0.460708 0.291275
vt 0.443470 0.324603
vt 0.515432 0.750000
vt 0.553189 0.791667
vt 0.515775 0.800347
vt 0.561632 0.750000
vt 0.515775 0.800347
vt 0.473327 0.791667
vt 0.447729 0.824653
vt 0.515432 0.750000
vt 0.447729 0.824653
vt 0.515775 0.800347
vt 0.750000 0.709364
vt 0.700280 0.680230
vt 0.750000 0.750000
vt 0.799769 0.680194
vt 0.700280 0.680230
vt 0.364390 0.637732
vt 0.290220 0.668403
vt 0.250000 0.750000
vt 0.249759 0.625289
s 0
f 3/1/1 18/2/1 63/3/1 41/4/1
f 1/5/2 30/6/2 63/3/2 18/7/2
f 16/8/3 41/4/3 63/3/3 30/6/3
f 15/9/4 45/10/4 64/11/4 62/12/4
f 9/13/5 44/14/5 64/11/5 45/15/5
f 8/16/6 62/17/6 64/11/6 44/14/6
f 12/18/7 47/19/7 65/20/7 55/21/7
f 8/16/8 28/22/8 65/20/8 47/23/8
f 6/24/9 55/25/9 65/20/9 28/26/9
f 16/8/10 49/27/10 66/28/10 60/29/10
f 6/24/11 29/30/11 66/28/11 49/27/11
f 13/31/12 60/32/12 66/28/12 29/33/12
f 9/34/13 53/35/13 67/36/13 35/37/13
f 14/38/14 34/39/14 67/36/14 53/40/14
f 13/31/15 35/37/15 67/36/15 34/41/15
f 6/24/16 57/42/16 68/43/16 29/44/16
f 9/45/17 35/46/17 68/43/17 57/47/17
f 13/48/18 29/44/18 68/43/18 35/49/18
f 17/50/19 58/51/19 69/52/19 36/53/19
f 11/54/20 33/55/20 69/52/20 58/51/20
f 1/5/21 36/56/21 69/52/21 33/57/21
f 11/54/22 39/58/22 70/59/22 40/60/22
f 10/61/23 27/62/23 70/59/23 39/58/23
f 15/9/24 40/63/24 70/59/24 27/64/24
f 15/9/25 46/65/25 71/66/25 45/67/25
f 2/68/26 19/69/26 71/66/26 46/70/26
f 9/13/27 45/10/27 71/66/27 19/69/27
f 15/9/28 27/71/28 72/72/28 46/73/28
f 10/61/29 20/74/29 72/72/29 27/64/29
f 2/68/30 46/75/30 72/72/30 20/74/30
f 12/18/31 48/76/31 73/77/31 47/78/31
f 7/79/32 26/80/32 73/77/32 48/76/32
f 8/16/33 47/19/33 73/77/33 26/80/33
f 12/18/34 56/81/34 74/82/34 48/76/34
f 11/54/35 25/83/35 74/82/35 56/84/35
f 7/85/36 48/86/36 74/82/36 25/83/36
f 16/8/37 50/87/37 75/88/37 49/89/37
f 5/90/38 24/91/38 75/88/38 50/92/38
f 6/24/39 49/89/39 75/88/39 24/91/39
f 16/8/40 30/93/40 76/94/40 50/95/40
f 1/5/41 23/96/41 76/94/41 30/97/41
f 5/90/42 50/98/42 76/94/42 23/99/42
f 14/38/43 51/100/43 77/101/43 34/102/43
f 4/103/44 22/104/44 77/101/44 51/105/44
f 13/31/45 34/106/45 77/101/45 22/104/45
f 14/38/46 31/107/46 78/108/46 51/109/46
f 3/1/47 21/110/47 78/108/47 31/107/47
f 4/111/48 51/105/48 78/108/48 21/112/48
f 2/113/49 20/114/49 79/115/49 52/116/49
f 10/117/50 38/118/50 79/115/50 20/114/50
f 14/38/51 52/119/51 79/115/51 38/118/51
f 9/34/52 19/120/52 80/121/52 53/122/52
f 2/113/53 52/116/53 80/121/53 19/120/53
f 14/38/54 53/35/54 80/121/54 52/123/54
f 5/90/55 23/124/55 81/125/55 54/126/55
f 1/5/56 37/127/56 81/125/56 23/96/56
f 12/18/57 54/126/57 81/125/57 37/128/57
f 6/24/58 24/129/58 82/130/58 55/131/58
f 5/90/59 54/126/59 82/130/59 24/129/59
f 12/18/60 55/21/60 82/130/60 54/132/60
f 3/133/61 32/134/61 83/135/61 42/136/61
f 10/137/62 43/138/62 83/135/62 32/139/62
f 17/140/63 42/141/63 83/135/63 43/142/63
f 12/18/64 37/143/64 84/144/64 56/81/64
f 1/5/65 33/145/65 84/144/65 37/143/65
f 11/54/66 56/146/66 84/144/66 33/145/66
f 10/117/67 32/147/67 85/148/67 38/118/67
f 3/1/68 31/107/68 85/148/68 32/147/68
f 14/38/69 38/149/69 85/148/69 31/150/69
f 3/133/70 42/141/70 86/151/70 18/152/70
f 17/140/71 36/153/71 86/151/71 42/154/71
f 1/5/72 18/155/72 86/151/72 36/153/72
f 4/111/73 21/156/73 87/157/73 59/158/73
f 3/1/74 41/159/74 87/157/74 21/160/74
f 16/8/75 59/161/75 87/157/75 41/162/75
f 13/31/76 22/163/76 88/164/76 60/165/76
f 4/111/77 59/161/77 88/164/77 22/104/77
f 16/8/78 60/32/78 88/164/78 59/161/78
f 7/166/79 25/83/79 89/167/79 61/168/79
f 11/54/80 40/60/80 89/167/80 25/169/80
f 15/9/81 61/170/81 89/167/81 40/60/81
f 8/16/82 26/80/82 90/171/82 62/172/82
f 7/173/83 61/168/83 90/171/83 26/80/83
f 15/9/84 62/174/84 90/171/84 61/175/84
f 17/50/85 43/142/85 91/176/85 58/177/85
f 10/137/86 39/178/86 91/176/86 43/179/86
f 11/54/87 58/180/87 91/176/87 39/178/87
f 6/24/88 28/181/88 92/182/88 57/47/88
f 8/16/89 44/183/89 92/182/89 28/181/89
f 9/45/90 57/184/90 92/182/90 44/183/90
