# Blender 4.3.2
# www.blender.org
o Cube.002
v -0.238464 -1.052482 0.722252
v -0.703685 1.053874 -1.466554
v 0.105558 0.767829 1.414950
v -0.457940 -0.427792 0.990146
v 0.522285 -0.580874 -1.178958
v 0.135530 0.374896 1.271530
v 0.067791 -0.145369 1.186929
v -0.043881 -0.577838 1.014818
v -0.379701 -0.829590 0.518963
v -0.112957 0.969851 1.031498
v -0.419305 1.107928 -0.546262
v 0.339920 -0.674345 -0.066701
v 0.100791 -0.722868 0.664732
v 0.399792 -0.002384 0.930702
v 0.724823 0.419273 -0.121295
v -0.498052 0.033015 0.652895
v -0.664239 0.453523 -0.039084
v -0.664286 -0.487911 -1.153924
v 0.589981 1.135504 -1.552004
v -0.122219 0.963055 1.538322
v -0.176689 0.529442 1.378325
v -0.385247 -0.072502 -1.664399
v 0.315911 -0.013443 -1.663146
v -0.282946 0.840091 -1.585057
v 0.346401 0.646591 -1.665966
v 0.561544 0.904684 -0.242127
v 0.336928 0.713856 1.060707
v -0.461940 -0.821293 -0.172251
v -0.216122 -0.897329 0.301669
v -0.302282 -1.037055 0.643617
v -0.611743 1.214066 -1.075749
v -0.829612 0.188832 -1.263160
v 0.511795 -0.660302 -0.554022
v -0.377154 -0.845593 0.852953
v 0.758471 0.319286 -1.432493
v 0.134836 0.604501 1.351455
v 0.109217 0.108404 1.222583
v 0.018235 -0.347453 1.129740
v -0.279803 -0.561839 1.023562
v 0.024221 -0.709299 0.901458
v 0.267214 -0.042305 1.129376
v 0.480702 -0.210569 -1.569567
v -0.791814 0.743193 -0.798857
v -0.115466 1.027102 1.464687
v -0.301560 1.034373 0.238552
v 0.824836 0.785267 -0.956921
v -0.449860 0.788580 0.481666
v -0.367662 0.488296 0.867453
v -0.479609 -0.395603 0.565323
v -0.676339 -0.212170 -0.191954
v 0.411392 0.374907 1.004719
v 0.293418 -0.337473 0.798652
v 0.596582 -0.227060 -0.123966
v 0.256086 -0.664646 0.301898
v -0.314541 -0.964857 0.395052
v 0.754592 0.785660 -0.279162
v -0.668940 0.935928 -0.284360
v -0.195064 -0.764765 -1.156120
v -0.137744 1.315331 -1.590546
v -0.018749 0.887988 1.497142
v -0.194460 -0.240804 1.155231
v -0.035820 0.402536 1.337938
v 0.032182 -0.076108 -1.685148
v 0.059317 0.719948 -1.616160
v 0.108655 1.028380 -0.435216
v 0.163384 0.939194 1.133571
v 0.018965 -0.810310 0.145975
v -0.340195 -0.898892 0.117077
v -0.636229 -0.616782 -0.713038
v -0.000756 -0.875520 -0.660537
v 0.656870 1.053011 -0.960259
v -0.412806 0.435635 -1.636914
v 0.355564 0.320359 -1.673033
v -0.588572 -0.343006 -1.471918
v -0.305296 0.116490 1.192953
v -0.071334 -0.880259 0.471688
v -0.151345 0.830891 1.514881
v 0.082521 1.105188 -1.633844
v 0.530413 0.821779 -1.680998
v 0.248121 0.479837 1.230942
v 0.201272 -0.329524 1.019398
v -0.552538 0.238512 0.393675
v -0.496527 -0.161665 0.854535
v -0.532910 -0.275660 0.259283
v -0.449548 -0.717593 0.767697
v 0.559233 0.237971 0.542776
v 0.768627 -0.025766 -0.758108
v 0.438960 -0.183746 0.352194
v 0.046125 1.225577 -1.152432
v 0.577670 0.635161 0.498104
v -0.200903 0.720197 1.320747
v -0.472004 -0.822300 0.218559
v -0.011807 -0.849677 -0.154100
v 0.509741 0.819500 0.447251
v 0.244376 0.966147 0.413405
v -0.692168 0.482219 -1.643963
v 0.045697 -0.500783 -1.522798
v -0.173010 -0.870516 0.885144
v 0.178381 0.778089 1.348033
v -0.227959 -1.024373 0.516015
v -0.111753 -0.989485 0.724515
v -0.523832 1.024590 -1.606889
v -0.756919 1.027998 -0.753287
v 0.170850 -0.476224 0.932831
v -0.493912 -0.475400 0.728321
v -0.384142 -0.910689 0.767213
v 0.277856 0.230920 1.171996
v 0.679604 -0.317859 -0.489417
v 0.073587 -0.804554 0.318665
v 0.809703 0.921085 -0.787356
v -0.133978 -0.852560 0.037355
v -0.289040 -0.847964 -0.833867
v 0.196952 -0.842867 -0.462993
v 0.297544 1.109689 -0.911343
v -0.245507 -0.612021 -1.406944
v -0.086151 -0.900770 0.849368
v -0.270368 -1.036541 0.513169
v 0.254095 0.953884 -1.644889
v 0.214206 0.615867 1.304353
v -0.299293 -0.772301 0.923643
v 0.189774 -0.242741 1.105713
v 0.616415 0.309613 -1.629100
v -0.796550 0.045958 -0.743659
v -0.354547 0.299591 1.079421
v -0.026327 0.330887 -1.657388
v -0.457038 0.550004 0.592541
v -0.527591 -0.151541 0.381409
v -0.561819 -0.467194 0.131178
v 0.535919 0.457813 0.699581
v 0.820769 0.380844 -1.083931
v 0.447641 -0.085699 0.556568
v 0.443080 -0.347779 0.194966
v -0.246469 1.308606 -1.334880
v 0.636461 0.745060 0.226572
v -0.173387 0.925504 1.483315
v -0.505162 0.942145 0.199952
v -0.395879 -0.933888 0.250757
v 0.337150 0.911392 0.696484
v 0.008127 1.015726 0.094652
v -0.618270 0.679880 -1.639998
v -0.116724 0.064437 1.234560
v -0.765226 0.120613 -1.519049
v 0.214253 -0.340134 -1.613111
v 0.035113 0.956728 1.419047
v -0.176464 -0.398988 1.114419
v -0.021690 0.696180 1.448212
v -0.154354 -0.987374 0.573833
v -0.198269 1.213929 -1.637094
vn -0.3813 0.8804 0.2819
vn -0.9434 0.3263 -0.0586
vn -0.9758 0.0903 0.1992
vn 0.8390 -0.4037 0.3648
vn 0.4984 -0.4605 0.7346
vn 0.8146 -0.5171 0.2628
vn -0.9822 -0.1071 0.1544
vn -0.9988 -0.0150 -0.0463
vn -0.9623 -0.2034 -0.1808
vn -0.8989 -0.2893 0.3290
vn -0.9188 -0.3702 -0.1374
vn -0.5481 -0.7055 0.4493
vn 0.3734 -0.1723 0.9115
vn 0.8313 -0.1255 0.5414
vn 0.8175 0.0325 0.5750
vn 0.4333 -0.1819 0.8827
vn 0.9184 -0.3911 -0.0603
vn 0.9640 -0.1638 0.2095
vn 0.8412 -0.4549 0.2924
vn 0.4979 -0.8657 0.0516
vn 0.5942 -0.7920 0.1402
vn 0.3091 -0.9438 -0.1170
vn 0.8439 0.5282 -0.0944
vn 0.5011 0.8276 0.2530
vn 0.9942 -0.0314 0.1031
vn 0.0115 -0.9862 -0.1651
vn 0.3668 -0.9265 0.0839
vn 0.2452 -0.9655 -0.0873
vn 0.1887 -0.9401 -0.2841
vn -0.3722 -0.9262 -0.0599
vn -0.5378 -0.7992 -0.2685
vn 0.4084 -0.9013 -0.1442
vn 0.4644 -0.8629 0.1994
vn -0.0103 -0.9987 0.0507
vn 0.2273 0.9633 0.1426
vn 0.1264 0.9593 0.2527
vn 0.1729 0.9588 0.2255
vn -0.4827 -0.7670 -0.4228
vn -0.1845 -0.4618 -0.8676
vn 0.1811 -0.8507 -0.4935
vn 0.7897 -0.5522 0.2675
vn 0.3118 -0.4653 0.8285
vn 0.2134 -0.7444 0.6327
vn 0.1441 -0.8431 -0.5180
vn 0.0314 -0.9962 -0.0807
vn -0.8816 -0.4632 -0.0911
vn -0.1024 -0.0395 -0.9940
vn 0.0952 0.3080 -0.9466
vn -0.1417 0.0253 -0.9896
vn 0.8882 0.0277 0.4585
vn 0.6063 -0.1366 0.7834
vn 0.5351 -0.2831 0.7959
vn -0.0112 -0.4124 0.9109
vn -0.4233 -0.3558 0.8332
vn -0.1956 -0.6000 0.7757
vn 0.8058 -0.3639 0.4672
vn 0.3582 -0.2912 0.8871
vn 0.4768 -0.5239 0.7058
vn 0.8099 0.0802 -0.5811
vn 0.8315 -0.3181 -0.4554
vn 0.2473 -0.1289 -0.9603
vn 0.0810 -0.0441 -0.9957
vn -0.9716 -0.2367 -0.0052
vn -0.9513 -0.2747 0.1401
vn -0.9827 -0.0011 0.1852
vn -0.9966 0.0808 -0.0154
vn -0.9243 0.3448 0.1636
vn -0.9605 0.1863 0.2067
vn -0.8926 0.0723 0.4450
vn -0.8745 0.0491 0.4826
vn 0.0076 0.0243 -0.9997
vn -0.0436 0.0561 -0.9975
vn -0.0316 0.1249 -0.9917
vn -0.0876 0.0764 -0.9932
vn -0.9443 0.1111 0.3099
vn -0.8676 0.2855 0.4071
vn -0.9478 0.1304 0.2910
vn -0.9765 -0.1939 0.0941
vn -0.9853 -0.0712 0.1556
vn -0.9775 -0.0875 0.1918
vn -0.9384 -0.1285 0.3207
vn -0.9538 -0.0514 0.2960
vn -0.9542 -0.2974 0.0330
vn 0.9741 -0.0199 0.2251
vn 0.9087 0.1656 0.3833
vn 0.9367 -0.1101 0.3324
vn 0.9475 -0.2786 -0.1568
vn 0.9564 0.1304 -0.2613
vn 0.9939 -0.0442 0.1008
vn 0.9344 -0.3286 0.1373
vn 0.9206 -0.3393 0.1933
vn 0.8800 -0.4570 0.1295
vn 0.8629 -0.4527 0.2248
vn 0.9234 -0.2054 0.3243
vn 0.8667 -0.3651 0.3400
vn 0.2272 0.9684 0.1031
vn -0.4258 0.8778 -0.2194
vn 0.0121 0.9684 0.2491
vn 0.9738 0.0227 0.2261
vn 0.6059 0.7776 0.1680
vn 0.8559 0.4043 0.3225
vn -0.9570 -0.0669 0.2824
vn -0.7910 0.2834 0.5423
vn -0.9463 0.3086 -0.0963
vn -0.6646 0.6884 0.2905
vn -0.4439 0.8842 0.1454
vn -0.9406 0.1596 0.2997
vn -0.5697 -0.8120 -0.1272
vn 0.2595 -0.9340 -0.2456
vn -0.7924 -0.5509 0.2620
vn 0.4705 0.8760 0.1062
vn 0.1694 0.9840 0.0559
vn 0.7808 0.5491 0.2983
vn 0.2180 0.9753 0.0367
vn 0.1186 0.9909 0.0634
vn 0.1042 0.9926 0.0621
vn -0.5755 0.2322 -0.7841
vn 0.1266 0.0743 -0.9892
vn 0.0323 0.0424 -0.9986
vn -0.3552 -0.2065 0.9117
vn 0.0191 -0.2053 0.9785
vn 0.1970 -0.2722 0.9418
vn -0.1725 -0.3112 0.9346
vn -0.9132 -0.3101 -0.2644
vn -0.9556 0.0790 -0.2840
vn -0.4495 -0.2360 -0.8615
vn -0.0803 -0.3582 -0.9302
vn 0.1861 -0.2051 -0.9609
vn 0.3779 -0.6696 -0.6394
vn 0.5281 0.5232 0.6689
vn 0.6659 0.2330 0.7087
vn 0.7968 0.5086 0.3264
vn 0.2371 0.9698 -0.0578
vn -0.0153 -0.2612 0.9652
vn -0.3660 -0.2682 0.8911
vn 0.0255 -0.4719 0.8813
vn 0.2271 -0.2337 0.9454
vn -0.0047 -0.3829 0.9238
vn 0.3212 -0.3308 0.8874
vn 0.3760 -0.2542 0.8911
vn 0.4713 -0.8742 -0.1164
vn 0.5694 -0.7332 -0.3718
vn 0.7376 -0.6548 -0.1650
vn -0.4197 0.5959 -0.6847
vn 0.1339 0.3327 -0.9335
vn -0.0265 -0.1319 -0.9909
vt 0.625000 0.186952
vt 0.624623 0.218476
vt 0.593823 0.203912
vt 0.589927 0.176824
vt 0.624246 0.250000
vt 0.557159 0.210826
vt 0.530318 0.161938
vt 0.557159 0.210826
vt 0.498576 0.692648
vt 0.463107 0.728950
vt 0.439251 0.732011
vt 0.447728 0.707245
vt 0.439109 0.791921
vt 0.413343 0.772821
vt 0.376195 0.750310
vt 0.447728 0.707245
vt 0.413343 0.772821
vt 0.453548 0.000000
vt 0.483056 0.037274
vt 0.446997 0.044768
vt 0.420469 0.032115
vt 0.500573 0.071414
vt 0.450781 0.070394
vt 0.377554 0.062945
vt 0.450781 0.070394
vt 0.420469 0.032115
vt 0.402644 0.021045
vt 0.414274 0.000000
vt 0.376277 0.031472
vt 0.420469 0.032115
vt 0.375000 0.000000
vt 0.414274 0.000000
vt 0.498628 0.777464
vt 0.506453 0.724475
vt 0.547474 0.721173
vt 0.533186 0.780389
vt 0.557153 0.682306
vt 0.628168 0.678171
vt 0.587212 0.723987
vt 0.568305 0.781975
vt 0.375368 0.499893
vt 0.463076 0.539087
vt 0.427362 0.555336
vt 0.375054 0.543711
vt 0.522480 0.587354
vt 0.438374 0.590024
vt 0.463076 0.539087
vt 0.374741 0.587528
vt 0.375054 0.543711
vt 0.438374 0.590024
vt 0.376012 0.655080
vt 0.324073 0.654296
vt 0.291834 0.618417
vt 0.292142 0.686010
vt 0.376012 0.655080
vt 0.227576 0.645699
vt 0.291834 0.618417
vt 0.292142 0.686010
vt 0.625140 0.499770
vt 0.625909 0.531409
vt 0.594670 0.546218
vt 0.563901 0.536517
vt 0.626677 0.563048
vt 0.589818 0.573905
vt 0.589818 0.573905
vt 0.124826 0.563048
vt 0.260598 0.573329
vt 0.245020 0.595182
vt 0.191594 0.605133
vt 0.291834 0.618417
vt 0.260598 0.573329
vt 0.291834 0.618417
vt 0.375260 0.500000
vt 0.250319 0.533962
vt 0.208589 0.521356
vt 0.250465 0.500000
vt 0.125247 0.531524
vt 0.125669 0.500000
vt 0.375000 0.543764
vt 0.293075 0.550199
vt 0.250319 0.533962
vt 0.260598 0.573329
vt 0.625370 0.500000
vt 0.750473 0.531654
vt 0.709122 0.542810
vt 0.626023 0.531524
vt 0.875407 0.563048
vt 0.750756 0.568757
vt 0.750473 0.531654
vt 0.626023 0.531524
vt 0.750756 0.568757
vt 0.375000 0.250669
vt 0.426010 0.302712
vt 0.399046 0.356576
vt 0.375184 0.375281
vt 0.454605 0.333425
vt 0.409068 0.396385
vt 0.426010 0.302712
vt 0.375184 0.375281
vt 0.409068 0.396385
vt 0.397371 0.837733
vt 0.375598 0.874672
vt 0.408239 0.879339
vt 0.413343 0.772821
vt 0.375000 0.999035
vt 0.375598 0.874672
vt 0.408239 0.879339
vt 0.191948 0.695881
vt 0.160689 0.689183
vt 0.167217 0.658491
vt 0.125965 0.749999
vt 0.125483 0.718368
vt 0.191948 0.695881
vt 0.125000 0.686737
vt 0.548858 0.349059
vt 0.583641 0.398146
vt 0.565203 0.416069
vt 0.536155 0.390114
vt 0.554277 0.451460
vt 0.583641 0.398146
vt 0.529313 0.424267
vt 0.536155 0.390115
vt 0.554277 0.451460
vt 0.654846 0.720591
vt 0.609438 0.734120
vt 0.587212 0.723987
vt 0.625000 0.749986
vt 0.598504 0.780876
vt 0.568305 0.781975
vt 0.444301 0.879302
vt 0.422081 0.918422
vt 0.408239 0.879339
vt 0.453548 0.999983
vt 0.414274 0.999509
vt 0.444301 0.879302
vt 0.408239 0.879339
vt 0.414274 0.999509
vt 0.506453 0.724474
vt 0.479596 0.734786
vt 0.498628 0.777464
vt 0.470484 0.775162
vt 0.463107 0.728950
vt 0.502380 0.497946
vt 0.495830 0.464138
vt 0.554277 0.451460
vt 0.436305 0.451439
vt 0.456256 0.424206
vt 0.492454 0.426370
vt 0.375000 0.218810
vt 0.474764 0.215655
vt 0.486977 0.247972
vt 0.375000 0.186952
vt 0.454058 0.178858
vt 0.624762 0.067897
vt 0.552313 0.069757
vt 0.533625 0.033988
vt 0.580357 0.030485
vt 0.500573 0.071414
vt 0.508024 0.000000
vt 0.562500 0.000000
vt 0.449938 0.388442
vt 0.492712 0.379440
vt 0.492454 0.426370
vt 0.505452 0.331231
vt 0.548858 0.349059
vt 0.536155 0.390115
vt 0.500573 0.071414
vt 0.552313 0.069757
vt 0.552384 0.103127
vt 0.515610 0.110803
vt 0.577783 0.122634
vt 0.552313 0.069757
vt 0.577783 0.122634
vt 0.450781 0.070394
vt 0.472997 0.102084
vt 0.454170 0.120819
vt 0.500573 0.071414
vt 0.515610 0.110803
vt 0.450781 0.070394
vt 0.454170 0.120819
vt 0.454170 0.120819
vt 0.429988 0.142430
vt 0.376277 0.124948
vt 0.376277 0.124948
vt 0.578553 0.628504
vt 0.553107 0.649328
vt 0.513872 0.647439
vt 0.557153 0.682306
vt 0.513872 0.647439
vt 0.511127 0.524421
vt 0.502380 0.497946
vt 0.463076 0.539087
vt 0.470759 0.669635
vt 0.451171 0.657338
vt 0.447728 0.707245
vt 0.438374 0.590024
vt 0.426091 0.635953
vt 0.376012 0.655080
vt 0.451171 0.657338
vt 0.438374 0.590024
vt 0.376012 0.655080
vt 0.451171 0.657338
vt 0.750185 0.500000
vt 0.791938 0.521016
vt 0.875000 0.500000
vt 0.875204 0.531524
vt 0.750185 0.500000
vt 0.589818 0.573905
vt 0.600312 0.607594
vt 0.643942 0.624001
vt 0.589818 0.573905
vt 0.578553 0.628504
vt 0.593750 0.000000
vt 0.602088 0.022157
vt 0.580357 0.030485
vt 0.625000 0.000000
vt 0.624881 0.033949
vt 0.580357 0.030485
vt 0.624881 0.127424
vt 0.597165 0.143609
vt 0.577783 0.122634
vt 0.589927 0.176824
vt 0.577783 0.122634
vt 0.589928 0.176824
vt 0.160305 0.627202
vt 0.124913 0.624892
vt 0.167217 0.658491
vt 0.750874 0.622887
vt 0.710803 0.642792
vt 0.873748 0.682103
vt 0.740094 0.679816
vt 0.643942 0.624001
vt 0.740094 0.679816
vt 0.791987 0.603539
vt 0.750874 0.622887
vt 0.874578 0.622576
vt 0.750874 0.622887
vt 0.874578 0.622576
vt 0.573648 0.311155
vt 0.534164 0.300386
vt 0.517809 0.285325
vt 0.505452 0.331231
vt 0.573648 0.311155
vt 0.505452 0.331231
vt 0.484472 0.865940
vt 0.520384 0.877644
vt 0.508024 0.999873
vt 0.560000 0.878984
vt 0.562500 0.999763
vt 0.486977 0.247972
vt 0.478287 0.274557
vt 0.517809 0.285326
vt 0.449938 0.388442
vt 0.423396 0.415377
vt 0.436305 0.451439
vt 0.875032 0.750000
vt 0.750016 0.749993
vt 0.752767 0.716554
vt 0.874390 0.716052
vt 0.484472 0.865940
vt 0.464879 0.837087
vt 0.470484 0.775162
vt 0.484472 0.865940
vt 0.470484 0.775162
vt 0.444301 0.879302
vt 0.625000 1.000032
vt 0.593750 0.999897
vt 0.593923 0.878534
vt 0.625000 0.875009
vt 0.560000 0.878984
vt 0.568305 0.781975
vt 0.598504 0.780876
vt 0.244403 0.709831
vt 0.251080 0.750154
vt 0.292142 0.686010
vt 0.251080 0.750154
vt 0.292142 0.686010
vt 0.624693 0.374885
vt 0.596337 0.357953
vt 0.573648 0.311155
vt 0.583641 0.398146
s 0
f 11/1/1 31/2/1 103/3/1 57/4/1
f 2/5/2 43/6/2 103/3/2 31/2/2
f 17/7/3 57/4/3 103/3/3 43/8/3
f 14/9/4 81/10/4 104/11/4 52/12/4
f 8/13/5 40/14/5 104/11/5 81/10/5
f 13/15/6 52/16/6 104/11/6 40/17/6
f 4/18/7 83/19/7 105/20/7 85/21/7
f 16/22/8 49/23/8 105/20/8 83/19/8
f 9/24/9 85/21/9 105/20/9 49/25/9
f 4/18/10 85/26/10 106/27/10 34/28/10
f 9/24/11 30/29/11 106/27/11 85/30/11
f 1/31/12 34/32/12 106/27/12 30/29/12
f 7/33/13 41/34/13 107/35/13 37/36/13
f 41/34/14 14/9/14 51/37/14 107/35/14
f 107/35/15 51/37/15 27/38/15 80/39/15
f 37/36/16 107/35/16 80/39/16 6/40/16
f 5/41/17 87/42/17 108/43/17 33/44/17
f 15/45/18 53/46/18 108/43/18 87/47/18
f 12/48/19 33/49/19 108/43/19 53/50/19
f 12/48/20 54/51/20 109/52/20 67/53/20
f 13/15/21 76/54/21 109/52/21 54/55/21
f 29/56/22 67/57/22 109/52/22 76/58/22
f 19/59/23 71/60/23 110/61/23 46/62/23
f 26/63/24 56/64/24 110/61/24 71/60/24
f 15/45/25 46/62/25 110/61/25 56/65/25
f 28/66/26 93/67/26 111/68/26 68/69/26
f 12/48/27 67/70/27 111/68/27 93/71/27
f 29/56/28 68/69/28 111/68/28 67/72/28
f 5/73/29 70/74/29 112/75/29 58/76/29
f 28/66/30 69/77/30 112/75/30 70/74/30
f 18/78/31 58/76/31 112/75/31 69/77/31
f 5/73/32 33/79/32 113/80/32 70/81/32
f 12/48/33 93/67/33 113/80/33 33/79/33
f 28/66/34 70/81/34 113/80/34 93/82/34
f 19/83/35 89/84/35 114/85/35 71/86/35
f 11/87/36 65/88/36 114/85/36 89/89/36
f 26/63/37 71/90/37 114/85/37 65/91/37
f 18/92/38 74/93/38 115/94/38 58/95/38
f 22/96/39 97/97/39 115/94/39 74/98/39
f 5/41/40 58/99/40 115/94/40 97/100/40
f 13/15/41 40/14/41 116/101/41 101/102/41
f 8/13/42 98/103/42 116/101/42 40/104/42
f 1/105/43 101/106/43 116/101/43 98/107/43
f 29/56/44 100/108/44 117/109/44 55/110/44
f 1/111/45 30/112/45 117/109/45 100/113/45
f 9/114/46 55/110/46 117/109/46 30/112/46
f 24/115/47 78/116/47 118/117/47 64/118/47
f 19/59/48 79/119/48 118/117/48 78/120/48
f 25/121/49 64/122/49 118/117/49 79/123/49
f 27/38/50 99/124/50 119/125/50 80/126/50
f 3/127/51 36/128/51 119/125/51 99/124/51
f 6/129/52 80/39/52 119/125/52 36/128/52
f 8/13/53 39/130/53 120/131/53 98/132/53
f 4/133/54 34/134/54 120/131/54 39/135/54
f 1/105/55 98/136/55 120/131/55 34/137/55
f 14/9/56 41/138/56 121/139/56 81/10/56
f 7/140/57 38/141/57 121/139/57 41/138/57
f 8/13/58 81/142/58 121/139/58 38/141/58
f 19/59/59 35/143/59 122/144/59 79/145/59
f 35/143/60 5/41/60 42/146/60 122/144/60
f 122/144/61 42/146/61 23/147/61 73/148/61
f 79/145/62 122/144/62 73/148/62 25/121/62
f 18/92/63 69/149/63 123/150/63 32/151/63
f 69/149/64 28/152/64 50/153/64 123/150/64
f 123/150/65 50/153/65 17/7/65 43/6/65
f 32/151/66 123/150/66 43/6/66 2/5/66
f 10/154/67 48/155/67 124/156/67 91/157/67
f 48/155/68 16/158/68 83/19/68 124/156/68
f 124/156/69 83/19/69 4/18/69 75/159/69
f 91/157/70 124/156/70 75/159/70 21/160/70
f 23/147/71 63/161/71 125/162/71 73/163/71
f 63/161/72 22/96/72 72/164/72 125/162/72
f 125/162/73 72/164/73 24/165/73 64/166/73
f 73/163/74 125/162/74 64/166/74 25/121/74
f 16/167/75 48/168/75 126/169/75 82/170/75
f 10/154/76 47/171/76 126/169/76 48/172/76
f 17/7/77 82/170/77 126/169/77 47/173/77
f 9/24/78 49/174/78 127/175/78 84/176/78
f 16/177/79 82/178/79 127/175/79 49/179/79
f 17/7/80 84/180/80 127/175/80 82/170/80
f 9/24/81 84/181/81 128/182/81 92/183/81
f 17/7/82 50/153/82 128/182/82 84/180/82
f 28/152/83 92/184/83 128/182/83 50/153/83
f 15/45/84 90/185/84 129/186/84 86/187/84
f 27/38/85 51/188/85 129/186/85 90/185/85
f 14/9/86 86/189/86 129/186/86 51/37/86
f 5/41/87 35/143/87 130/190/87 87/42/87
f 19/59/88 46/62/88 130/190/88 35/191/88
f 15/45/89 87/192/89 130/190/89 46/62/89
f 15/45/90 86/187/90 131/193/90 88/194/90
f 14/9/91 52/195/91 131/193/91 86/189/91
f 13/15/92 88/194/92 131/193/92 52/16/92
f 12/48/93 53/196/93 132/197/93 54/198/93
f 15/45/94 88/199/94 132/197/94 53/200/94
f 13/15/95 54/201/95 132/197/95 88/202/95
f 19/83/96 59/203/96 133/204/96 89/84/96
f 2/205/97 31/206/97 133/204/97 59/207/97
f 11/87/98 89/89/98 133/204/98 31/206/98
f 15/45/99 56/208/99 134/209/99 90/185/99
f 26/63/100 94/210/100 134/209/100 56/211/100
f 27/38/101 90/212/101 134/209/101 94/210/101
f 21/160/102 77/213/102 135/214/102 91/215/102
f 20/216/103 44/217/103 135/214/103 77/213/103
f 10/154/104 91/218/104 135/214/104 44/217/104
f 10/154/105 45/219/105 136/220/105 47/221/105
f 11/1/106 57/222/106 136/220/106 45/219/106
f 17/7/107 47/223/107 136/220/107 57/224/107
f 28/66/108 68/69/108 137/225/108 92/226/108
f 29/56/109 55/110/109 137/225/109 68/69/109
f 9/114/110 92/226/110 137/225/110 55/227/110
f 26/63/111 95/228/111 138/229/111 94/210/111
f 10/230/112 66/231/112 138/229/112 95/228/112
f 27/38/113 94/232/113 138/229/113 66/233/113
f 26/63/114 65/88/114 139/234/114 95/235/114
f 11/87/115 45/236/115 139/234/115 65/88/115
f 10/230/116 95/237/116 139/234/116 45/238/116
f 2/5/117 102/239/117 140/240/117 96/241/117
f 24/165/118 72/242/118 140/240/118 102/243/118
f 22/96/119 96/241/119 140/240/119 72/244/119
f 4/133/120 61/245/120 141/246/120 75/247/120
f 61/245/121 7/33/121 37/36/121 141/246/121
f 141/246/122 37/36/122 6/40/122 62/248/122
f 75/247/123 141/246/123 62/248/123 21/249/123
f 18/92/124 32/250/124 142/251/124 74/93/124
f 2/5/125 96/252/125 142/251/125 32/151/125
f 22/96/126 74/93/126 142/251/126 96/241/126
f 22/96/127 63/253/127 143/254/127 97/97/127
f 23/147/128 42/255/128 143/254/128 63/161/128
f 5/41/129 97/100/129 143/254/129 42/146/129
f 20/256/130 60/257/130 144/258/130 44/259/130
f 60/257/131 3/127/131 99/124/131 144/258/131
f 144/258/132 99/124/132 27/38/132 66/231/132
f 44/259/133 144/258/133 66/231/133 10/230/133
f 7/140/134 61/260/134 145/261/134 38/262/134
f 4/133/135 39/130/135 145/261/135 61/263/135
f 8/13/136 38/264/136 145/261/136 39/265/136
f 20/266/137 77/267/137 146/268/137 60/269/137
f 77/267/138 21/249/138 62/270/138 146/268/138
f 146/268/139 62/270/139 6/271/139 36/272/139
f 60/269/140 146/268/140 36/272/140 3/127/140
f 1/111/141 100/113/141 147/273/141 101/274/141
f 29/56/142 76/275/142 147/273/142 100/113/142
f 13/15/143 101/276/143 147/273/143 76/277/143
f 2/5/144 59/278/144 148/279/144 102/280/144
f 19/59/145 78/281/145 148/279/145 59/278/145
f 24/165/146 102/243/146 148/279/146 78/120/146
