# Blender 4.3.2
# www.blender.org
o Cube.002
v -0.600000 -0.109649 -0.600000
v -0.200000 -0.109649 -0.600000
v 0.200000 -0.109649 -0.600000
v 0.600000 -0.109649 -0.600000
v -0.600000 -0.109649 -0.200000
v -0.425828 -0.015685 -0.425828
v 0.425828 -0.015685 -0.425828
v 0.600000 -0.109649 -0.200000
v -0.600000 -0.109649 0.200000
v -0.425828 -0.015685 0.425828
v 0.425828 -0.015685 0.425828
v 0.600000 -0.109649 0.200000
v -0.600000 -0.109649 0.600000
v -0.200000 -0.109649 0.600000
v 0.200000 -0.109649 0.600000
v 0.600000 -0.109649 0.600000
v 0.600000 0.109649 -0.600000
v 0.200000 0.109649 -0.600000
v -0.200000 0.109649 -0.600000
v -0.600000 0.109649 -0.600000
v 0.600000 0.109649 -0.200000
v 0.425828 0.015685 -0.425828
v -0.425828 0.015685 -0.425828
v -0.600000 0.109649 -0.200000
v 0.600000 0.109649 0.200000
v 0.425828 0.015685 0.425828
v -0.425828 0.015685 0.425828
v -0.600000 0.109649 0.200000
v 0.600000 0.109649 0.600000
v 0.200000 0.109649 0.600000
v -0.200000 0.109649 0.600000
v -0.600000 0.109649 0.600000
v -0.862800 0.109649 0.862801
v -0.869760 0.099649 0.869760
v -0.869760 -0.099649 0.869760
v -0.862800 -0.109649 0.862801
v -0.862800 0.109649 -0.862801
v -0.869760 0.099649 -0.869760
v -0.869760 -0.099649 -0.869760
v -0.862800 -0.109649 -0.862801
v 0.862801 0.109649 0.862801
v 0.869760 0.099649 0.869760
v 0.869760 -0.099649 0.869760
v 0.862801 -0.109649 0.862801
v 0.862801 0.109649 -0.862801
v 0.869760 0.099649 -0.869760
v 0.869760 -0.099649 -0.869760
v 0.862801 -0.109649 -0.862801
v -1.004817 0.099649 -0.602890
v -0.994402 0.109649 -0.602816
v -0.994433 0.109649 -0.200939
v -1.004817 0.099649 -0.200963
v -0.994433 0.109649 0.200939
v -1.004817 0.099649 0.200963
v -0.994402 0.109649 0.602816
v -1.004817 0.099649 0.602890
v -0.994402 -0.109649 0.602816
v -1.004817 -0.099649 0.602890
v -0.994433 -0.109649 0.200939
v -1.004817 -0.099649 0.200963
v -0.994433 -0.109649 -0.200939
v -1.004817 -0.099649 -0.200963
v -0.994402 -0.109649 -0.602816
v -1.004817 -0.099649 -0.602890
v 1.004817 0.099649 0.602890
v 0.994402 0.109649 0.602816
v 0.994433 0.109649 0.200939
v 1.004817 0.099649 0.200963
v 0.994433 0.109649 -0.200939
v 1.004817 0.099649 -0.200963
v 1.004817 0.099649 -0.602890
v 0.994402 0.109649 -0.602816
v 1.004817 -0.099649 -0.602890
v 0.994402 -0.109649 -0.602816
v 1.004817 -0.099649 -0.200963
v 0.994433 -0.109649 -0.200939
v 1.004817 -0.099649 0.200963
v 0.994433 -0.109649 0.200939
v 0.994402 -0.109649 0.602816
v 1.004817 -0.099649 0.602890
v 0.602890 0.099649 -1.004817
v 0.602816 0.109649 -0.994402
v 0.200939 0.109649 -0.994433
v 0.200963 0.099649 -1.004817
v -0.200939 0.109649 -0.994433
v -0.200963 0.099649 -1.004817
v -0.602890 0.099649 -1.004817
v -0.602816 0.109649 -0.994402
v -0.602890 -0.099649 -1.004817
v -0.602816 -0.109649 -0.994402
v -0.200939 -0.109649 -0.994433
v -0.200963 -0.099649 -1.004817
v 0.200939 -0.109649 -0.994433
v 0.200963 -0.099649 -1.004817
v 0.602816 -0.109649 -0.994402
v 0.602890 -0.099649 -1.004817
v -0.602890 0.099649 1.004817
v -0.602816 0.109649 0.994402
v -0.200963 0.099649 1.004817
v -0.200939 0.109649 0.994433
v 0.200963 0.099649 1.004817
v 0.200939 0.109649 0.994433
v 0.602816 0.109649 0.994402
v 0.602890 0.099649 1.004817
v 0.602816 -0.109649 0.994402
v 0.602890 -0.099649 1.004817
v 0.200963 -0.099649 1.004817
v 0.200939 -0.109649 0.994433
v -0.200963 -0.099649 1.004817
v -0.200939 -0.109649 0.994433
v -0.602816 -0.109649 0.994402
v -0.602890 -0.099649 1.004817
v 0.000000 0.015685 -0.227763
v 0.000000 0.005685 -0.215795
v 0.215325 0.005685 0.054214
v 0.225397 0.015685 0.057623
v 0.172677 0.005685 -0.132638
v 0.179998 0.015685 -0.141116
v -0.225397 0.015685 0.057623
v -0.215325 0.005685 0.054214
v -0.179998 0.015685 -0.141116
v -0.172677 0.005685 -0.132638
v 0.095829 0.005685 0.204058
v 0.100644 0.015685 0.214058
v -0.095829 0.005685 0.204058
v -0.100644 0.015685 0.214058
v -0.215325 -0.005685 0.054214
v -0.225397 -0.015685 0.057623
v -0.172677 -0.005685 -0.132638
v -0.179998 -0.015685 -0.141116
v 0.000000 -0.005685 -0.215795
v 0.000000 -0.015685 -0.227763
v -0.095829 -0.005685 0.204058
v -0.100644 -0.015685 0.214058
v 0.225397 -0.015685 0.057623
v 0.215325 -0.005685 0.054214
v 0.179998 -0.015685 -0.141116
v 0.172677 -0.005685 -0.132638
v 0.095829 -0.005685 0.204058
v 0.100644 -0.015685 0.214058
vn -0.0000 1.0000 -0.0000
vn -0.8922 -0.0000 0.4515
vn 0.4515 -0.0000 0.8922
vn -0.0000 -1.0000 -0.0000
vn 1.0000 -0.0000 -0.0000
vn 0.4515 -0.0000 -0.8922
vn -1.0000 -0.0000 -0.0000
vn 0.4748 0.8801 -0.0000
vn -0.0000 0.8801 -0.4748
vn 0.4339 -0.0000 0.9010
vn -0.7818 -0.0000 -0.6235
vn -0.4748 0.8801 -0.0000
vn -0.0000 0.8801 0.4748
vn -0.8922 -0.0000 -0.4515
vn -0.0000 -0.0000 -1.0000
vn -0.4748 -0.8801 -0.0000
vn -0.0000 -0.8801 -0.4748
vn 0.4748 -0.8801 -0.0000
vn -0.0000 -0.8801 0.4748
vn -0.0000 -0.0000 1.0000
vn -0.4339 -0.0000 0.9010
vn 0.8922 -0.0000 0.4515
vn 0.8922 -0.0000 -0.4515
vn -0.4515 -0.0000 -0.8922
vn -0.4515 -0.0000 0.8922
vn 0.9749 -0.0000 0.2225
vn 0.7818 -0.0000 -0.6235
vn -0.9749 -0.0000 0.2225
vn -0.6521 0.6825 -0.3300
vn -0.6521 -0.6825 -0.3300
vn 0.3300 0.6825 -0.6521
vn 0.3300 -0.6825 -0.6521
vn 0.6521 0.6825 0.3300
vn 0.6521 -0.6825 0.3300
vn -0.3300 0.6825 0.6521
vn -0.3300 -0.6825 0.6521
vn 0.3300 0.6825 0.6521
vn -0.3300 -0.6825 -0.6521
vn -0.6931 -0.7208 -0.0000
vn -0.6937 -0.7203 -0.0000
vn 0.6931 0.7208 -0.0000
vn 0.6937 0.7203 -0.0000
vn 0.6521 0.6825 -0.3300
vn 0.6521 -0.6825 -0.3300
vn 0.6931 -0.7208 -0.0000
vn 0.6937 -0.7203 -0.0000
vn -0.6521 0.6825 0.3300
vn -0.6521 -0.6825 0.3300
vn -0.6931 0.7208 -0.0000
vn -0.6937 0.7203 -0.0000
vn -0.2947 0.7337 0.6122
vn 0.2947 0.7337 0.6122
vn 0.7231 0.6707 0.1651
vn -0.7231 0.6707 0.1651
vn -0.5528 0.7071 -0.4409
vn -0.0000 0.7071 -0.7071
vn 0.5528 0.7071 -0.4409
vn -0.0000 0.7208 -0.6931
vn -0.0000 0.7203 -0.6937
vn -0.2947 -0.7337 0.6122
vn 0.2947 -0.7337 0.6122
vn -0.7231 -0.6707 0.1651
vn 0.7231 -0.6707 0.1651
vn 0.5528 -0.7071 -0.4409
vn -0.0000 -0.7071 -0.7071
vn -0.5528 -0.7071 -0.4409
vn -0.0000 -0.7208 -0.6931
vn -0.0000 -0.7203 -0.6937
vn -0.0000 -0.7208 0.6931
vn -0.0000 -0.7203 0.6937
vn -0.0000 0.7208 0.6931
vn -0.0000 0.7203 0.6937
vn 0.3300 -0.6825 0.6521
vn -0.3300 0.6825 -0.6521
vt 0.126290 0.501290
vt 0.175000 0.550000
vt 0.175000 0.501286
vt 0.373710 0.501290
vt 0.325000 0.550000
vt 0.373714 0.550000
vt 0.325000 0.700000
vt 0.325000 0.748714
vt 0.373710 0.748710
vt 0.386400 0.000000
vt 0.386400 0.050000
vt 0.613600 0.050000
vt 0.613600 0.000000
vt 0.386400 0.750000
vt 0.386400 0.800000
vt 0.613600 0.800000
vt 0.613600 0.750000
vt 0.825000 0.700000
vt 0.873710 0.748710
vt 0.873714 0.700000
vt 0.373710 0.748710
vt 0.373714 0.700000
vt 0.386400 0.650000
vt 0.386400 0.700000
vt 0.613600 0.700000
vt 0.613600 0.650000
vt 0.825000 0.550000
vt 0.825000 0.600000
vt 0.873717 0.600000
vt 0.873714 0.550000
vt 0.825000 0.650000
vt 0.873717 0.650000
vt 0.873717 0.600000
vt 0.386400 0.450000
vt 0.386400 0.500000
vt 0.613600 0.500000
vt 0.613600 0.450000
vt 0.386400 0.550000
vt 0.386400 0.600000
vt 0.613600 0.600000
vt 0.613600 0.550000
vt 0.613600 0.650000
vt 0.613600 0.600000
vt 0.325000 0.600000
vt 0.325000 0.650000
vt 0.373717 0.650000
vt 0.373717 0.600000
vt 0.626290 0.501290
vt 0.675000 0.550000
vt 0.675000 0.501286
vt 0.626286 0.550000
vt 0.626283 0.600000
vt 0.675000 0.600000
vt 0.373717 0.600000
vt 0.373714 0.550000
vt 0.373714 0.700000
vt 0.373717 0.650000
vt 0.175000 0.700000
vt 0.126286 0.700000
vt 0.126290 0.748710
vt 0.873714 0.700000
vt 0.873717 0.650000
vt 0.126283 0.650000
vt 0.126286 0.700000
vt 0.175000 0.650000
vt 0.126286 0.550000
vt 0.126283 0.600000
vt 0.175000 0.600000
vt 0.386400 0.100000
vt 0.613600 0.100000
vt 0.613600 0.050000
vt 0.225000 0.650000
vt 0.225000 0.700000
vt 0.275000 0.700000
vt 0.275000 0.650000
vt 0.386400 0.150000
vt 0.613600 0.150000
vt 0.613600 0.100000
vt 0.225000 0.600000
vt 0.000000 0.739704
vt 0.000000 0.760296
vt 0.142857 0.760296
vt 0.142857 0.739704
vt 0.571429 0.760296
vt 0.714286 0.760296
vt 0.714286 0.739704
vt 0.571429 0.739704
vt 0.275000 0.600000
vt 0.126283 0.600000
vt 0.126283 0.650000
vt 0.225000 0.550000
vt 0.275000 0.550000
vt 0.386400 0.200000
vt 0.386400 0.250000
vt 0.613600 0.250000
vt 0.613600 0.200000
vt 0.775000 0.501283
vt 0.775000 0.550000
vt 0.825000 0.501286
vt 0.386400 0.300000
vt 0.386400 0.350000
vt 0.613600 0.350000
vt 0.613600 0.300000
vt 0.386400 0.400000
vt 0.613600 0.400000
vt 0.613600 0.350000
vt 0.613600 0.450000
vt 0.613600 0.400000
vt 0.725000 0.650000
vt 0.675000 0.650000
vt 0.675000 0.700000
vt 0.725000 0.700000
vt 0.775000 0.700000
vt 0.775000 0.650000
vt 0.626283 0.650000
vt 0.626286 0.700000
vt 0.725000 0.600000
vt 0.775000 0.600000
vt 0.739432 0.616715
vt 0.750000 0.611628
vt 0.760567 0.616715
vt 0.626283 0.600000
vt 0.626283 0.650000
vt 0.725000 0.550000
vt 0.613600 0.200000
vt 0.613600 0.150000
vt 0.386400 0.900000
vt 0.386400 0.950000
vt 0.613600 0.950000
vt 0.613600 0.900000
vt 0.725000 0.501283
vt 0.725000 0.501283
vt 0.626290 0.748710
vt 0.675000 0.748714
vt 0.725000 0.748717
vt 0.775000 0.748717
vt 0.775000 0.748717
vt 0.825000 0.748714
vt 0.857143 0.739704
vt 0.857143 0.760296
vt 1.000000 0.760296
vt 1.000000 0.739704
vt 0.825000 0.748714
vt 0.873710 0.748710
vt 0.225000 0.748717
vt 0.275000 0.748717
vt 0.386400 0.850000
vt 0.613600 0.900000
vt 0.613600 0.850000
vt 0.613600 0.850000
vt 0.613600 0.800000
vt 0.626290 0.748710
vt 0.675000 0.748714
vt 0.725000 0.748717
vt 0.275000 0.748717
vt 0.325000 0.748714
vt 0.175000 0.748714
vt 0.225000 0.748717
vt 0.873710 0.501290
vt 0.873714 0.550000
vt 0.225000 0.501283
vt 0.275000 0.501283
vt 0.325000 0.501286
vt 0.613600 0.750000
vt 0.613600 0.700000
vt 0.126286 0.550000
vt 0.613600 0.550000
vt 0.613600 0.500000
vt 0.613600 0.300000
vt 0.613600 0.250000
vt 0.626290 0.501290
vt 0.373710 0.501290
vt 0.386400 1.000000
vt 0.613600 1.000000
vt 0.613600 0.950000
vt 0.260568 0.616715
vt 0.239432 0.616715
vt 0.250000 0.611628
vt 0.263233 0.628383
vt 0.255909 0.637567
vt 0.244091 0.637567
vt 0.236767 0.628383
vt 0.142857 0.739704
vt 0.285714 0.760296
vt 0.285714 0.739704
vt 0.763233 0.628383
vt 0.755909 0.637567
vt 0.744091 0.637567
vt 0.736767 0.628383
vt 0.428571 0.760296
vt 0.571429 0.739704
vt 0.428571 0.739704
vt 0.285714 0.760296
vt 0.428571 0.739704
vt 0.857143 0.760296
vt 0.857143 0.739704
vt 0.714286 0.739704
vt 0.375000 0.200775
vt 0.375000 0.249487
vt 0.875000 0.550000
vt 0.875000 0.500000
vt 0.375000 0.450775
vt 0.375000 0.499487
vt 0.675000 0.500000
vt 0.625000 0.500000
vt 0.375000 0.950775
vt 0.375000 0.999487
vt 0.825000 0.750000
vt 0.875000 0.750000
vt 0.375000 0.750513
vt 0.375000 0.799225
vt 0.825000 0.500000
vt 0.875000 0.600000
vt 0.875000 0.650000
vt 0.875000 0.700000
vt 0.375000 0.000513
vt 0.375000 0.049225
vt 0.375000 0.050009
vt 0.375000 0.100000
vt 0.375000 0.100003
vt 0.375000 0.149997
vt 0.375000 0.150000
vt 0.375000 0.199991
vt 0.250000 0.612331
vt 0.260138 0.617213
vt 0.239862 0.617213
vt 0.237358 0.628183
vt 0.262642 0.628183
vt 0.255626 0.636980
vt 0.244374 0.636980
vt 0.375000 0.300009
vt 0.375000 0.350000
vt 0.375000 0.350003
vt 0.375000 0.399997
vt 0.375000 0.400000
vt 0.375000 0.449991
vt 0.739862 0.617213
vt 0.750000 0.612331
vt 0.760138 0.617213
vt 0.737358 0.628183
vt 0.762641 0.628183
vt 0.755626 0.636980
vt 0.744374 0.636980
vt 0.725000 0.500000
vt 0.775000 0.500000
vt 0.675000 0.750000
vt 0.725000 0.750000
vt 0.775000 0.750000
vt 0.375000 0.900000
vt 0.375000 0.949991
vt 0.375000 0.850003
vt 0.375000 0.899997
vt 0.375000 0.800009
vt 0.375000 0.850000
vt 0.625000 0.750000
vt 0.375000 0.250513
vt 0.375000 0.299225
vt 0.175000 0.748714
s 0
f 37/1/1 20/2/1 88/3/1
f 45/4/1 17/5/1 72/6/1
f 29/7/1 103/8/1 41/9/1
f 34/10/2 56/11/2 58/12/2 35/13/2
f 42/14/3 104/15/3 106/16/3 43/17/3
f 13/18/4 36/19/4 57/20/4
f 29/7/1 41/21/1 66/22/1
f 68/23/5 65/24/5 80/25/5 77/26/5
f 1/27/4 5/28/4 61/29/4 63/30/4
f 5/28/4 9/31/4 59/32/4 61/33/4
f 81/34/6 46/35/6 47/36/6 96/37/6
f 71/38/5 70/39/5 75/40/5 73/41/5
f 70/39/5 68/23/5 77/42/5 75/43/5
f 21/44/1 25/45/1 67/46/1 69/47/1
f 48/48/4 4/49/4 95/50/4
f 74/51/4 76/52/4 8/53/4 4/49/4
f 17/5/1 21/44/1 69/54/1 72/55/1
f 25/45/1 29/7/1 66/56/1 67/57/1
f 32/58/1 55/59/1 33/60/1
f 9/31/4 13/18/4 57/61/4 59/62/4
f 53/63/1 55/64/1 32/58/1 28/65/1
f 50/66/1 51/67/1 24/68/1 20/2/1
f 56/11/7 54/69/7 60/70/7 58/71/7
f 27/72/8 28/65/8 32/58/8
f 27/72/9 31/73/9 30/74/9 26/75/9
f 26/75/9 30/74/9 29/7/9
f 54/69/7 52/76/7 62/77/7 60/78/7
f 24/68/8 28/65/8 27/72/8 23/79/8
f 131/80/10 114/81/10 122/82/10 129/83/10
f 123/84/11 115/85/11 136/86/11 139/87/11
f 22/88/12 26/75/12 25/45/12 21/44/12
f 51/89/1 53/90/1 28/65/1 24/68/1
f 20/2/8 24/68/8 23/79/8
f 19/91/13 23/79/13 22/88/13 18/92/13
f 17/5/13 18/92/13 22/88/13
f 49/93/14 38/94/14 39/95/14 64/96/14
f 91/97/4 2/98/4 1/27/4 90/99/4
f 87/100/15 86/101/15 92/102/15 89/103/15
f 86/101/15 84/104/15 94/105/15 92/106/15
f 84/104/15 81/34/15 96/107/15 94/108/15
f 11/109/16 12/110/16 16/111/16
f 11/109/17 15/112/17 14/113/17 10/114/17
f 10/114/17 14/113/17 13/18/17
f 78/115/4 79/116/4 16/111/4 12/110/4
f 8/53/16 12/110/16 11/109/16 7/117/16
f 6/118/4 7/117/4 137/119/4 132/120/4 130/121/4
f 6/118/18 10/114/18 9/31/18 5/28/18
f 76/122/4 78/123/4 12/110/4 8/53/4
f 4/49/16 8/53/16 7/117/16
f 3/124/19 7/117/19 6/118/19 2/98/19
f 1/27/19 2/98/19 6/118/19
f 52/76/7 49/93/7 64/125/7 62/126/7
f 99/127/20 97/128/20 112/129/20 109/130/20
f 95/50/4 4/49/4 3/124/4 93/131/4
f 93/132/4 3/124/4 2/98/4 91/97/4
f 16/111/4 44/133/4 105/134/4
f 15/112/4 108/135/4 110/136/4 14/113/4
f 14/113/4 110/137/4 111/138/4 13/18/4
f 138/139/21 117/140/21 114/141/21 131/142/21
f 13/18/4 111/143/4 36/144/4
f 31/73/1 100/145/1 102/146/1 30/74/1
f 101/147/20 99/127/20 109/148/20 107/149/20
f 104/15/20 101/147/20 107/150/20 106/151/20
f 16/111/4 79/116/4 44/152/4
f 16/111/4 105/153/4 108/154/4 15/112/4
f 30/74/1 102/155/1 103/156/1 29/7/1
f 32/58/1 98/157/1 100/158/1 31/73/1
f 40/159/4 1/27/4 63/160/4
f 88/3/1 20/2/1 19/91/1 85/161/1
f 85/161/1 19/91/1 18/92/1 83/162/1
f 83/162/1 18/92/1 17/5/1 82/163/1
f 27/72/9 32/58/9 31/73/9
f 26/75/12 29/7/12 25/45/12
f 20/2/13 23/79/13 19/91/13
f 17/5/12 22/88/12 21/44/12
f 65/24/22 42/14/22 43/164/22 80/165/22
f 37/1/1 50/166/1 20/2/1
f 40/159/4 90/99/4 1/27/4
f 46/35/23 71/38/23 73/167/23 47/168/23
f 38/94/24 87/100/24 89/169/24 39/170/24
f 11/109/17 16/111/17 15/112/17
f 10/114/18 13/18/18 9/31/18
f 4/49/19 7/117/19 3/124/19
f 1/27/18 6/118/18 5/28/18
f 48/171/4 74/51/4 4/49/4
f 45/172/1 82/163/1 17/5/1
f 97/128/25 34/173/25 35/174/25 112/175/25
f 118/176/1 22/88/1 23/79/1 121/177/1 113/178/1
f 121/177/1 23/79/1 27/72/1 26/75/1 22/88/1 118/176/1 116/179/1 124/180/1 126/181/1 119/182/1
f 129/183/26 122/82/26 120/184/26 127/185/26
f 137/119/4 7/117/4 11/109/4 10/114/4 6/118/4 130/121/4 128/186/4 134/187/4 140/188/4 135/189/4
f 125/190/15 123/84/15 139/191/15 133/192/15
f 127/185/27 120/193/27 125/190/27 133/194/27
f 115/85/28 117/195/28 138/196/28 136/197/28
f 38/94/29 49/93/29 50/198/29 37/199/29
f 40/159/30 63/160/30 64/200/30 39/201/30
f 46/35/31 81/34/31 82/202/31 45/203/31
f 48/48/32 95/50/32 96/204/32 47/205/32
f 42/14/33 65/24/33 66/22/33 41/21/33
f 44/152/34 79/116/34 80/165/34 43/164/34
f 34/173/35 97/128/35 98/206/35 33/207/35
f 36/144/36 111/143/36 112/208/36 35/209/36
f 41/210/37 103/211/37 104/15/37 42/14/37
f 39/201/38 89/212/38 90/99/38 40/159/38
f 62/213/39 64/200/39 63/30/39 61/29/39
f 60/214/40 62/213/40 61/33/40 59/32/40
f 58/215/39 60/214/39 59/62/39 57/61/39
f 70/39/41 71/38/41 72/55/41 69/54/41
f 68/23/42 70/39/42 69/47/42 67/46/42
f 65/24/41 68/23/41 67/57/41 66/56/41
f 45/4/43 72/6/43 71/38/43 46/35/43
f 47/168/44 73/167/44 74/51/44 48/171/44
f 73/41/45 75/40/45 76/52/45 74/51/45
f 75/43/46 77/42/46 78/123/46 76/122/46
f 77/26/45 80/25/45 79/116/45 78/115/45
f 33/216/47 55/217/47 56/11/47 34/10/47
f 35/209/48 58/215/48 57/20/48 36/19/48
f 54/69/49 56/11/49 55/218/49 53/219/49
f 52/76/50 54/69/50 53/220/50 51/221/50
f 49/93/49 52/76/49 51/222/49 50/223/49
f 114/224/51 117/225/51 118/176/51 113/178/51
f 113/178/52 121/177/52 122/226/52 114/224/52
f 120/227/53 122/226/53 121/177/53 119/182/53
f 116/179/54 118/176/54 117/225/54 115/228/54
f 115/228/55 123/229/55 124/180/55 116/179/55
f 123/229/56 125/230/56 126/181/56 124/180/56
f 119/182/57 126/181/57 125/230/57 120/227/57
f 86/101/58 87/100/58 88/231/58 85/232/58
f 84/104/59 86/101/59 85/233/59 83/234/59
f 81/34/58 84/104/58 83/235/58 82/236/58
f 132/120/60 137/119/60 138/237/60 131/238/60
f 130/121/61 132/120/61 131/238/61 129/239/61
f 136/240/62 138/237/62 137/119/62 135/189/62
f 128/186/63 130/121/63 129/239/63 127/241/63
f 127/241/64 133/242/64 134/187/64 128/186/64
f 133/242/65 139/243/65 140/188/65 134/187/65
f 135/189/66 140/188/66 139/243/66 136/240/66
f 94/244/67 96/204/67 95/50/67 93/131/67
f 92/245/68 94/244/68 93/132/68 91/97/68
f 89/212/67 92/245/67 91/97/67 90/99/67
f 106/246/69 107/247/69 108/154/69 105/153/69
f 107/247/70 109/248/70 110/136/70 108/135/70
f 109/248/69 112/208/69 111/138/69 110/137/69
f 97/128/71 99/127/71 100/249/71 98/250/71
f 99/127/72 101/147/72 102/251/72 100/252/72
f 101/147/71 104/15/71 103/253/71 102/254/71
f 43/255/73 106/246/73 105/134/73 44/133/73
f 37/256/74 88/257/74 87/100/74 38/94/74
f 32/58/1 33/60/1 98/258/1
