# Blender 4.3.2
# www.blender.org
o Cylinder.002
v 0.449607 0.127430 -0.641684
v 0.243780 -0.102536 -0.762893
v 0.920789 0.149153 -0.082406
v 0.460968 0.165471 0.480227
v -0.474649 0.060449 0.824494
v -0.847553 0.083584 -0.104486
v -0.393879 0.170120 -0.552709
v 0.865472 -0.155439 0.015257
v -0.367738 -0.191810 0.598109
v 0.172970 -0.149065 0.878511
v -0.843134 -0.140194 0.153914
v -0.397107 -0.152475 -0.552943
v 0.787660 0.165843 -0.340797
v 1.011596 0.039064 -0.030006
v 0.828126 0.182673 0.153217
v 0.517004 -0.199021 0.531432
v -0.094914 0.145452 0.724724
v -0.669029 0.158448 -0.305273
v -0.035534 0.157244 -0.711025
v -0.081876 0.219143 -0.057426
v -0.711022 0.123717 0.361694
v -0.021921 -0.120753 -0.782198
v -0.315444 -0.225159 0.093647
v 0.525808 -0.154748 -0.516370
v -0.071110 -0.198780 0.773956
v 0.265455 -0.006253 -0.820664
v 0.835468 -0.009514 0.436234
v 0.356643 -0.019689 0.845226
v -0.927118 -0.034354 0.012182
v -0.134470 -0.041924 1.008368
v 0.773106 -0.018174 -0.440107
v -0.768984 -0.040814 0.523919
v -0.769542 -0.016091 -0.440719
v -0.479140 0.036041 -0.757892
v 0.453038 0.212869 -0.177870
v -0.736815 -0.179241 -0.215519
v -0.646544 -0.189409 0.379416
v 0.273417 -0.220368 -0.226447
v -0.443198 -0.083949 0.857625
v 0.050691 0.037925 0.946412
v 0.707699 0.216187 -0.122046
v 0.278020 -0.189218 -0.548280
v -0.852556 -0.088913 -0.268430
v -0.641496 -0.107350 0.639312
v 0.630223 -0.093030 0.652025
v 0.566534 -0.069468 -0.611952
v 0.907674 0.062270 -0.310831
v 0.955017 0.077868 0.228355
v -0.863549 0.024216 0.330622
v -0.699028 0.068969 -0.567057
v -0.413844 0.194764 0.213730
v 0.117262 0.214888 -0.341355
v 0.135017 -0.237049 0.307632
v -0.600308 -0.220429 0.045864
v -0.126523 0.021533 -0.878842
v -0.234123 -0.112601 0.967619
vn 0.2088 0.8809 0.4248
vn -0.0895 0.8367 0.5403
vn 0.3179 -0.1330 0.9388
vn 0.0045 0.9963 0.0857
vn 0.3093 0.9492 -0.0577
vn 0.0453 0.9807 -0.1900
vn 0.1473 -0.9846 -0.0946
vn -0.0527 -0.9874 -0.1490
vn 0.1324 -0.9116 -0.3893
vn -0.9011 0.3121 -0.3009
vn -0.4149 -0.7644 -0.4935
vn -0.6600 -0.7474 -0.0760
vn -0.7179 -0.0522 0.6941
vn -0.5791 -0.7612 0.2921
vn -0.2386 -0.9220 0.3048
vn 0.4673 0.6808 0.5640
vn 0.3825 -0.7043 0.5980
vn 0.5514 -0.7856 0.2807
vn 0.5870 0.2314 -0.7758
vn 0.5336 -0.7656 -0.3593
vn 0.3696 -0.6704 -0.6434
vn 0.5806 0.3506 -0.7348
vn 0.7352 0.6185 -0.2774
vn 0.7096 -0.6250 -0.3254
vn 0.6706 0.7357 0.0949
vn 0.3951 0.7647 0.5090
vn 0.8063 -0.5366 0.2487
vn -0.6187 0.6512 0.4394
vn -0.6665 0.7416 0.0767
vn -0.8789 -0.3957 0.2666
vn -0.7379 0.6241 -0.2567
vn -0.2786 0.8912 -0.3579
vn -0.4772 -0.6857 -0.5496
vn 0.0047 0.9956 0.0939
vn -0.0884 0.9955 -0.0343
vn -0.2709 0.9621 0.0330
vn -0.1508 0.9685 0.1980
vn 0.0904 0.9786 -0.1849
vn -0.0468 0.9941 -0.0975
vn 0.0231 0.9985 0.0504
vn -0.0338 -0.9965 -0.0770
vn 0.1083 -0.9941 -0.0068
vn 0.0607 -0.9871 0.1481
vn -0.0558 -0.9967 0.0587
vn -0.0204 -0.9926 -0.1196
vn -0.0462 -0.9964 0.0711
vn -0.3017 -0.9529 0.0295
vn 0.0926 -0.5181 -0.8503
vn -0.2830 -0.7285 -0.6239
vn -0.1730 0.8351 -0.5223
vn 0.1458 0.7219 -0.6764
vn 0.0498 -0.8238 0.5647
vn -0.4482 0.1107 0.8871
vn -0.2247 -0.9330 0.2812
vt 0.584984 1.000000
vt 0.452028 0.873611
vt 0.501868 0.653125
vt 0.558477 0.523148
vt 0.398795 0.720000
vt 0.472419 0.498611
vt 0.452028 0.873611
vt 0.521226 0.259259
vt 0.558477 0.523148
vt 0.705310 0.877572
vt 0.756375 0.964506
vt 0.752834 1.000000
vt 0.756089 0.805556
vt 0.806529 0.877572
vt 0.920683 1.000000
vt 0.752834 1.000000
vt 0.806529 0.877572
vt 0.738963 0.000000
vt 0.417299 0.000000
vt 0.596423 0.000000
vt 0.846817 0.000000
vt 0.095634 0.000000
vt 0.525153 0.000000
vt 0.954672 0.000000
vt 0.232640 0.740741
vt 0.168444 0.478009
vt 0.203165 0.347222
vt 0.251321 0.500000
vt 0.095634 0.000000
vt 0.212071 0.127315
vt 0.168444 0.478009
vt 0.277110 0.259259
vt 0.333188 0.498611
vt 0.357124 0.338021
vt 0.402287 0.392130
vt 0.277110 0.259259
vt 0.320855 0.136574
vt 0.377900 0.129630
vt 0.320855 0.136574
vt 0.610109 0.355903
vt 0.658885 0.502315
vt 0.521226 0.259259
vt 0.576709 0.127315
vt 0.738963 0.000000
vt 0.658885 0.502315
vt 0.835310 0.500000
vt 0.872303 0.333333
vt 0.937678 0.500000
vt 0.835310 0.500000
vt 0.806529 0.877572
vt 0.804288 0.658951
vt 0.835310 0.500000
vt 0.751790 0.576646
vt 0.835310 0.500000
vt 0.751790 0.576646
vt 0.705310 0.877572
vt 0.700521 0.658951
vt 0.751790 0.576646
vt 0.705310 0.877572
vt 0.751790 0.576646
vt 0.658885 0.502315
vt 0.315251 0.848148
vt 0.300966 0.644444
vt 0.333188 0.498611
vt 0.232640 0.740741
vt 0.251321 0.500000
vt 0.315251 0.848148
vt 0.277110 0.259259
vt 0.333188 0.498611
vt 0.232640 0.740741
vt 0.200018 0.873843
vt 0.145246 0.651042
vt 0.087827 1.000000
vt 0.094468 0.548611
vt 0.094468 0.548611
vt 0.336406 1.000000
vt 0.326964 0.960880
vt 0.452028 0.873611
vt 0.200018 0.873843
vt 0.232640 0.740741
vt 0.315251 0.848148
vt 0.920683 1.000000
vt 0.504255 1.000000
vt 0.531165 1.000000
vt 0.087827 1.000000
vt 0.584984 1.000000
vt 0.442208 0.027199
vt 0.304868 0.018519
vt 0.521226 0.259259
vt 0.453955 0.136574
vt 0.377900 0.129630
vt 0.304867 0.018519
vt 0.266981 0.040799
vt 0.212071 0.127315
vt 0.320855 0.136574
vt 0.000000 0.000000
vt 0.047817 0.000000
vt 0.045901 0.504630
vt 0.000000 0.500000
vt 0.043914 1.000000
vt 0.000000 1.000000
vt 0.472419 0.498611
vt 0.446758 0.338021
vt 0.453955 0.136574
vt 0.377900 0.129630
vt 0.453955 0.136574
s 0
f 4/1/1 17/2/1 40/3/1 28/4/1
f 5/5/2 30/6/2 40/3/2 17/7/2
f 10/8/3 28/9/3 40/3/3 30/6/3
f 4/1/4 15/10/4 41/11/4 35/12/4
f 3/13/5 13/14/5 41/11/5 15/10/5
f 1/15/6 35/16/6 41/11/6 13/17/6
f 8/18/7 38/19/7 42/20/7 24/21/7
f 12/22/8 22/23/8 42/20/8 38/19/8
f 2/24/9 24/21/9 42/20/9 22/23/9
f 6/25/10 33/26/10 43/27/10 29/28/10
f 12/29/11 36/30/11 43/27/11 33/31/11
f 11/32/12 29/28/12 43/27/12 36/30/12
f 5/5/13 32/33/13 44/34/13 39/35/13
f 11/36/14 37/37/14 44/34/14 32/33/14
f 9/38/15 39/35/15 44/34/15 37/39/15
f 4/1/16 28/4/16 45/40/16 27/41/16
f 10/42/17 16/43/17 45/40/17 28/4/17
f 8/44/18 27/45/18 45/40/18 16/43/18
f 1/15/19 31/46/19 46/47/19 26/48/19
f 8/44/20 24/21/20 46/47/20 31/49/20
f 2/24/21 26/48/21 46/47/21 24/21/21
f 1/15/22 13/50/22 47/51/22 31/52/22
f 3/13/23 14/53/23 47/51/23 13/17/23
f 8/44/24 31/54/24 47/51/24 14/55/24
f 3/13/25 15/56/25 48/57/25 14/58/25
f 4/1/26 27/45/26 48/57/26 15/59/26
f 8/44/27 14/60/27 48/57/27 27/61/27
f 5/5/28 21/62/28 49/63/28 32/64/28
f 6/65/29 29/66/29 49/63/29 21/67/29
f 11/68/30 32/69/30 49/63/30 29/28/30
f 6/70/31 18/71/31 50/72/31 33/31/31
f 7/73/32 34/74/32 50/72/32 18/71/32
f 12/29/33 33/26/33 50/72/33 34/75/33
f 4/1/34 20/76/34 51/77/34 17/78/34
f 20/76/35 7/73/35 18/79/35 51/77/35
f 51/77/36 18/79/36 6/80/36 21/81/36
f 17/78/37 51/77/37 21/81/37 5/5/37
f 1/82/38 19/83/38 52/84/38 35/16/38
f 7/85/39 20/76/39 52/84/39 19/83/39
f 4/86/40 35/12/40 52/84/40 20/76/40
f 12/29/41 38/19/41 53/87/41 23/88/41
f 38/19/42 8/44/42 16/43/42 53/87/42
f 53/87/43 16/43/43 10/89/43 25/90/43
f 23/88/44 53/87/44 25/90/44 9/91/44
f 12/29/45 23/92/45 54/93/45 36/94/45
f 9/91/46 37/37/46 54/93/46 23/92/46
f 11/32/47 36/30/47 54/93/47 37/95/47
f 2/96/48 22/97/48 55/98/48 26/99/48
f 22/97/49 12/29/49 34/75/49 55/98/49
f 55/98/50 34/75/50 7/73/50 19/100/50
f 26/99/51 55/98/51 19/100/51 1/101/51
f 10/42/52 30/102/52 56/103/52 25/104/52
f 5/5/53 39/35/53 56/103/53 30/102/53
f 9/105/54 25/106/54 56/103/54 39/35/54
