# Blender 4.3.2
# www.blender.org
o Sphere
v 0.000000 0.382683 -0.923880
v 0.000000 0.000000 -1.000000
v 0.000000 -0.382683 -0.923880
v 0.000000 -0.923880 -0.382683
v -0.000000 0.923880 0.382683
v -0.000000 0.707107 0.707107
v -0.000000 0.382683 0.923879
v -0.000000 0.000000 1.000000
v -0.000000 -0.382683 0.923879
v -0.000000 -0.707107 0.707107
v -0.000000 -0.923880 0.382683
v 0.000000 -1.000000 0.000000
v 0.000000 1.000000 0.000000
v -0.146447 0.923880 0.353553
v -0.270598 0.707107 0.653281
v -0.353554 0.382683 0.853553
v -0.382684 0.000000 0.923879
v -0.353554 -0.382683 0.853553
v -0.270598 -0.707107 0.653281
v -0.146447 -0.923880 0.353553
v -0.270598 0.923880 0.270598
v -0.500000 0.707107 0.500000
v -0.653282 0.382683 0.653281
v -0.707107 0.000000 0.707106
v -0.653282 -0.382683 0.653281
v -0.500000 -0.707107 0.500000
v -0.270598 -0.923880 0.270598
v -0.353553 0.923880 0.146446
v -0.653281 0.707107 0.270598
v -0.853553 0.382683 0.353553
v -0.923880 0.000000 0.382683
v -0.853553 -0.382683 0.353553
v -0.653281 -0.707107 0.270598
v -0.353553 -0.923880 0.146446
v -0.382683 0.923880 -0.000000
v -0.707107 0.707107 -0.000000
v -0.923879 0.382683 -0.000000
v -1.000000 0.000000 -0.000001
v -0.923879 -0.382683 -0.000000
v -0.707107 -0.707107 -0.000000
v -0.382683 -0.923880 -0.000000
v -0.353553 0.923880 -0.146447
v -0.653281 0.707107 -0.270598
v -0.853553 0.382683 -0.353554
v -0.923879 0.000000 -0.382684
v -0.853553 -0.382683 -0.353554
v -0.653281 -0.707107 -0.270598
v -0.353553 -0.923880 -0.146447
v -0.270598 0.923880 -0.270598
v -0.500000 0.707107 -0.500000
v -0.653281 0.382683 -0.653282
v -0.707106 0.000000 -0.707107
v -0.653281 -0.382683 -0.653282
v -0.500000 -0.707107 -0.500000
v -0.270598 -0.923880 -0.270598
v -0.146446 0.923880 -0.353554
v -0.270598 0.707107 -0.653281
v -0.353553 0.382683 -0.853553
v -0.382683 0.000000 -0.923880
v -0.353553 -0.382683 -0.853553
v -0.270598 -0.707107 -0.653281
v -0.146446 -0.923880 -0.353554
v 0.000000 0.923880 -0.382683
v 0.000000 0.707107 -0.707107
v 0.000000 -0.707107 -0.707107
v 0.014511 0.353231 -0.850928
v 0.015607 0.000000 -0.921537
v 0.014511 -0.353231 -0.850928
v 0.006394 -0.850901 -0.350539
v 0.006394 0.850901 0.350539
v 0.011324 0.652054 0.650177
v 0.014511 0.353231 0.850928
v 0.015607 0.000000 0.921537
v 0.014511 -0.353231 0.850928
v 0.011324 -0.652054 0.650177
v 0.006394 -0.850901 0.350539
v 0.010309 -0.920667 0.000000
v 0.010309 0.920667 0.000000
v -0.134106 0.850667 0.323761
v -0.248591 0.651494 0.600150
v -0.325165 0.352734 0.785018
v -0.352069 0.000000 0.849969
v -0.325165 -0.352734 0.785018
v -0.248591 -0.651494 0.600150
v -0.134106 -0.850667 0.323761
v -0.247796 0.850667 0.247796
v -0.459336 0.651494 0.459335
v -0.600827 0.352734 0.600826
v -0.650539 0.000000 0.650538
v -0.600827 -0.352734 0.600826
v -0.459335 -0.651494 0.459335
v -0.247796 -0.850667 0.247796
v -0.323761 0.850667 0.134106
v -0.600151 0.651494 0.248590
v -0.785018 0.352734 0.325165
v -0.849969 0.000000 0.352068
v -0.785018 -0.352734 0.325165
v -0.600151 -0.651494 0.248590
v -0.323761 -0.850667 0.134106
v -0.350436 0.850667 -0.000000
v -0.649598 0.651494 -0.000000
v -0.849697 0.352734 -0.000000
v -0.920000 0.000000 -0.000000
v -0.849697 -0.352734 -0.000000
v -0.649598 -0.651494 -0.000000
v -0.350436 -0.850667 -0.000000
v -0.323761 0.850667 -0.134106
v -0.600150 0.651494 -0.248591
v -0.785018 0.352734 -0.325165
v -0.849969 0.000000 -0.352069
v -0.785018 -0.352734 -0.325165
v -0.600150 -0.651494 -0.248591
v -0.323761 -0.850667 -0.134106
v -0.247796 0.850667 -0.247796
v -0.459335 0.651494 -0.459335
v -0.600826 0.352734 -0.600827
v -0.650538 0.000000 -0.650539
v -0.600826 -0.352734 -0.600827
v -0.459335 -0.651494 -0.459335
v -0.247796 -0.850667 -0.247796
v -0.134106 0.850667 -0.323761
v -0.248590 0.651494 -0.600151
v -0.325165 0.352734 -0.785018
v -0.352068 0.000000 -0.849969
v -0.325165 -0.352734 -0.785018
v -0.248590 -0.651494 -0.600151
v -0.134106 -0.850667 -0.323761
v 0.006394 0.850901 -0.350539
v 0.011324 0.652054 -0.650177
v 0.011324 -0.652054 -0.650177
vn -0.1915 -0.1915 0.9626
vn -0.1632 0.5481 0.8203
vn -0.0388 0.9800 0.1949
vn -0.0388 -0.9800 0.1949
vn -0.1632 -0.5481 0.8203
vn -0.1915 0.1915 0.9626
vn -0.1098 0.8264 0.5522
vn -0.1098 -0.8264 0.5522
vn -0.1104 -0.9800 0.1653
vn -0.4647 -0.5481 0.6954
vn -0.5453 0.1915 0.8161
vn -0.3128 0.8264 0.4681
vn -0.3128 -0.8264 0.4681
vn -0.5453 -0.1915 0.8161
vn -0.4647 0.5481 0.6954
vn -0.1104 0.9800 0.1653
vn -0.8161 0.1915 0.5453
vn -0.4681 0.8264 0.3128
vn -0.4681 -0.8264 0.3128
vn -0.8161 -0.1915 0.5453
vn -0.6954 0.5481 0.4647
vn -0.1653 0.9800 0.1104
vn -0.1653 -0.9800 0.1104
vn -0.6954 -0.5481 0.4647
vn -0.5522 -0.8264 0.1098
vn -0.9626 -0.1915 0.1915
vn -0.8203 0.5481 0.1632
vn -0.1949 0.9800 0.0388
vn -0.1949 -0.9800 0.0388
vn -0.8203 -0.5481 0.1632
vn -0.9626 0.1915 0.1915
vn -0.5522 0.8264 0.1098
vn -0.8203 0.5481 -0.1632
vn -0.1949 0.9800 -0.0388
vn -0.1949 -0.9800 -0.0388
vn -0.8203 -0.5481 -0.1632
vn -0.9626 0.1915 -0.1915
vn -0.5522 0.8264 -0.1098
vn -0.5522 -0.8264 -0.1098
vn -0.9626 -0.1915 -0.1915
vn -0.1653 -0.9800 -0.1104
vn -0.6954 -0.5481 -0.4647
vn -0.8161 0.1915 -0.5453
vn -0.4681 0.8264 -0.3128
vn -0.4681 -0.8264 -0.3128
vn -0.8161 -0.1915 -0.5453
vn -0.6954 0.5481 -0.4647
vn -0.1653 0.9800 -0.1104
vn -0.3128 0.8264 -0.4681
vn -0.3128 -0.8264 -0.4681
vn -0.5453 -0.1915 -0.8161
vn -0.4647 0.5481 -0.6954
vn -0.1104 0.9800 -0.1653
vn -0.1104 -0.9800 -0.1653
vn -0.4647 -0.5481 -0.6954
vn -0.5453 0.1915 -0.8161
vn -0.1098 -0.8264 -0.5522
vn -0.1915 -0.1915 -0.9626
vn -0.1632 0.5481 -0.8203
vn -0.0388 0.9800 -0.1949
vn -0.0388 -0.9800 -0.1949
vn -0.1632 -0.5481 -0.8203
vn -0.1915 0.1915 -0.9626
vn -0.1098 0.8264 -0.5522
vn 0.1874 0.1918 -0.9634
vn 0.1596 -0.5490 -0.8204
vn 0.0387 -0.9801 -0.1946
vn 0.0387 0.9801 -0.1946
vn 0.1596 0.5490 -0.8204
vn 0.1874 -0.1918 -0.9634
vn 0.1074 -0.8274 -0.5513
vn 0.1074 0.8274 -0.5513
vn 0.1091 0.9805 -0.1633
vn 0.4643 0.5490 -0.6949
vn 0.5453 -0.1918 -0.8160
vn 0.3120 -0.8274 -0.4670
vn 0.3120 0.8274 -0.4670
vn 0.5453 0.1918 -0.8160
vn 0.4643 -0.5490 -0.6949
vn 0.1091 -0.9805 -0.1633
vn 0.8160 -0.1918 -0.5453
vn 0.4670 -0.8274 -0.3120
vn 0.4670 0.8274 -0.3120
vn 0.8160 0.1918 -0.5453
vn 0.6949 -0.5490 -0.4643
vn 0.1621 -0.9808 -0.1083
vn 0.1621 0.9808 -0.1083
vn 0.6949 0.5490 -0.4643
vn 0.5508 0.8274 -0.1096
vn 0.9626 0.1918 -0.1915
vn 0.8197 -0.5490 -0.1631
vn 0.1904 -0.9810 -0.0379
vn 0.1904 0.9810 -0.0379
vn 0.8197 0.5490 -0.1631
vn 0.9626 -0.1918 -0.1915
vn 0.5508 -0.8274 -0.1096
vn 0.8197 -0.5490 0.1631
vn 0.1904 -0.9810 0.0379
vn 0.1904 0.9810 0.0379
vn 0.8197 0.5490 0.1631
vn 0.9626 -0.1918 0.1915
vn 0.5508 -0.8274 0.1096
vn 0.5508 0.8274 0.1096
vn 0.9626 0.1918 0.1915
vn 0.1621 0.9808 0.1083
vn 0.6949 0.5490 0.4643
vn 0.8160 -0.1918 0.5453
vn 0.4670 -0.8274 0.3120
vn 0.4670 0.8274 0.3120
vn 0.8160 0.1918 0.5453
vn 0.6949 -0.5490 0.4643
vn 0.1621 -0.9808 0.1083
vn 0.3120 -0.8274 0.4670
vn 0.3120 0.8274 0.4670
vn 0.5452 0.1918 0.8160
vn 0.4643 -0.5490 0.6949
vn 0.1091 -0.9805 0.1633
vn 0.1091 0.9805 0.1633
vn 0.4643 0.5490 0.6949
vn 0.5452 -0.1918 0.8160
vn 0.1074 0.8274 0.5513
vn 0.1874 0.1918 0.9634
vn 0.1596 -0.5490 0.8204
vn 0.0387 -0.9801 0.1946
vn 0.0387 0.9801 0.1946
vn 0.1596 0.5490 0.8204
vn 0.1874 -0.1918 0.9634
vn 0.1074 -0.8274 0.5513
vn 0.9815 0.0389 -0.1877
vn 0.9815 -0.0389 -0.1877
vn 0.9936 0.0977 0.0572
vn 0.9864 0.0951 0.1344
vn 0.9815 0.0389 0.1877
vn 0.9815 -0.0389 0.1877
vn 0.9864 -0.0951 0.1344
vn 0.9936 -0.0977 0.0572
vn 0.9943 -0.1036 0.0259
vn 0.9936 0.0977 -0.0572
vn 0.9943 0.1036 -0.0259
vn 0.9864 0.0951 -0.1344
vn 0.9864 -0.0951 -0.1344
vn 0.9936 -0.0977 -0.0572
vn 0.9943 -0.1036 -0.0259
vn 0.9943 0.1036 0.0259
vt 0.250000 0.375000
vt 0.250000 0.500000
vt 0.187500 0.500000
vt 0.187500 0.375000
vt 0.250000 0.625000
vt 0.250000 0.750000
vt 0.187500 0.750000
vt 0.187500 0.625000
vt 0.250000 0.875000
vt 0.218750 1.000000
vt 0.187500 0.875000
vt 0.218750 0.000000
vt 0.250000 0.125000
vt 0.187500 0.125000
vt 0.250000 0.250000
vt 0.187500 0.250000
vt 0.156250 0.000000
vt 0.125000 0.125000
vt 0.125000 0.375000
vt 0.125000 0.250000
vt 0.125000 0.625000
vt 0.125000 0.500000
vt 0.125000 0.875000
vt 0.125000 0.750000
vt 0.156250 1.000000
vt 0.062500 0.625000
vt 0.062500 0.500000
vt 0.062500 0.875000
vt 0.062500 0.750000
vt 0.062500 0.250000
vt 0.062500 0.125000
vt 0.062500 0.375000
vt 0.093750 1.000000
vt 0.093750 0.000000
vt 0.000000 0.250000
vt 0.000000 0.125000
vt 0.000000 0.500000
vt 0.000000 0.375000
vt 0.000000 0.750000
vt 0.000000 0.625000
vt 0.031250 1.000000
vt 0.000000 0.875000
vt 0.031250 0.000000
vt 1.000000 0.625000
vt 1.000000 0.750000
vt 0.937500 0.750000
vt 0.937500 0.625000
vt 1.000000 0.875000
vt 0.968750 1.000000
vt 0.937500 0.875000
vt 0.968750 0.000000
vt 1.000000 0.125000
vt 0.937500 0.125000
vt 1.000000 0.250000
vt 1.000000 0.375000
vt 0.937500 0.375000
vt 0.937500 0.250000
vt 1.000000 0.500000
vt 0.937500 0.500000
vt 0.906250 0.000000
vt 0.875000 0.125000
vt 0.875000 0.375000
vt 0.875000 0.250000
vt 0.875000 0.625000
vt 0.875000 0.500000
vt 0.875000 0.875000
vt 0.875000 0.750000
vt 0.906250 1.000000
vt 0.812500 0.875000
vt 0.812500 0.750000
vt 0.812500 0.250000
vt 0.812500 0.125000
vt 0.812500 0.500000
vt 0.812500 0.375000
vt 0.812500 0.625000
vt 0.843750 1.000000
vt 0.843750 0.000000
vt 0.750000 0.250000
vt 0.750000 0.125000
vt 0.750000 0.500000
vt 0.750000 0.375000
vt 0.750000 0.750000
vt 0.750000 0.625000
vt 0.781250 1.000000
vt 0.750000 0.875000
vt 0.781250 0.000000
s 0
f 9/1/1 8/2/1 17/3/1 18/4/1
f 7/5/2 6/6/2 15/7/2 16/8/2
f 5/9/3 13/10/3 14/11/3
f 12/12/4 11/13/4 20/14/4
f 10/15/5 9/1/5 18/4/5 19/16/5
f 8/2/6 7/5/6 16/8/6 17/3/6
f 6/6/7 5/9/7 14/11/7 15/7/7
f 11/13/8 10/15/8 19/16/8 20/14/8
f 12/17/9 20/14/9 27/18/9
f 19/16/10 18/4/10 25/19/10 26/20/10
f 17/3/11 16/8/11 23/21/11 24/22/11
f 15/7/12 14/11/12 21/23/12 22/24/12
f 20/14/13 19/16/13 26/20/13 27/18/13
f 18/4/14 17/3/14 24/22/14 25/19/14
f 16/8/15 15/7/15 22/24/15 23/21/15
f 14/11/16 13/25/16 21/23/16
f 24/22/17 23/21/17 30/26/17 31/27/17
f 22/24/18 21/23/18 28/28/18 29/29/18
f 27/18/19 26/20/19 33/30/19 34/31/19
f 25/19/20 24/22/20 31/27/20 32/32/20
f 23/21/21 22/24/21 29/29/21 30/26/21
f 21/23/22 13/33/22 28/28/22
f 12/34/23 27/18/23 34/31/23
f 26/20/24 25/19/24 32/32/24 33/30/24
f 34/31/25 33/30/25 40/35/25 41/36/25
f 32/32/26 31/27/26 38/37/26 39/38/26
f 30/26/27 29/29/27 36/39/27 37/40/27
f 28/28/28 13/41/28 35/42/28
f 12/43/29 34/31/29 41/36/29
f 33/30/30 32/32/30 39/38/30 40/35/30
f 31/27/31 30/26/31 37/40/31 38/37/31
f 29/29/32 28/28/32 35/42/32 36/39/32
f 37/44/33 36/45/33 43/46/33 44/47/33
f 35/48/34 13/49/34 42/50/34
f 12/51/35 41/52/35 48/53/35
f 40/54/36 39/55/36 46/56/36 47/57/36
f 38/58/37 37/44/37 44/47/37 45/59/37
f 36/45/38 35/48/38 42/50/38 43/46/38
f 41/52/39 40/54/39 47/57/39 48/53/39
f 39/55/40 38/58/40 45/59/40 46/56/40
f 12/60/41 48/53/41 55/61/41
f 47/57/42 46/56/42 53/62/42 54/63/42
f 45/59/43 44/47/43 51/64/43 52/65/43
f 43/46/44 42/50/44 49/66/44 50/67/44
f 48/53/45 47/57/45 54/63/45 55/61/45
f 46/56/46 45/59/46 52/65/46 53/62/46
f 44/47/47 43/46/47 50/67/47 51/64/47
f 42/50/48 13/68/48 49/66/48
f 50/67/49 49/66/49 56/69/49 57/70/49
f 55/61/50 54/63/50 61/71/50 62/72/50
f 53/62/51 52/65/51 59/73/51 60/74/51
f 51/64/52 50/67/52 57/70/52 58/75/52
f 49/66/53 13/76/53 56/69/53
f 12/77/54 55/61/54 62/72/54
f 54/63/55 53/62/55 60/74/55 61/71/55
f 52/65/56 51/64/56 58/75/56 59/73/56
f 62/72/57 61/71/57 65/78/57 4/79/57
f 60/74/58 59/73/58 2/80/58 3/81/58
f 58/75/59 57/70/59 64/82/59 1/83/59
f 56/69/60 13/84/60 63/85/60
f 12/86/61 62/72/61 4/79/61
f 61/71/62 60/74/62 3/81/62 65/78/62
f 59/73/63 58/75/63 1/83/63 2/80/63
f 57/70/64 56/69/64 63/85/64 64/82/64
f 74/1/65 83/4/65 82/3/65 73/2/65
f 72/5/66 81/8/66 80/7/66 71/6/66
f 70/9/67 79/11/67 78/10/67
f 77/12/68 85/14/68 76/13/68
f 75/15/69 84/16/69 83/4/69 74/1/69
f 73/2/70 82/3/70 81/8/70 72/5/70
f 71/6/71 80/7/71 79/11/71 70/9/71
f 76/13/72 85/14/72 84/16/72 75/15/72
f 77/17/73 92/18/73 85/14/73
f 84/16/74 91/20/74 90/19/74 83/4/74
f 82/3/75 89/22/75 88/21/75 81/8/75
f 80/7/76 87/24/76 86/23/76 79/11/76
f 85/14/77 92/18/77 91/20/77 84/16/77
f 83/4/78 90/19/78 89/22/78 82/3/78
f 81/8/79 88/21/79 87/24/79 80/7/79
f 79/11/80 86/23/80 78/25/80
f 89/22/81 96/27/81 95/26/81 88/21/81
f 87/24/82 94/29/82 93/28/82 86/23/82
f 92/18/83 99/31/83 98/30/83 91/20/83
f 90/19/84 97/32/84 96/27/84 89/22/84
f 88/21/85 95/26/85 94/29/85 87/24/85
f 86/23/86 93/28/86 78/33/86
f 77/34/87 99/31/87 92/18/87
f 91/20/88 98/30/88 97/32/88 90/19/88
f 99/31/89 106/36/89 105/35/89 98/30/89
f 97/32/90 104/38/90 103/37/90 96/27/90
f 95/26/91 102/40/91 101/39/91 94/29/91
f 93/28/92 100/42/92 78/41/92
f 77/43/93 106/36/93 99/31/93
f 98/30/94 105/35/94 104/38/94 97/32/94
f 96/27/95 103/37/95 102/40/95 95/26/95
f 94/29/96 101/39/96 100/42/96 93/28/96
f 102/44/97 109/47/97 108/46/97 101/45/97
f 100/48/98 107/50/98 78/49/98
f 77/51/99 113/53/99 106/52/99
f 105/54/100 112/57/100 111/56/100 104/55/100
f 103/58/101 110/59/101 109/47/101 102/44/101
f 101/45/102 108/46/102 107/50/102 100/48/102
f 106/52/103 113/53/103 112/57/103 105/54/103
f 104/55/104 111/56/104 110/59/104 103/58/104
f 77/60/105 120/61/105 113/53/105
f 112/57/106 119/63/106 118/62/106 111/56/106
f 110/59/107 117/65/107 116/64/107 109/47/107
f 108/46/108 115/67/108 114/66/108 107/50/108
f 113/53/109 120/61/109 119/63/109 112/57/109
f 111/56/110 118/62/110 117/65/110 110/59/110
f 109/47/111 116/64/111 115/67/111 108/46/111
f 107/50/112 114/66/112 78/68/112
f 115/67/113 122/70/113 121/69/113 114/66/113
f 120/61/114 127/72/114 126/71/114 119/63/114
f 118/62/115 125/74/115 124/73/115 117/65/115
f 116/64/116 123/75/116 122/70/116 115/67/116
f 114/66/117 121/69/117 78/76/117
f 77/77/118 127/72/118 120/61/118
f 119/63/119 126/71/119 125/74/119 118/62/119
f 117/65/120 124/73/120 123/75/120 116/64/120
f 127/72/121 69/79/121 130/78/121 126/71/121
f 125/74/122 68/81/122 67/80/122 124/73/122
f 123/75/123 66/83/123 129/82/123 122/70/123
f 121/69/124 128/85/124 78/84/124
f 77/86/125 69/79/125 127/72/125
f 126/71/126 130/78/126 68/81/126 125/74/126
f 124/73/127 67/80/127 66/83/127 123/75/127
f 122/70/128 129/82/128 128/85/128 121/69/128
f 2/80/129 1/83/129 66/83/129 67/80/129
f 3/81/130 2/80/130 67/80/130 68/81/130
f 5/9/131 6/6/131 71/6/131 70/9/131
f 6/6/132 7/5/132 72/5/132 71/6/132
f 7/5/133 8/2/133 73/2/133 72/5/133
f 8/2/134 9/1/134 74/1/134 73/2/134
f 9/1/135 10/15/135 75/15/135 74/1/135
f 10/15/136 11/13/136 76/13/136 75/15/136
f 11/13/137 12/12/137 77/12/137 76/13/137
f 64/82/138 63/85/138 128/85/138 129/82/138
f 63/85/139 13/84/139 78/84/139 128/85/139
f 1/83/140 64/82/140 129/82/140 66/83/140
f 65/78/141 3/81/141 68/81/141 130/78/141
f 4/79/142 65/78/142 130/78/142 69/79/142
f 12/86/143 4/79/143 69/79/143 77/86/143
f 13/10/144 5/9/144 70/9/144 78/10/144
