# Blender 4.3.2
# www.blender.org
o Cylinder
v 0.008083 0.174761 -0.821283
v 0.296443 0.180499 -0.760940
v 0.537400 0.111871 -0.543905
v 0.775545 0.169585 -0.302862
v 0.839487 0.164590 -0.016649
v 0.788136 0.175641 0.316980
v 0.583279 0.156770 0.585408
v 0.332263 0.159189 0.764505
v 0.021152 0.178898 0.857781
v -0.300505 0.131090 0.765632
v -0.625666 0.174688 0.590919
v -0.799861 0.163081 0.330134
v -0.850414 0.177974 0.009693
v -0.731123 0.136250 -0.291305
v -0.591922 0.167688 -0.574585
v -0.322972 0.160817 -0.769173
v -0.038453 0.411401 0.020084
v 0.141161 0.403977 -0.716444
v 0.469826 0.422025 -0.473530
v 0.716658 0.403934 -0.142384
v 0.649476 0.403669 0.279810
v 0.420766 0.400244 0.614197
v 0.035083 0.412825 0.739916
v -0.285471 0.408877 0.663143
v -0.640482 0.380680 0.390974
v -0.725525 0.403755 0.013511
v -0.646254 0.413160 -0.273304
v -0.502768 0.395504 -0.506745
v -0.268426 0.389793 -0.654677
v 0.313378 -0.272153 0.004948
v 0.017863 -0.257937 0.317739
v -0.300063 -0.224947 0.147437
v -0.050215 -0.351845 -0.148519
v -0.867824 0.322784 0.007181
v -0.328409 0.321340 0.802127
v 0.160750 0.184691 -0.818989
v 0.432322 0.175026 -0.685416
v 0.690632 0.171335 -0.444524
v 0.050470 0.323936 -0.862282
v 0.835151 0.167977 -0.166122
v -0.326265 0.313888 -0.795112
v 0.838415 0.177733 0.151121
v -0.605880 0.320969 -0.604455
v 0.708254 0.179823 0.472953
v -0.778049 0.333149 -0.327733
v 0.459887 0.142551 0.681050
v -0.811001 0.295990 0.362743
v 0.187221 0.180855 0.836401
v -0.143920 0.178854 0.855218
v 0.032111 0.327173 0.877169
v -0.486631 0.179057 0.706954
v 0.390326 0.310471 0.779939
v -0.739911 0.169475 0.475443
v 0.794710 0.326228 0.331748
v -0.848599 0.174207 0.174673
v 0.864750 0.313840 -0.053267
v -0.830036 0.188291 -0.153536
v 0.572905 0.330004 -0.582118
v -0.691981 0.177447 -0.454263
v 0.280904 0.330890 -0.813253
v -0.475177 0.168710 -0.694329
v -0.159526 0.174662 -0.820584
v 0.073225 0.425853 -0.424937
v 0.291016 0.437403 -0.292757
v 0.330971 0.419608 -0.602118
v 0.599263 0.419757 -0.333521
v 0.425183 0.430123 -0.074513
v 0.404640 0.422580 0.188816
v 0.703869 0.405872 0.090467
v 0.563232 0.405760 0.445687
v 0.248117 0.427368 0.387968
v 0.017420 0.431409 0.488494
v 0.212161 0.411232 0.700404
v -0.199463 0.427776 0.433867
v -0.127591 0.413584 0.738333
v -0.455305 0.399330 0.552529
v -0.402731 0.414669 0.247060
v -0.478469 0.423364 0.021441
v -0.710991 0.393294 0.181124
v -0.428209 0.427903 -0.168250
v -0.707973 0.412526 -0.138118
v -0.334053 0.415348 -0.320495
v -0.586347 0.406288 -0.402965
v -0.178975 0.411951 -0.412457
v -0.407544 0.389294 -0.599817
v -0.089470 0.398209 -0.699470
v -0.011635 -0.060101 -0.574221
v 0.123295 -0.391528 -0.060756
v -0.004086 -0.421258 0.086140
v -0.164896 -0.356725 0.011892
v 0.209135 -0.050907 0.567459
v 0.586688 -0.045412 -0.221163
v 0.602499 -0.040212 0.214363
v 0.442735 -0.072839 0.372047
v 0.016522 -0.014062 0.659904
v -0.146413 -0.077113 0.561719
v -0.479714 -0.013601 0.446158
v -0.420803 -0.067870 -0.402330
v -0.609731 -0.019991 0.253197
v -0.096926 -0.312184 0.212803
v -0.275532 -0.078385 0.496378
v 0.141561 -0.318076 0.186441
v 0.413114 -0.128770 -0.314166
v 0.201806 -0.059014 -0.527931
v 0.583686 0.312815 0.646805
v 0.812364 0.319424 -0.282430
v -0.671432 0.304242 0.569892
v -0.235797 -0.070581 -0.539591
v -0.451305 -0.126595 -0.211755
v -0.522038 -0.083237 -0.113265
v -0.643513 -0.015479 0.034298
v 0.635955 -0.045726 -0.009041
v 0.300823 -0.147676 -0.366899
v 0.591515 0.007006 0.359206
v 0.501656 0.277424 0.738461
v 0.874368 0.286341 -0.176156
v -0.410460 0.022639 0.572247
v -0.608685 0.027516 0.392063
v -0.773992 0.272131 0.488084
v -0.138146 -0.008526 -0.644231
v 0.226304 0.436756 -0.432761
v 0.431811 0.438871 -0.227626
v -0.484037 0.314931 -0.716467
v 0.504359 0.426207 0.066096
v 0.397543 0.425488 0.337551
v 0.156882 0.432297 0.517531
v -0.100839 0.433920 0.550497
v -0.347461 0.421125 0.400892
v -0.524126 0.417080 0.145448
v -0.526973 0.430549 -0.093866
v -0.435769 0.423966 -0.290778
v -0.305145 0.410599 -0.433461
v -0.064654 0.418062 -0.501190
v -0.365856 -0.210156 -0.101020
v -0.063236 -0.400938 0.095708
v -0.164916 -0.170521 0.412806
v 0.059864 -0.422308 0.064344
v 0.267112 -0.249293 -0.240568
v 0.569890 -0.007336 -0.350575
v -0.853354 0.311683 0.188515
v 0.118453 0.003474 -0.635404
v -0.149556 0.326826 0.869301
v 0.698992 0.326580 0.504887
v 0.706707 0.331606 -0.433552
v -0.841418 0.332935 -0.167003
v -0.509893 0.319540 0.692763
v 0.310928 -0.092042 0.451639
v -0.137423 0.322461 -0.841364
v 0.140188 0.026920 0.698080
v 0.174822 0.303783 -0.872516
v -0.703467 0.330594 -0.475923
v 0.218919 0.324947 0.839079
v 0.846080 0.324868 0.135700
v 0.427331 0.336790 -0.712600
v -0.379694 -0.012855 -0.543541
v -0.541631 -0.013787 -0.352985
v -0.679018 0.026974 -0.093924
v -0.702144 0.024651 0.151025
v -0.103085 0.022892 0.707419
v 0.692879 0.008036 0.120230
v 0.683222 0.004652 -0.133461
v 0.330916 -0.018417 -0.531587
vn 0.6559 -0.6858 0.3153
vn 0.4945 -0.7163 0.4923
vn 0.4625 -0.8359 0.2956
vn 0.6745 -0.3608 0.6441
vn 0.3554 0.7701 0.5298
vn 0.3760 -0.3496 0.8581
vn 0.8580 -0.2254 -0.4615
vn 0.5784 0.8080 -0.1125
vn 0.9730 -0.2276 0.0390
vn -0.3124 -0.7417 0.5936
vn -0.4629 -0.7188 0.5187
vn -0.3648 -0.8426 0.3963
vn -0.4588 -0.7325 0.5029
vn -0.6137 -0.7411 0.2723
vn -0.4344 -0.8417 0.3206
vn -0.6418 -0.1939 0.7420
vn -0.4716 0.8346 0.2845
vn -0.9194 -0.2368 0.3141
vn -0.1962 -0.7118 -0.6745
vn 0.0410 -0.7109 -0.7021
vn -0.0484 -0.8251 -0.5629
vn -0.0641 0.9978 0.0184
vn 0.0518 0.9974 -0.0507
vn -0.0455 0.9938 -0.1012
vn -0.0308 0.9982 0.0522
vn 0.1113 0.9932 0.0351
vn 0.0490 0.9969 -0.0607
vn -0.1876 0.8876 -0.4208
vn -0.4417 -0.1597 -0.8828
vn -0.6879 -0.1747 -0.7044
vn -0.2955 0.8827 -0.3655
vn -0.0295 0.9992 0.0263
vn 0.0737 0.9958 0.0550
vn 0.0933 0.9956 -0.0113
vn -0.0094 0.9995 -0.0314
vn 0.0524 0.9949 0.0864
vn 0.0887 0.9960 0.0105
vn -0.0007 0.9991 -0.0417
vn 0.0052 0.9959 0.0900
vn 0.0977 0.9932 0.0625
vn -0.0059 0.9991 -0.0431
vn -0.0931 0.9933 0.0683
vn 0.0307 0.9956 0.0888
vn -0.0235 0.9987 -0.0445
vn -0.1376 0.9902 0.0260
vn -0.0802 0.9946 0.0654
vn 0.0199 0.9993 0.0318
vn -0.0964 0.9942 0.0468
vn -0.0909 0.9904 0.1038
vn 0.0316 0.9990 0.0323
vn -0.0608 0.9966 -0.0561
vn -0.0959 0.9929 0.0705
vn 0.0646 0.9970 -0.0423
vn 0.0079 0.9911 -0.1331
vn -0.0557 0.9970 -0.0543
vn 0.0155 0.9998 -0.0109
vn -0.0193 0.9951 -0.0968
vn -0.0461 0.9957 -0.0807
vn -0.0543 0.9984 0.0155
vn -0.0227 0.9960 -0.0869
vn -0.0826 0.9939 -0.0734
vn -0.4276 -0.8448 -0.3217
vn -0.6299 -0.7672 0.1211
vn -0.6451 -0.7527 -0.1319
vn -0.2823 -0.9375 -0.2035
vn -0.1587 -0.8027 0.5749
vn -0.5094 -0.7875 0.3469
vn -0.2762 -0.7804 0.5610
vn -0.4399 -0.8090 0.3899
vn -0.1147 -0.8313 0.5438
vn -0.0891 -0.9584 -0.2712
vn 0.5339 -0.8205 0.2044
vn 0.1900 -0.8090 0.5563
vn 0.0890 -0.8036 -0.5885
vn 0.3821 -0.7451 -0.5466
vn 0.5685 -0.8024 -0.1818
vn 0.5081 -0.6924 -0.5123
vn 0.6568 -0.6705 -0.3450
vn 0.5205 -0.8207 -0.2358
vn -0.4935 0.8646 0.0944
vn -0.9959 -0.0799 0.0434
vn -0.9611 -0.1007 0.2573
vn -0.4701 0.8593 0.2015
vn 0.1248 -0.8215 -0.5563
vn 0.0437 -0.7216 -0.6909
vn 0.2648 -0.7206 -0.6407
vn -0.0138 0.8417 0.5398
vn -0.2317 0.8417 0.4877
vn -0.3941 -0.1740 0.9024
vn -0.0298 -0.1117 0.9933
vn 0.4098 0.8868 0.2136
vn 0.3681 0.8577 0.3589
vn 0.7278 -0.1825 0.6611
vn 0.8800 -0.0659 0.4704
vn 0.3850 0.8543 -0.3492
vn 0.4590 0.8584 -0.2289
vn 0.8330 -0.0868 -0.5464
vn 0.6642 -0.1434 -0.7336
vn -0.5015 0.8650 -0.0174
vn -0.4609 0.8664 -0.1923
vn -0.8734 -0.2131 -0.4379
vn -0.9841 -0.1058 -0.1429
vn -0.2884 0.8624 0.4161
vn -0.3575 0.8731 0.3316
vn -0.6190 -0.0561 0.7834
vn -0.4255 -0.1263 0.8961
vn 0.2184 -0.8168 0.5340
vn 0.4630 -0.8212 0.3336
vn 0.4394 -0.7482 0.4971
vn 0.3157 -0.7503 0.5809
vn -0.1465 0.8933 -0.4250
vn -0.0565 0.8891 -0.4542
vn -0.0587 -0.1911 -0.9798
vn -0.2569 -0.1326 -0.9573
vn 0.1184 -0.8127 0.5706
vn 0.2727 -0.7177 0.6407
vn 0.0624 -0.6994 0.7120
vn 0.4375 -0.3267 -0.8378
vn -0.0391 -0.3248 -0.9450
vn 0.0861 0.8467 -0.5250
vn -0.3362 0.8785 -0.3394
vn -0.7784 -0.1664 -0.6053
vn -0.9093 -0.2112 -0.3586
vn -0.4258 0.8736 -0.2357
vn 0.1206 0.8433 0.5238
vn 0.1653 -0.0982 0.9813
vn 0.3610 -0.1660 0.9177
vn 0.2467 0.8305 0.4995
vn 0.4464 0.8861 0.1244
vn 0.9618 -0.0454 0.2700
vn 0.9931 -0.0995 0.0617
vn 0.5039 0.8637 0.0110
vn 0.3495 0.8612 -0.3691
vn 0.7011 -0.1753 -0.6912
vn 0.5211 -0.1783 -0.8346
vn 0.2127 0.8818 -0.4210
vn -0.3359 -0.8348 -0.4362
vn -0.5302 -0.7044 -0.4720
vn -0.3087 -0.7147 -0.6277
vn -0.6499 -0.7166 -0.2534
vn -0.5497 -0.7031 -0.4511
vn -0.4390 -0.8365 -0.3280
vn -0.5312 -0.8459 -0.0489
vn -0.6896 -0.7181 -0.0942
vn -0.6225 -0.7427 -0.2469
vn -0.5259 -0.8481 0.0637
vn -0.6570 -0.7261 0.2028
vn -0.6957 -0.7168 -0.0478
vn 0.0212 -0.7025 0.7113
vn -0.2134 -0.7354 0.6432
vn -0.0325 -0.8156 0.5777
vn 0.7360 -0.6769 0.0141
vn 0.6926 -0.6791 0.2432
vn 0.5697 -0.8150 0.1054
vn 0.5619 -0.8166 -0.1317
vn 0.6581 -0.6864 -0.3096
vn 0.7231 -0.6903 -0.0222
vn 0.1626 -0.8187 -0.5508
vn 0.2709 -0.7067 -0.6536
vn 0.4202 -0.7184 -0.5544
vt 0.687571 0.999433
vt 0.659247 0.960810
vt 0.671987 0.866952
vt 0.694946 0.808385
vt 0.625000 1.000000
vt 0.663660 0.808668
vt 0.659246 0.960810
vt 0.702320 0.617337
vt 0.694946 0.808385
vt 0.617182 0.998190
vt 0.596497 0.994674
vt 0.596899 0.964529
vt 0.597945 1.000000
vt 0.580223 1.000000
vt 0.617183 0.998190
vt 0.562500 1.000000
vt 0.596899 0.964529
vt 0.812500 0.999724
vt 0.796292 0.999862
vt 0.780182 0.995067
vt 0.782959 0.965669
vt 0.780084 1.000000
vt 0.759263 0.998137
vt 0.750085 0.999321
vt 0.782959 0.965670
vt 0.759263 0.998137
vt 0.437478 1.000177
vt 0.406239 1.000088
vt 0.408188 0.896535
vt 0.421703 0.843194
vt 0.375000 1.000000
vt 0.394348 0.845213
vt 0.406239 1.000088
vt 0.413697 0.690426
vt 0.421703 0.843195
vt 0.394348 0.845213
vt 0.375000 1.000000
vt 0.344203 0.965677
vt 0.346787 0.883488
vt 0.363807 0.832448
vt 0.312500 0.999511
vt 0.332557 0.832203
vt 0.344203 0.965677
vt 0.352614 0.664896
vt 0.363807 0.832448
vt 0.357924 1.000000
vt 0.341939 0.995204
vt 0.340849 1.000000
vt 0.321047 0.998309
vt 0.357924 1.000000
vt 0.344203 0.965677
vt 0.321047 0.998309
vt 0.062500 0.998621
vt 0.031250 0.999311
vt 0.043209 0.886069
vt 0.064813 0.829103
vt 0.000000 1.000000
vt 0.033563 0.829793
vt 0.067127 0.659585
vt 0.245277 0.251250
vt 0.346196 0.346060
vt 0.324457 0.387096
vt 0.277024 0.382336
vt 0.419706 0.419706
vt 0.358932 0.450063
vt 0.346196 0.346060
vt 0.298157 0.480421
vt 0.277024 0.382336
vt 0.382248 0.275715
vt 0.387286 0.323256
vt 0.481206 0.294209
vt 0.450456 0.356957
vt 0.450456 0.356957
vt 0.062500 1.000000
vt 0.062550 0.999597
vt 0.093747 1.000026
vt 0.093750 1.000000
vt 0.062672 0.998621
vt 0.093751 0.999996
vt 0.124829 1.001370
vt 0.124914 1.000685
vt 0.125000 1.000000
vt 0.375986 0.198182
vt 0.405126 0.233835
vt 0.382248 0.275715
vt 0.471731 0.158156
vt 0.476469 0.226182
vt 0.326906 0.139204
vt 0.372356 0.152617
vt 0.375986 0.198182
vt 0.386001 0.057774
vt 0.428866 0.107965
vt 0.326906 0.139204
vt 0.375986 0.198182
vt 0.254184 0.111693
vt 0.297038 0.101596
vt 0.250000 0.010000
vt 0.318001 0.033887
vt 0.254184 0.111693
vt 0.192779 0.123771
vt 0.218423 0.091680
vt 0.158156 0.028269
vt 0.204078 0.019134
vt 0.192779 0.123771
vt 0.204078 0.019134
vt 0.136387 0.176440
vt 0.149908 0.130396
vt 0.192779 0.123771
vt 0.051866 0.122840
vt 0.105011 0.075554
vt 0.105011 0.075554
vt 0.110670 0.246435
vt 0.099501 0.205836
vt 0.136387 0.176440
vt 0.010000 0.250000
vt 0.030933 0.186420
vt 0.136387 0.176440
vt 0.030933 0.186420
vt 0.118974 0.304174
vt 0.090881 0.281232
vt 0.110670 0.246435
vt 0.028269 0.341844
vt 0.019134 0.295922
vt 0.118974 0.304174
vt 0.110670 0.246435
vt 0.149724 0.350170
vt 0.114813 0.340289
vt 0.080294 0.419706
vt 0.054282 0.380775
vt 0.149724 0.350170
vt 0.200523 0.379812
vt 0.160306 0.384981
vt 0.149724 0.350170
vt 0.158156 0.471731
vt 0.119225 0.445718
vt 0.200523 0.379811
vt 0.149724 0.350170
vt 0.235338 0.405458
vt 0.228157 0.476076
vt 0.200523 0.379811
vt 0.228157 0.476076
vt 0.250000 0.500000
vt 0.250000 0.583333
vt 0.230062 0.719693
vt 0.218794 0.749652
vt 0.250000 0.666667
vt 0.225215 0.815370
vt 0.187587 0.999303
vt 0.437500 0.500000
vt 0.437500 0.583333
vt 0.429896 0.621018
vt 0.425598 0.595213
vt 0.437500 0.666667
vt 0.427931 0.693064
vt 0.427931 0.693064
vt 0.421703 0.843194
vt 0.429351 0.787411
vt 0.437489 0.833422
vt 0.427931 0.693064
vt 0.625000 0.500000
vt 0.625000 0.642710
vt 0.616299 0.664999
vt 0.612262 0.601903
vt 0.625000 0.785420
vt 0.610988 0.755170
vt 0.599524 0.703807
vt 0.610988 0.755170
vt 0.875000 0.500000
vt 0.874974 0.750211
vt 0.867460 0.720038
vt 0.864583 0.583333
vt 0.874947 1.000422
vt 0.860319 0.816498
vt 0.854167 0.666667
vt 0.860319 0.816498
vt 0.843724 1.000073
vt 0.846627 0.886613
vt 0.812500 0.999724
vt 0.833333 0.833195
vt 0.250000 1.000000
vt 0.252111 0.998588
vt 0.288263 0.996932
vt 0.295424 1.000000
vt 0.249926 1.000592
vt 0.284913 0.966087
vt 1.000109 0.493947
vt 1.000055 0.746973
vt 0.979617 0.824170
vt 0.968805 0.746791
vt 1.000000 1.000000
vt 0.971631 0.948314
vt 1.000055 0.746973
vt 0.937500 0.999635
vt 0.971631 0.948314
vt 0.500000 1.000000
vt 0.468750 1.000000
vt 0.468737 1.000177
vt 0.502435 1.000212
vt 0.437500 1.000000
vt 0.435116 1.000102
vt 0.468704 1.000365
vt 0.499931 1.000553
vt 0.687500 1.000000
vt 0.642723 1.000000
vt 0.650366 0.996321
vt 0.687880 0.998096
vt 0.875000 1.000000
vt 0.827542 1.000000
vt 0.835642 1.000036
vt 0.874974 1.000211
vt 0.780084 1.000000
vt 0.796309 0.999862
vt 0.812535 0.999724
vt 0.843741 1.000073
vt 0.874947 1.000422
vt 0.218750 1.000000
vt 0.219241 0.996872
vt 0.187500 1.000000
vt 0.187544 0.999652
vt 0.222132 0.965623
vt 0.389174 1.000000
vt 0.397469 1.000046
vt 0.340849 1.000000
vt 0.610988 0.755170
vt 0.603163 0.870042
vt 0.581012 0.851903
vt 0.625000 0.892710
vt 0.031250 1.000000
vt 0.031290 0.999684
vt 0.062550 0.999597
vt 0.031336 0.999311
vt 0.540601 0.664767
vt 0.551551 0.832384
vt 0.534367 0.888440
vt 0.520300 0.832660
vt 0.562500 1.000000
vt 0.531250 1.000276
vt 0.551550 0.832384
vt 0.500000 1.000553
vt 0.971631 0.948314
vt 0.967707 0.992866
vt 0.946661 0.997561
vt 0.983615 1.000000
vt 0.971631 0.948314
vt 0.967229 1.000000
vt 0.156229 1.000169
vt 0.156250 1.000000
vt 0.156208 1.000337
vt 0.187587 0.999304
vt 0.502435 1.000212
vt 0.540341 1.000132
vt 0.548973 1.000000
vt 0.531215 1.000276
vt 0.597945 1.000000
vt 0.687880 0.998096
vt 0.726007 0.996621
vt 0.733792 1.000000
vt 0.721928 0.965577
vt 0.913532 0.995383
vt 0.921115 1.000000
vt 0.911319 0.949011
vt 0.115229 0.666667
vt 0.120115 0.834019
vt 0.100967 0.888886
vt 0.088951 0.832644
vt 0.125000 1.001370
vt 0.093836 0.999996
vt 0.062672 0.998621
vt 0.166813 0.832161
vt 0.187805 0.747557
vt 0.156426 0.748590
vt 0.188024 0.495810
vt 0.187805 0.747557
vt 0.156426 0.748590
vt 0.249963 0.833629
vt 0.230471 0.881929
vt 0.225215 0.815370
vt 0.222132 0.965623
vt 0.299188 0.666667
vt 0.305844 0.833089
vt 0.287750 0.884292
vt 0.274557 0.833629
vt 0.284913 0.966087
vt 0.274557 0.833629
vt 0.468739 1.000365
vt 0.476169 0.889132
vt 0.495514 0.833610
vt 0.437478 1.000177
vt 0.464253 0.833422
vt 0.491028 0.666667
vt 0.495514 0.833610
vt 0.723150 0.883866
vt 0.740232 0.832994
vt 0.708975 0.833050
vt 0.730379 0.666667
vt 0.708975 0.833050
vt 0.800425 0.666667
vt 0.806463 0.833195
vt 0.787919 0.883954
vt 0.775255 0.832994
vt 0.937500 0.499150
vt 0.937500 0.749392
vt 0.917394 0.826112
vt 0.906224 0.749786
vt 0.911319 0.949011
s 0
f 6/1/1 44/2/1 114/3/1 93/4/1
f 7/5/2 94/6/2 114/3/2 44/7/2
f 30/8/3 93/9/3 114/3/3 94/6/3
f 7/5/4 105/10/4 115/11/4 46/12/4
f 22/13/5 52/14/5 115/11/5 105/15/5
f 8/16/6 46/17/6 115/11/6 52/14/6
f 4/18/7 106/19/7 116/20/7 40/21/7
f 20/22/8 56/23/8 116/20/8 106/19/8
f 5/24/9 40/25/9 116/20/9 56/26/9
f 10/27/10 51/28/10 117/29/10 101/30/10
f 11/31/11 97/32/11 117/29/11 51/33/11
f 32/34/12 101/35/12 117/29/12 97/36/12
f 11/37/13 53/38/13 118/39/13 97/40/13
f 12/41/14 99/42/14 118/39/14 53/43/14
f 32/44/15 97/45/15 118/39/15 99/42/15
f 11/37/16 107/46/16 119/47/16 53/43/16
f 25/48/17 47/49/17 119/47/17 107/50/17
f 12/41/18 53/51/18 119/47/18 47/52/18
f 16/53/19 62/54/19 120/55/19 108/56/19
f 1/57/20 87/58/20 120/55/20 62/54/20
f 33/59/21 108/56/21 120/55/21 87/58/21
f 17/60/22 64/61/22 121/62/22 63/63/22
f 19/64/23 65/65/23 121/62/23 64/66/23
f 18/67/24 63/68/24 121/62/24 65/65/24
f 17/60/25 67/69/25 122/70/25 64/61/25
f 20/71/26 66/72/26 122/70/26 67/69/26
f 19/64/27 64/66/27 122/70/27 66/73/27
f 29/74/28 41/75/28 123/76/28 85/77/28
f 41/75/29 16/78/29 61/79/29 123/76/29
f 123/76/30 61/79/30 15/80/30 43/81/30
f 85/77/31 123/76/31 43/81/31 28/82/31
f 17/60/32 68/83/32 124/84/32 67/85/32
f 21/86/33 69/87/33 124/84/33 68/83/33
f 20/71/34 67/69/34 124/84/34 69/87/34
f 17/60/35 71/88/35 125/89/35 68/90/35
f 22/91/36 70/92/36 125/89/36 71/93/36
f 21/86/37 68/94/37 125/89/37 70/92/37
f 17/60/38 72/95/38 126/96/38 71/93/38
f 23/97/39 73/98/39 126/96/39 72/99/39
f 22/91/40 71/88/40 126/96/40 73/98/40
f 17/60/41 74/100/41 127/101/41 72/95/41
f 24/102/42 75/103/42 127/101/42 74/104/42
f 23/97/43 72/95/43 127/101/43 75/105/43
f 17/60/44 77/106/44 128/107/44 74/108/44
f 25/109/45 76/110/45 128/107/45 77/106/45
f 24/102/46 74/104/46 128/107/46 76/111/46
f 17/60/47 78/112/47 129/113/47 77/114/47
f 26/115/48 79/116/48 129/113/48 78/112/48
f 25/109/49 77/117/49 129/113/49 79/118/49
f 17/60/50 80/119/50 130/120/50 78/121/50
f 27/122/51 81/123/51 130/120/51 80/124/51
f 26/115/52 78/125/52 130/120/52 81/123/52
f 17/60/53 82/126/53 131/127/53 80/119/53
f 28/128/54 83/129/54 131/127/54 82/130/54
f 27/122/55 80/124/55 131/127/55 83/129/55
f 17/60/56 84/131/56 132/132/56 82/133/56
f 29/134/57 85/135/57 132/132/57 84/136/57
f 28/128/58 82/137/58 132/132/58 85/135/58
f 17/60/59 63/63/59 133/138/59 84/136/59
f 18/67/60 86/139/60 133/138/60 63/63/60
f 29/134/61 84/140/61 133/138/61 86/141/61
f 33/142/62 90/143/62 134/144/62 109/145/62
f 32/146/63 110/147/63 134/144/63 90/143/63
f 14/148/64 109/145/64 134/144/64 110/147/64
f 33/149/65 89/150/65 135/151/65 90/152/65
f 31/153/66 100/154/66 135/151/66 89/150/66
f 32/34/67 90/152/67 135/151/67 100/155/67
f 10/27/68 101/156/68 136/157/68 96/158/68
f 32/34/69 100/155/69 136/157/69 101/35/69
f 31/153/70 96/158/70 136/157/70 100/159/70
f 33/160/71 88/161/71 137/162/71 89/163/71
f 30/164/72 102/165/72 137/162/72 88/161/72
f 31/166/73 89/163/73 137/162/73 102/167/73
f 33/168/74 113/169/74 138/170/74 88/171/74
f 3/172/75 103/173/75 138/170/75 113/169/75
f 30/174/76 88/171/76 138/170/76 103/175/76
f 3/172/77 38/176/77 139/177/77 103/173/77
f 4/178/78 92/179/78 139/177/78 38/176/78
f 30/174/79 103/173/79 139/177/79 92/179/79
f 26/180/80 34/181/80 140/182/80 79/183/80
f 34/181/81 13/184/81 55/185/81 140/182/81
f 140/182/82 55/185/82 12/41/82 47/49/82
f 79/183/83 140/182/83 47/49/83 25/48/83
f 33/186/84 87/187/84 141/188/84 104/189/84
f 1/190/85 36/191/85 141/188/85 87/192/85
f 2/193/86 104/189/86 141/188/86 36/194/86
f 23/195/87 75/196/87 142/197/87 50/198/87
f 75/196/88 24/199/88 35/200/88 142/197/88
f 142/197/89 35/200/89 10/27/89 49/201/89
f 50/198/90 142/197/90 49/201/90 9/202/90
f 21/203/91 70/204/91 143/205/91 54/206/91
f 70/204/92 22/13/92 105/15/92 143/205/92
f 143/205/93 105/15/93 7/5/93 44/2/93
f 54/206/94 143/205/94 44/2/94 6/1/94
f 19/207/95 66/208/95 144/209/95 58/210/95
f 66/208/96 20/211/96 106/212/96 144/209/96
f 144/209/97 106/212/97 4/213/97 38/214/97
f 58/210/98 144/209/98 38/214/98 3/215/98
f 26/180/99 81/216/99 145/217/99 34/181/99
f 81/216/100 27/218/100 45/219/100 145/217/100
f 145/217/101 45/219/101 14/148/101 57/220/101
f 34/181/102 145/217/102 57/220/102 13/184/102
f 24/199/103 76/221/103 146/222/103 35/200/103
f 76/221/104 25/223/104 107/50/104 146/222/104
f 146/222/105 107/50/105 11/31/105 51/28/105
f 35/200/106 146/222/106 51/28/106 10/27/106
f 31/166/107 102/224/107 147/225/107 91/226/107
f 102/224/108 30/164/108 94/227/108 147/225/108
f 147/225/109 94/227/109 7/5/109 46/17/109
f 91/226/110 147/225/110 46/17/110 8/16/110
f 29/74/111 86/228/111 148/229/111 41/230/111
f 86/228/112 18/57/112 39/57/112 148/229/112
f 148/229/113 39/57/113 1/57/113 62/231/113
f 41/230/114 148/229/114 62/231/114 16/78/114
f 31/232/115 91/233/115 149/234/115 95/235/115
f 8/236/116 48/237/116 149/234/116 91/238/116
f 9/239/117 95/235/117 149/234/117 48/237/117
f 2/193/118 36/240/118 150/241/118 60/242/118
f 1/190/119 39/243/119 150/241/119 36/244/119
f 18/245/120 60/242/120 150/241/120 39/243/120
f 28/82/121 43/81/121 151/246/121 83/247/121
f 43/81/122 15/80/122 59/248/122 151/246/122
f 151/246/123 59/248/123 14/249/123 45/219/123
f 83/247/124 151/246/124 45/219/124 27/218/124
f 23/195/125 50/250/125 152/251/125 73/252/125
f 50/250/126 9/202/126 48/253/126 152/251/126
f 152/251/127 48/253/127 8/236/127 52/14/127
f 73/252/128 152/251/128 52/14/128 22/254/128
f 21/203/129 54/255/129 153/256/129 69/257/129
f 54/255/130 6/1/130 42/258/130 153/256/130
f 153/256/131 42/258/131 5/24/131 56/23/131
f 69/257/132 153/256/132 56/23/132 20/22/132
f 19/207/133 58/210/133 154/259/133 65/260/133
f 58/210/134 3/172/134 37/261/134 154/259/134
f 154/259/135 37/261/135 2/193/135 60/242/135
f 65/260/136 154/259/136 60/242/136 18/245/136
f 33/262/137 98/263/137 155/264/137 108/265/137
f 15/266/138 61/267/138 155/264/138 98/263/138
f 16/268/139 108/265/139 155/264/139 61/267/139
f 14/249/140 59/248/140 156/269/140 109/270/140
f 15/80/141 98/271/141 156/269/141 59/248/141
f 33/272/142 109/273/142 156/269/142 98/274/142
f 32/146/143 111/275/143 157/276/143 110/277/143
f 13/184/144 57/220/144 157/276/144 111/275/144
f 14/148/145 110/277/145 157/276/145 57/278/145
f 32/279/146 99/280/146 158/281/146 111/282/146
f 12/41/147 55/283/147 158/281/147 99/280/147
f 13/184/148 111/284/148 158/281/148 55/185/148
f 9/239/149 49/285/149 159/286/149 95/287/149
f 10/288/150 96/289/150 159/286/150 49/285/150
f 31/290/151 95/291/151 159/286/151 96/289/151
f 5/24/152 42/258/152 160/292/152 112/293/152
f 6/1/153 93/294/153 160/292/153 42/258/153
f 30/295/154 112/293/154 160/292/154 93/296/154
f 30/297/155 92/298/155 161/299/155 112/300/155
f 4/18/156 40/21/156 161/299/156 92/298/156
f 5/24/157 112/300/157 161/299/157 40/25/157
f 33/301/158 104/302/158 162/303/158 113/304/158
f 2/193/159 37/305/159 162/303/159 104/302/159
f 3/172/160 113/304/160 162/303/160 37/261/160
