# Blender 4.3.2
# www.blender.org
o Cube.010
v -4.740228 0.039913 -0.759353
v -2.799187 0.272918 0.809925
v -3.112999 -0.188151 -0.820084
v -4.609772 0.133754 -0.051188
v -2.868744 0.108339 -0.106145
v -3.054162 -0.015653 -0.812104
v -3.049363 -0.166026 0.953998
v -4.457952 -0.038473 1.264841
v -3.004215 0.325455 1.461695
v -3.626870 -0.075643 1.427883
v -3.930288 0.453576 0.840724
v -3.057659 0.691062 1.134750
v -4.323824 0.690255 1.509519
v -4.399778 1.117433 1.146599
v -3.225480 1.114933 1.195398
v -4.349091 1.178364 1.421417
v -3.317648 1.079003 1.473435
v -4.755853 0.215271 0.864433
v -4.566055 -0.048448 -0.808078
v -2.759165 -0.195045 -0.171021
v -4.763671 -0.094390 0.088780
v -2.909095 -0.065162 1.354830
v -4.836771 0.065753 -0.530461
v -3.780006 -0.138315 -0.829080
v -2.876526 -0.141398 -0.887470
v -2.889118 0.196204 0.295579
v -2.756389 0.009031 0.830281
v -4.452609 0.352118 0.848623
v -3.590740 0.164703 -0.049415
v -3.807171 -0.200084 -0.053815
v -4.138035 0.031248 -0.843689
v -3.348735 0.378057 0.755367
v -4.225358 0.252723 0.462699
v -3.357325 -0.190371 1.248779
v -3.352414 0.080102 1.492475
v -2.808939 0.300370 1.210363
v -3.427055 0.645996 1.009169
v -4.438982 1.052329 1.463758
v -4.046909 0.233993 1.503153
v -4.548368 0.314524 1.448326
v -4.646096 0.629154 1.080780
v -2.956043 0.506767 1.032836
v -3.655236 1.166983 1.134032
v -3.943876 1.174515 1.466257
v -4.476785 1.220330 1.316401
v -3.782633 1.236901 1.308443
v -3.092946 1.116062 1.316075
v -3.732978 0.911233 1.550128
v -4.153775 0.794407 1.001171
v -3.047333 0.746940 1.493636
v -3.128025 0.938269 1.173764
v -4.907086 0.012735 -0.792502
v -2.578652 -0.026154 -0.164452
v -5.022260 0.025289 -0.055931
v -2.916864 0.052780 1.437149
v -2.783066 0.082506 1.172633
v -3.171756 -0.132770 1.416764
v -4.901260 0.007361 0.533954
v -2.555798 -0.134508 -0.595927
v -2.644046 0.015005 0.308650
v -4.768625 -0.077917 -0.480268
v -3.801768 0.082757 -0.514466
v -2.813836 0.045006 -0.463876
v -3.758148 -0.183013 1.052826
v -4.084773 -0.075478 1.418292
v -3.613795 0.491063 1.539157
v -4.756063 0.131496 1.120985
v -4.647343 0.909138 1.321828
v -2.892508 0.584879 1.292662
v -2.905696 -0.130325 1.197598
v -4.546008 -0.123116 0.712414
v -4.806018 0.141053 0.453472
v -2.949832 -0.228728 -0.622200
v -2.998018 -0.180960 0.446618
v -3.911411 -0.028664 -0.933388
v -2.629417 0.065813 0.144999
v -4.297322 0.142629 1.492659
v -4.547880 0.226780 0.603527
v -2.555609 -0.048256 -0.439402
v -3.691967 0.261930 1.513896
v -4.043350 1.060965 1.519027
v -3.216358 0.505160 0.948139
v -3.426312 0.715929 1.553313
v -2.803123 0.143137 1.289685
v -3.125343 -0.031792 1.480568
v -4.954031 0.052321 0.304782
v -4.268775 0.064186 -0.653157
v -3.534816 0.256995 0.377508
v -3.368066 0.104624 -0.371467
v -3.778055 -0.197460 0.543772
v -4.698536 0.510473 1.276677
v -3.736131 -0.178497 1.275978
v -3.859262 -0.180019 -0.534232
v -3.116135 -0.182061 1.293564
v -4.629564 1.102909 1.359063
v -4.455825 0.601024 0.982653
v -2.852947 0.460470 1.177749
v -3.606443 0.922656 1.061560
v -4.082891 1.244857 1.362568
v -3.473180 1.228435 1.247371
v -2.919684 0.857138 1.338238
v -5.100055 0.012979 -0.482872
v -2.785369 -0.009656 1.082844
v -4.814290 -0.030286 0.821070
v -2.611759 -0.192131 -0.734111
v -2.719588 -0.055861 0.509161
v -3.484245 -0.100183 -0.936088
v -4.369600 0.011335 -0.913016
vn 0.3651 0.9106 -0.1937
vn 0.5951 0.7979 -0.0966
vn 0.7922 -0.5887 0.1607
vn 0.0068 -0.2652 0.9642
vn -0.1143 -0.0361 0.9928
vn -0.4137 -0.5478 0.7272
vn -0.1856 0.9751 -0.1210
vn -0.3162 0.9249 -0.2112
vn -0.2000 0.9139 -0.3532
vn 0.3658 0.8323 -0.4165
vn 0.3783 0.9224 -0.0779
vn 0.7338 -0.6487 0.2018
vn 0.0812 -0.0614 0.9948
vn -0.0474 -0.0598 0.9971
vn -0.0415 -0.2542 0.9663
vn -0.1099 0.0577 0.9923
vn 0.0506 0.3397 0.9392
vn -0.1138 0.4430 0.8893
vn 0.0575 0.6954 -0.7163
vn 0.2147 0.5946 -0.7749
vn 0.2044 0.7450 -0.6349
vn 0.1236 -0.0980 0.9875
vn 0.1231 0.1780 0.9763
vn -0.0476 -0.0396 0.9981
vn 0.9930 0.1113 0.0383
vn 0.7477 0.2409 0.6188
vn 0.8612 -0.3129 0.4005
vn 0.1266 0.0095 0.9919
vn -0.0635 -0.3818 0.9221
vn 0.3492 -0.5621 0.7498
vn -0.7819 0.6158 0.0976
vn -0.3103 0.9470 -0.0835
vn -0.5448 -0.8341 0.0864
vn 0.0391 0.9803 -0.1934
vn -0.0176 0.9888 -0.1481
vn -0.0144 0.9923 -0.1228
vn 0.1274 0.9593 -0.2521
vn 0.0617 0.9748 -0.2146
vn -0.0302 0.9782 -0.2055
vn -0.0009 0.9203 -0.3913
vn 0.0489 0.9719 -0.2304
vn -0.0194 0.9861 -0.1650
vn 0.0721 0.9861 -0.1496
vn -0.1202 -0.9873 0.1044
vn -0.1039 -0.9946 -0.0003
vn 0.0137 -0.9998 0.0161
vn 0.0264 -0.9992 0.0297
vn -0.5546 0.0838 0.8279
vn -0.8550 0.3362 -0.3949
vn -0.9766 0.2144 -0.0177
vn -0.7068 -0.3233 0.6292
vn 0.0003 -0.9993 -0.0381
vn -0.0001 -0.8280 0.5607
vn -0.1909 -0.9747 0.1162
vn -0.1136 -0.9931 -0.0284
vn -0.1182 -0.9791 -0.1654
vn -0.0693 -0.9858 -0.1528
vn -0.0202 -0.9996 0.0199
vn 0.1294 -0.9914 -0.0214
vn 0.3505 -0.8390 0.4162
vn -0.0834 -0.9108 0.4044
vn -0.5237 -0.0787 0.8483
vn -0.3225 0.5821 0.7464
vn -0.6491 0.3439 -0.6785
vn -0.1320 0.4017 -0.9062
vn -0.2966 0.4832 -0.8238
vn -0.2543 0.3176 -0.9135
vn 0.8561 0.1051 0.5060
vn 0.8567 0.4993 -0.1294
vn 0.7312 0.5831 -0.3541
vn -0.0138 0.3522 -0.9358
vn 0.1911 0.2769 -0.9417
vn 0.2410 0.2772 -0.9301
vn 0.0867 0.3747 -0.9231
vn -0.0264 0.8775 -0.4789
vn -0.0845 0.8284 0.5538
vn 0.1215 0.8744 0.4698
vn 0.2501 0.7973 -0.5494
vn -0.0642 0.9092 -0.4114
vn 0.1470 0.8687 0.4731
vn 0.4947 0.4256 0.7577
vn 0.7973 0.0134 0.6034
vn 0.7006 0.2409 -0.6717
vn 0.6418 0.3981 -0.6555
vn -0.1855 0.9716 -0.1468
vn -0.2203 -0.9586 -0.1806
vn -0.3414 -0.9396 0.0244
vn -0.2326 0.9726 -0.0080
vn 0.5417 -0.8350 -0.0966
vn 0.9932 0.1021 0.0555
vn 0.8432 -0.4517 0.2914
vn -0.4153 -0.8524 0.3177
vn -0.9611 0.1940 0.1967
vn -0.3688 -0.9278 0.0557
vn 0.0441 -0.9525 -0.3014
vn 0.3979 0.7957 -0.4566
vn 0.2288 -0.9719 0.0549
vn 0.5212 -0.8416 0.1419
vn 0.9766 0.0436 0.2108
vn 0.4721 -0.8713 0.1342
vn -0.0369 -0.8496 -0.5262
vn -0.1128 -0.7524 -0.6489
vn 0.1021 0.6207 -0.7774
vn -0.1238 -0.7446 -0.6559
vn -0.0417 0.9594 -0.2789
vn 0.0533 0.8874 -0.4579
vt 0.612044 0.627315
vt 0.618316 0.679998
vt 0.541322 0.665481
vt 0.516429 0.625289
vt 0.585995 0.735119
vt 0.496535 0.686219
vt 0.399478 0.625000
vt 0.516430 0.625289
vt 0.392168 0.875000
vt 0.508581 0.924711
vt 0.476083 0.956546
vt 0.401523 0.937500
vt 0.625000 0.999840
vt 0.517939 0.999920
vt 0.410877 1.000000
vt 0.874770 0.625000
vt 0.874885 0.687500
vt 0.832066 0.707083
vt 0.792188 0.692269
vt 0.875000 0.750000
vt 0.824809 0.736395
vt 0.755754 0.736667
vt 0.792188 0.692269
vt 0.522838 0.500000
vt 0.583490 0.575521
vt 0.513664 0.585124
vt 0.462390 0.562645
vt 0.612044 0.627315
vt 0.516429 0.625289
vt 0.583490 0.575521
vt 0.462390 0.562645
vt 0.611189 0.750000
vt 0.595771 0.862493
vt 0.539839 0.873253
vt 0.501420 0.824933
vt 0.508581 0.924711
vt 0.595771 0.862493
vt 0.501420 0.824933
vt 0.623086 0.875806
vt 0.624808 0.917540
vt 0.625000 0.999920
vt 0.625000 0.752894
vt 0.625000 0.876447
vt 0.623086 0.875806
vt 0.625000 1.000000
vt 0.691368 0.748547
vt 0.665699 0.746642
vt 0.684195 0.730628
vt 0.644014 0.750000
vt 0.631226 0.748574
vt 0.684195 0.730628
vt 0.618094 0.751447
vt 0.617162 0.832513
vt 0.618094 0.751447
vt 0.588607 0.749297
vt 0.531545 0.751364
vt 0.493875 0.749008
vt 0.496752 0.763021
vt 0.380348 0.750000
vt 0.496752 0.763021
vt 0.461467 0.795137
vt 0.386258 0.812500
vt 0.501420 0.824933
vt 0.386258 0.812500
vt 0.608923 0.000000
vt 0.615329 0.062500
vt 0.545924 0.084203
vt 0.507871 0.062934
vt 0.621735 0.125000
vt 0.522944 0.129641
vt 0.401542 0.125000
vt 0.507871 0.062934
vt 0.522944 0.129641
vt 0.698919 0.500000
vt 0.758958 0.541667
vt 0.708716 0.562934
vt 0.875000 0.500000
vt 0.874885 0.562500
vt 0.874885 0.562500
vt 0.618316 0.679998
vt 0.711045 0.685876
vt 0.684195 0.730628
vt 0.612044 0.627315
vt 0.716218 0.630064
vt 0.708716 0.562934
vt 0.672078 0.585992
vt 0.716218 0.630064
vt 0.708716 0.562934
vt 0.125000 0.750000
vt 0.125000 0.687500
vt 0.250176 0.686088
vt 0.249235 0.731765
vt 0.125000 0.625000
vt 0.252200 0.625000
vt 0.366704 0.692124
vt 0.360911 0.736667
vt 0.625000 0.000000
vt 0.608996 0.000000
vt 0.566384 0.001157
vt 0.517811 0.000000
vt 0.616961 0.000000
vt 0.514804 0.012731
vt 0.410622 0.000000
vt 0.300197 0.748547
vt 0.248563 0.747014
vt 0.249235 0.731765
vt 0.250000 0.750000
vt 0.187500 0.750000
vt 0.300197 0.748547
vt 0.249235 0.731765
vt 0.187500 0.750000
vt 0.125000 0.562500
vt 0.249088 0.561921
vt 0.125000 0.500000
vt 0.249917 0.500000
vt 0.374835 0.500000
vt 0.358490 0.556134
vt 0.387555 0.748692
vt 0.335159 0.749618
vt 0.315174 0.750000
vt 0.625000 0.000000
vt 0.622599 0.000000
vt 0.608996 0.000000
vt 0.824809 0.736395
vt 0.832434 0.747882
vt 0.793455 0.748692
vt 0.875290 0.750000
vt 0.875579 0.750000
vt 0.793455 0.748692
vt 0.615367 0.749628
vt 0.620792 0.750000
vt 0.588607 0.749297
vt 0.644014 0.750000
vt 0.620792 0.750000
vt 0.735065 0.750000
vt 0.719434 0.749745
vt 0.793455 0.748692
vt 0.675399 0.750000
vt 0.657273 0.750000
vt 0.644014 0.750000
vt 0.691368 0.748548
vt 0.792776 0.750000
vt 0.751429 0.750000
vt 0.875000 0.750000
vt 0.751447 0.750000
vt 0.627894 0.750000
vt 0.735065 0.750000
vt 0.711707 0.750000
vt 0.656083 0.750000
vt 0.751429 0.750000
vt 0.619541 0.750000
vt 0.628781 0.750000
vt 0.603051 0.250434
vt 0.520173 0.258167
vt 0.517398 0.188699
vt 0.612393 0.187717
vt 0.439606 0.249735
vt 0.420574 0.187368
vt 0.468712 0.735403
vt 0.454175 0.747510
vt 0.387555 0.748692
vt 0.468712 0.735403
vt 0.493875 0.749008
vt 0.474897 0.043403
vt 0.406082 0.062500
vt 0.514804 0.012731
vt 0.406082 0.062500
vt 0.507871 0.062934
vt 0.448836 0.500000
vt 0.424189 0.540799
vt 0.450953 0.706711
vt 0.366704 0.692124
vt 0.468712 0.735403
vt 0.496535 0.686219
vt 0.375000 0.499835
vt 0.407303 0.374785
vt 0.446031 0.416531
vt 0.448919 0.499917
vt 0.482781 0.375066
vt 0.407303 0.374785
vt 0.482781 0.375066
vt 0.520173 0.258167
vt 0.521867 0.334262
vt 0.562945 0.375217
vt 0.482781 0.375066
vt 0.562945 0.375217
s 0
f 5/1/1 26/2/1 76/3/1 53/4/1
f 2/5/2 60/6/2 76/3/2 26/2/2
f 20/7/3 53/8/3 76/3/3 60/6/3
f 10/9/4 39/10/4 77/11/4 65/12/4
f 13/13/5 40/14/5 77/11/5 39/10/5
f 8/15/6 65/12/6 77/11/6 40/14/6
f 4/16/7 72/17/7 78/18/7 33/19/7
f 18/20/8 28/21/8 78/18/8 72/17/8
f 11/22/9 33/23/9 78/18/9 28/21/9
f 6/24/10 63/25/10 79/26/10 59/27/10
f 5/28/11 53/29/11 79/26/11 63/30/11
f 20/7/12 59/31/12 79/26/12 53/29/12
f 9/32/13 66/33/13 80/34/13 35/35/13
f 13/13/14 39/36/14 80/34/14 66/37/14
f 10/9/15 35/38/15 80/34/15 39/36/15
f 13/13/16 48/39/16 81/40/16 38/41/16
f 17/42/17 44/43/17 81/40/17 48/44/17
f 16/45/18 38/41/18 81/40/18 44/43/18
f 11/22/19 37/46/19 82/47/19 32/48/19
f 12/49/20 42/50/20 82/47/20 37/46/20
f 2/5/21 32/51/21 82/47/21 42/50/21
f 9/32/22 50/52/22 83/53/22 66/33/22
f 17/42/23 48/39/23 83/53/23 50/54/23
f 13/13/24 66/33/24 83/53/24 48/39/24
f 2/5/25 36/55/25 84/56/25 56/57/25
f 9/32/26 55/58/26 84/56/26 36/55/26
f 22/59/27 56/57/27 84/56/27 55/60/27
f 9/32/28 35/38/28 85/61/28 55/60/28
f 10/9/29 57/62/29 85/61/29 35/63/29
f 22/59/30 55/60/30 85/61/30 57/64/30
f 18/65/31 72/66/31 86/67/31 58/68/31
f 4/69/32 54/70/32 86/67/32 72/66/32
f 21/71/33 58/72/33 86/67/33 54/73/33
f 6/24/34 31/74/34 87/75/34 62/76/34
f 1/77/35 23/78/35 87/75/35 31/74/35
f 4/16/36 62/76/36 87/75/36 23/79/36
f 2/5/37 26/80/37 88/81/37 32/82/37
f 26/80/38 5/83/38 29/84/38 88/81/38
f 88/81/39 29/84/39 4/16/39 33/23/39
f 32/82/40 88/81/40 33/23/40 11/22/40
f 6/24/41 62/85/41 89/86/41 63/25/41
f 4/16/42 29/87/42 89/86/42 62/88/42
f 5/28/43 63/25/43 89/86/43 29/84/43
f 8/89/44 71/90/44 90/91/44 64/92/44
f 71/90/45 21/93/45 30/94/45 90/91/45
f 90/91/46 30/94/46 20/7/46 74/95/46
f 64/92/47 90/91/47 74/95/47 7/96/47
f 13/97/48 68/98/48 91/99/48 40/100/48
f 68/98/49 14/97/49 41/101/49 91/99/49
f 91/99/50 41/101/50 18/65/50 67/102/50
f 40/100/51 91/99/51 67/102/51 8/103/51
f 7/96/52 34/104/52 92/105/52 64/106/52
f 10/107/53 65/108/53 92/105/53 34/109/53
f 8/89/54 64/110/54 92/105/54 65/111/54
f 21/93/55 61/112/55 93/113/55 30/94/55
f 61/112/56 19/114/56 24/115/56 93/113/56
f 93/113/57 24/115/57 3/116/57 73/117/57
f 30/94/58 93/113/58 73/117/58 20/7/58
f 7/96/59 70/118/59 94/119/59 34/104/59
f 22/59/60 57/120/60 94/119/60 70/118/60
f 10/107/61 34/109/61 94/119/61 57/120/61
f 13/97/62 38/121/62 95/122/62 68/123/62
f 16/121/63 45/121/63 95/122/63 38/121/63
f 14/97/64 68/123/64 95/122/64 45/121/64
f 11/22/65 28/124/65 96/125/65 49/126/65
f 18/20/66 41/127/66 96/125/66 28/21/66
f 14/128/67 49/129/67 96/125/67 41/127/67
f 9/32/68 36/55/68 97/130/68 69/131/68
f 2/5/69 42/50/69 97/130/69 36/132/69
f 12/133/70 69/134/70 97/130/70 42/50/70
f 14/128/71 43/135/71 98/136/71 49/137/71
f 43/135/72 15/138/72 51/139/72 98/136/72
f 98/136/73 51/139/73 12/140/73 37/141/73
f 49/137/74 98/136/74 37/141/74 11/22/74
f 14/128/75 45/127/75 99/142/75 46/143/75
f 16/144/76 44/145/76 99/142/76 45/127/76
f 17/146/77 46/143/77 99/142/77 44/145/77
f 15/138/78 43/147/78 100/148/78 47/149/78
f 14/128/79 46/143/79 100/148/79 43/135/79
f 17/146/80 47/149/80 100/148/80 46/150/80
f 17/146/81 50/151/81 101/152/81 47/149/81
f 50/151/82 9/32/82 69/131/82 101/152/82
f 101/152/83 69/131/83 12/49/83 51/139/83
f 47/149/84 101/152/84 51/139/84 15/138/84
f 1/153/85 52/154/85 102/155/85 23/156/85
f 52/154/86 19/157/86 61/158/86 102/155/86
f 102/155/87 61/158/87 21/71/87 54/70/87
f 23/156/88 102/155/88 54/70/88 4/69/88
f 7/96/89 27/159/89 103/160/89 70/161/89
f 2/5/90 56/57/90 103/160/90 27/162/90
f 22/59/91 70/118/91 103/160/91 56/163/91
f 8/103/92 67/102/92 104/164/92 71/165/92
f 18/65/93 58/68/93 104/164/93 67/166/93
f 21/71/94 71/167/94 104/164/94 58/168/94
f 3/116/95 25/169/95 105/170/95 73/117/95
f 6/24/96 59/31/96 105/170/96 25/169/96
f 20/7/97 73/117/97 105/170/97 59/31/97
f 20/7/98 60/6/98 106/171/98 74/172/98
f 2/5/99 27/173/99 106/171/99 60/174/99
f 7/96/100 74/95/100 106/171/100 27/162/100
f 3/175/101 24/176/101 107/177/101 25/178/101
f 19/157/102 75/179/102 107/177/102 24/180/102
f 6/24/103 25/178/103 107/177/103 75/181/103
f 19/157/104 52/182/104 108/183/104 75/179/104
f 1/153/105 31/184/105 108/183/105 52/182/105
f 6/24/106 75/185/106 108/183/106 31/186/106
