# Blender 4.3.2
# www.blender.org
o Cube.009
v -1.877778 -0.292382 0.677778
v -1.850000 -0.314054 -0.808333
v -1.850000 -0.509099 -0.683333
v -0.391667 -0.314054 0.608333
v -0.498148 -0.541606 0.501852
v -0.350000 -0.303218 -0.877778
v -0.300000 -0.523402 -0.706667
v -1.933333 -0.274323 0.001852
v -1.791919 -0.515994 0.586869
v -0.266667 -0.274323 -0.201852
v -1.100000 -0.281547 -0.933333
v -1.118519 -0.541606 -0.924074
v -1.201852 -0.274323 0.733333
v -0.988889 -0.606621 -0.127778
v -1.100000 -0.216532 -0.100000
v -1.923431 -0.268805 0.428292
v -1.907613 -0.534583 -0.215484
v -1.904784 -0.411576 -0.813735
v -1.568364 -0.287115 -0.912500
v -0.672269 -0.540215 -0.947732
v -0.283765 -0.394634 -0.936093
v -0.280941 -0.270510 -0.628292
v -0.260231 -0.540215 -0.036273
v -0.377199 -0.415790 0.622801
v -0.711690 -0.286212 0.712500
v -1.919059 -0.286212 -0.488310
v -0.287500 -0.286212 0.288310
v -0.612083 -0.597555 -0.466829
v -1.579167 -0.223756 -0.087269
v -0.631636 -0.285409 -0.923431
v -1.570679 -0.536038 -0.831674
v -1.628292 -0.268805 0.723431
v -1.043994 -0.540151 0.729154
v -1.413207 -0.597491 0.211214
v -0.620833 -0.223756 -0.112732
v -1.100000 -0.224659 -0.579167
v -1.125463 -0.598494 -0.562963
v -1.947287 -0.374353 0.747029
v -0.142176 -0.390772 -0.420532
v -2.051517 -0.390256 0.227418
v -0.723843 -0.598494 0.258796
v -1.112731 -0.223756 0.379167
v -1.429411 -0.390256 0.852418
v -1.102315 -0.411576 -1.057176
v -1.722420 -0.346317 0.843287
v -0.161968 -0.349351 -0.719090
v -2.043384 -0.346317 0.522324
v -0.476276 -0.594078 -0.091944
v -0.628870 -0.410388 -1.047160
v -0.167112 -0.410476 0.134826
v -0.633709 -0.232259 0.366290
v -1.562899 -0.590417 -0.348489
v -0.623534 -0.230365 -0.584070
v -1.576466 -0.232372 -0.566291
v -2.037050 -0.409407 -0.337638
v -1.584070 -0.228246 0.384070
v -0.782917 -0.594078 -0.719115
v -1.083772 -0.594054 0.492400
v -0.867393 -0.410460 0.831247
v -1.574055 -0.411576 -1.019608
vn -0.2393 0.8344 0.4966
vn -0.1413 -0.8075 0.5727
vn 0.0344 0.7536 0.6565
vn 0.6394 0.7687 0.0179
vn 0.7599 -0.6172 -0.2041
vn 0.4795 0.8123 -0.3320
vn -0.6581 0.7521 -0.0351
vn -0.5783 -0.8036 0.1406
vn -0.4963 0.8345 0.2392
vn 0.1824 -0.9788 0.0932
vn 0.0243 -0.9997 0.0024
vn 0.2190 -0.9745 -0.0492
vn -0.0092 -0.6656 -0.7462
vn 0.0171 0.6965 -0.7174
vn 0.1829 0.6664 -0.7228
vn 0.3068 -0.7744 -0.5533
vn 0.7470 -0.6642 -0.0288
vn 0.7396 0.6710 0.0527
vn 0.8824 0.3077 0.3558
vn 0.5829 -0.7733 0.2494
vn 0.1536 0.9878 0.0261
vn 0.0169 0.9997 0.0169
vn 0.0261 0.9878 0.1536
vn 0.1643 0.9726 0.1643
vn -0.1713 -0.9810 -0.0914
vn -0.0601 -0.9896 -0.1304
vn -0.0251 -0.9997 -0.0080
vn -0.1595 -0.9864 0.0394
vn 0.0916 0.9831 -0.1585
vn 0.0108 0.9871 -0.1594
vn 0.0132 0.9998 -0.0155
vn 0.1281 0.9918 -0.0055
vn -0.0195 0.9873 -0.1576
vn -0.1672 0.9759 -0.1403
vn -0.1537 0.9878 -0.0236
vn -0.0161 0.9997 -0.0175
vn -0.5975 -0.7991 0.0663
vn -0.7416 0.6697 -0.0399
vn -0.8340 0.5016 -0.2298
vn -0.6695 -0.7269 -0.1526
vn -0.0121 0.9999 0.0121
vn -0.1304 0.9915 -0.0004
vn -0.1079 0.9883 0.1079
vn 0.0004 0.9915 0.1304
vn 0.1469 -0.9799 -0.1352
vn 0.0054 -0.9998 -0.0193
vn -0.0364 -0.9808 -0.1915
vn 0.0849 -0.9801 0.1793
vn -0.0856 -0.9818 0.1697
vn -0.0028 -0.9998 0.0198
vn 0.2378 -0.7810 0.5775
vn 0.3540 0.3008 0.8856
vn 0.0500 0.6613 0.7485
vn -0.0857 -0.7550 0.6502
vn -0.3258 -0.8024 -0.5000
vn -0.4089 0.4987 -0.7642
vn -0.0499 0.6721 -0.7388
vn -0.0920 -0.7785 -0.6208
vt 0.375000 1.000000
vt 0.500000 1.000000
vt 0.456597 0.955295
vt 0.375000 0.937500
vt 0.625000 1.000000
vt 0.487269 0.917824
vt 0.375000 0.875000
vt 0.487269 0.917824
vt 0.391204 0.612269
vt 0.488426 0.580657
vt 0.456272 0.542508
vt 0.383970 0.555266
vt 0.625000 0.500000
vt 0.487124 0.495732
vt 0.375000 0.500000
vt 0.383970 0.555266
vt 0.487124 0.495732
vt 0.375000 0.125000
vt 0.487269 0.082176
vt 0.456597 0.044705
vt 0.375000 0.062500
vt 0.625000 0.000000
vt 0.500000 0.000000
vt 0.487269 0.082176
vt 0.375000 0.000000
vt 0.625000 0.750000
vt 0.697917 0.674552
vt 0.664442 0.626221
vt 0.603009 0.634187
vt 0.736111 0.621528
vt 0.686053 0.575015
vt 0.697917 0.674552
vt 0.625000 0.375000
vt 0.500000 0.375000
vt 0.498843 0.436921
vt 0.625000 0.437500
vt 0.375000 0.375000
vt 0.375000 0.437500
vt 0.488426 0.580657
vt 0.498626 0.657968
vt 0.393519 0.678096
vt 0.375000 0.750000
vt 0.499855 0.750000
vt 0.314526 0.623409
vt 0.314598 0.686325
vt 0.250000 0.625000
vt 0.250000 0.687500
vt 0.250000 0.750000
vt 0.312500 0.750000
vt 0.875000 0.500000
vt 0.812500 0.500000
vt 0.811017 0.591960
vt 0.875000 0.625000
vt 0.750000 0.500000
vt 0.752894 0.564381
vt 0.736111 0.621528
vt 0.792535 0.667390
vt 0.875000 0.750000
vt 0.312500 0.500000
vt 0.313440 0.561614
vt 0.383970 0.555266
vt 0.250000 0.500000
vt 0.250000 0.562500
vt 0.187500 0.500000
vt 0.187500 0.562500
vt 0.125000 0.500000
vt 0.125000 0.562500
vt 0.125000 0.625000
vt 0.187500 0.625000
vt 0.487269 0.082176
vt 0.498843 0.157407
vt 0.625000 0.125000
vt 0.375000 0.187500
vt 0.375000 0.250000
vt 0.500000 0.241319
vt 0.625000 0.250000
vt 0.187500 0.687500
vt 0.125000 0.687500
vt 0.125000 0.750000
vt 0.187500 0.750000
vt 0.686053 0.575015
vt 0.708713 0.543756
vt 0.687500 0.500000
vt 0.752894 0.564381
vt 0.752894 0.564381
vt 0.750000 0.750000
vt 0.748644 0.703478
vt 0.697917 0.674552
vt 0.750000 0.750000
vt 0.736111 0.621528
vt 0.697917 0.674552
vt 0.792535 0.667390
vt 0.498843 0.841725
vt 0.625000 0.875000
vt 0.375000 0.812500
vt 0.500000 0.311632
vt 0.625000 0.312500
vt 0.375000 0.312500
s 0
f 1/1/1 38/2/1 45/3/1 32/4/1
f 9/5/2 43/6/2 45/3/2 38/2/2
f 13/7/3 32/4/3 45/3/3 43/8/3
f 10/9/4 39/10/4 46/11/4 22/12/4
f 7/13/5 21/14/5 46/11/5 39/10/5
f 6/15/6 22/16/6 46/11/6 21/17/6
f 8/18/7 40/19/7 47/20/7 16/21/7
f 9/22/8 38/23/8 47/20/8 40/24/8
f 1/25/9 16/21/9 47/20/9 38/23/9
f 5/26/10 41/27/10 48/28/10 23/29/10
f 14/30/11 28/31/11 48/28/11 41/32/11
f 7/13/12 23/29/12 48/28/12 28/31/12
f 12/33/13 44/34/13 49/35/13 20/36/13
f 44/34/14 11/37/14 30/38/14 49/35/14
f 49/35/15 30/38/15 6/15/15 21/14/15
f 20/36/16 49/35/16 21/14/16 7/13/16
f 7/13/17 39/39/17 50/40/17 23/29/17
f 39/39/18 10/9/18 27/41/18 50/40/18
f 50/40/19 27/41/19 4/42/19 24/43/19
f 23/29/20 50/40/20 24/43/20 5/26/20
f 10/9/21 35/44/21 51/45/21 27/41/21
f 35/44/22 15/46/22 42/47/22 51/45/22
f 51/45/23 42/47/23 13/48/23 25/49/23
f 27/41/24 51/45/24 25/49/24 4/42/24
f 3/50/25 31/51/25 52/52/25 17/53/25
f 31/51/26 12/54/26 37/55/26 52/52/26
f 52/52/27 37/55/27 14/56/27 34/57/27
f 17/53/28 52/52/28 34/57/28 9/58/28
f 6/15/29 30/59/29 53/60/29 22/61/29
f 30/59/30 11/62/30 36/63/30 53/60/30
f 53/60/31 36/63/31 15/46/31 35/44/31
f 22/61/32 53/60/32 35/44/32 10/9/32
f 11/62/33 19/64/33 54/65/33 36/63/33
f 19/64/34 2/66/34 26/67/34 54/65/34
f 54/65/35 26/67/35 8/68/35 29/69/35
f 36/63/36 54/65/36 29/69/36 15/46/36
f 9/22/37 40/70/37 55/71/37 17/72/37
f 40/70/38 8/18/38 26/73/38 55/71/38
f 55/71/39 26/73/39 2/74/39 18/75/39
f 17/72/40 55/71/40 18/75/40 3/76/40
f 15/46/41 29/69/41 56/77/41 42/47/41
f 29/69/42 8/68/42 16/78/42 56/77/42
f 56/77/43 16/78/43 1/79/43 32/80/43
f 42/47/44 56/77/44 32/80/44 13/48/44
f 7/13/45 28/81/45 57/82/45 20/83/45
f 14/30/46 37/84/46 57/82/46 28/31/46
f 12/54/47 20/83/47 57/82/47 37/85/47
f 5/26/48 33/86/48 58/87/48 41/88/48
f 9/58/49 34/57/49 58/87/49 33/89/49
f 14/90/50 41/91/50 58/87/50 34/92/50
f 5/26/51 24/43/51 59/93/51 33/94/51
f 24/43/52 4/42/52 25/95/52 59/93/52
f 59/93/53 25/95/53 13/7/53 43/6/53
f 33/94/54 59/93/54 43/6/54 9/5/54
f 3/76/55 18/75/55 60/96/55 31/97/55
f 18/75/56 2/74/56 19/98/56 60/96/56
f 60/96/57 19/98/57 11/37/57 44/34/57
f 31/97/58 60/96/58 44/34/58 12/33/58
