# Blender 4.3.2
# www.blender.org
o Grid
v -1.000000 0.000000 1.000000
v -0.777778 0.000000 1.000000
v -0.555556 0.000000 1.000000
v -0.333333 0.000000 1.000000
v -0.111111 0.000000 1.000000
v 0.111111 0.000000 1.000000
v 0.333333 0.000000 1.000000
v 0.555556 0.000000 1.000000
v 0.777778 0.000000 1.000000
v 1.000000 0.000000 1.000000
v -1.000000 0.000000 0.777778
v -0.777778 0.000000 0.777778
v -0.555556 0.000000 0.777778
v -0.333333 0.000000 0.777778
v -0.111111 0.000000 0.777778
v 0.111111 0.000000 0.777778
v 0.333333 0.000000 0.777778
v 0.555556 0.000000 0.777778
v 0.777778 0.000000 0.777778
v 1.000000 0.000000 0.777778
v -1.000000 0.000000 0.555556
v -0.777778 0.000000 0.555556
v -0.555556 0.000000 0.555556
v -0.333333 0.000000 0.555556
v -0.111111 0.000000 0.555556
v 0.111111 0.000000 0.555556
v 0.333333 0.000000 0.555556
v 0.555556 0.000000 0.555556
v 0.777778 0.000000 0.555556
v 1.000000 0.000000 0.555556
v -1.000000 0.000000 0.333333
v -0.777778 0.000000 0.333333
v -0.555556 0.000000 0.333333
v -0.333333 0.000000 0.333333
v -0.111111 0.000000 0.333333
v 0.111111 0.000000 0.333333
v 0.333333 0.000000 0.333333
v 0.555556 0.000000 0.333333
v 0.777778 0.000000 0.333333
v 1.000000 0.000000 0.333333
v -1.000000 0.000000 0.111111
v -0.777778 0.000000 0.111111
v -0.555556 0.000000 0.111111
v -0.333333 0.000000 0.111111
v -0.111111 0.000000 0.111111
v 0.111111 0.000000 0.111111
v 0.333333 0.000000 0.111111
v 0.555556 0.000000 0.111111
v 0.777778 0.000000 0.111111
v 1.000000 0.000000 0.111111
v -1.000000 0.000000 -0.111111
v -0.777778 0.000000 -0.111111
v -0.555556 0.000000 -0.111111
v -0.333333 0.000000 -0.111111
v -0.111111 0.000000 -0.111111
v 0.111111 0.000000 -0.111111
v 0.333333 0.000000 -0.111111
v 0.555556 0.000000 -0.111111
v 0.777778 0.000000 -0.111111
v 1.000000 0.000000 -0.111111
v -1.000000 0.000000 -0.333333
v -0.777778 0.000000 -0.333333
v -0.555556 0.000000 -0.333333
v -0.333333 0.000000 -0.333333
v -0.111111 0.000000 -0.333333
v 0.111111 0.000000 -0.333333
v 0.333333 0.000000 -0.333333
v 0.555556 0.000000 -0.333333
v 0.777778 0.000000 -0.333333
v 1.000000 0.000000 -0.333333
v -1.000000 0.000000 -0.555556
v -0.777778 0.000000 -0.555556
v -0.555556 0.000000 -0.555556
v -0.333333 0.000000 -0.555556
v -0.111111 0.000000 -0.555556
v 0.111111 0.000000 -0.555556
v 0.333333 0.000000 -0.555556
v 0.555556 0.000000 -0.555556
v 0.777778 0.000000 -0.555556
v 1.000000 0.000000 -0.555556
v -1.000000 0.000000 -0.777778
v -0.777778 0.000000 -0.777778
v -0.555556 0.000000 -0.777778
v -0.333333 0.000000 -0.777778
v -0.111111 0.000000 -0.777778
v 0.111111 0.000000 -0.777778
v 0.333333 0.000000 -0.777778
v 0.555556 0.000000 -0.777778
v 0.777778 0.000000 -0.777778
v 1.000000 0.000000 -0.777778
v -1.000000 0.000000 -1.000000
v -0.777778 0.000000 -1.000000
v -0.555556 0.000000 -1.000000
v -0.333333 0.000000 -1.000000
v -0.111111 0.000000 -1.000000
v 0.111111 0.000000 -1.000000
v 0.333333 0.000000 -1.000000
v 0.555556 0.000000 -1.000000
v 0.777778 0.000000 -1.000000
v 1.000000 0.000000 -1.000000
v -1.000000 -0.086109 0.777778
v -1.000000 -0.086109 1.000000
v -0.777778 -0.086109 1.000000
v -0.777778 -0.086109 0.777778
v -0.555556 -0.086109 1.000000
v -0.555556 -0.086109 0.777778
v -0.333333 -0.086109 1.000000
v -0.333333 -0.086109 0.777778
v -0.111111 -0.086109 1.000000
v -0.111111 -0.086109 0.777778
v 0.111111 -0.086109 1.000000
v 0.111111 -0.086109 0.777778
v 0.333333 -0.086109 1.000000
v 0.333333 -0.086109 0.777778
v 0.555556 -0.086109 1.000000
v 0.555556 -0.086109 0.777778
v 0.777778 -0.086109 1.000000
v 0.777778 -0.086109 0.777778
v 1.000000 -0.086109 1.000000
v 1.000000 -0.086109 0.777778
v -1.000000 -0.086109 0.555556
v -0.777778 -0.086109 0.555556
v -0.555556 -0.086109 0.555556
v -0.333333 -0.086109 0.555556
v -0.111111 -0.086109 0.555556
v 0.111111 -0.086109 0.555556
v 0.555556 -0.086109 0.555556
v 0.333333 -0.086109 0.555556
v 0.777778 -0.086109 0.555556
v 1.000000 -0.086109 0.555556
v -1.000000 -0.086109 0.333333
v -0.777778 -0.086109 0.333333
v -0.555556 -0.086109 0.333333
v -0.333333 -0.086109 0.333333
v -0.111111 -0.086109 0.333333
v 0.111111 -0.086109 0.333333
v 0.333333 -0.086109 0.333333
v 0.555556 -0.086109 0.333333
v 0.777778 -0.086109 0.333333
v 1.000000 -0.086109 0.333333
v -0.777778 -0.086109 0.111111
v -1.000000 -0.086109 0.111111
v -0.555556 -0.086109 0.111111
v -0.333333 -0.086109 0.111111
v -0.111111 -0.086109 0.111111
v 0.111111 -0.086109 0.111111
v 0.333333 -0.086109 0.111111
v 0.555556 -0.086109 0.111111
v 0.777778 -0.086109 0.111111
v 1.000000 -0.086109 0.111111
v -1.000000 -0.086109 -0.111111
v -0.777778 -0.086109 -0.111111
v -0.555556 -0.086109 -0.111111
v -0.333333 -0.086109 -0.111111
v -0.111111 -0.086109 -0.111111
v 0.111111 -0.086109 -0.111111
v 0.333333 -0.086109 -0.111111
v 0.555556 -0.086109 -0.111111
v 0.777778 -0.086109 -0.111111
v 1.000000 -0.086109 -0.111111
v -0.777778 -0.086109 -0.333333
v -1.000000 -0.086109 -0.333333
v -0.555556 -0.086109 -0.333333
v -0.333333 -0.086109 -0.333333
v -0.111111 -0.086109 -0.333333
v 0.111111 -0.086109 -0.333333
v 0.333333 -0.086109 -0.333333
v 0.555556 -0.086109 -0.333333
v 0.777778 -0.086109 -0.333333
v 1.000000 -0.086109 -0.333333
v -1.000000 -0.086109 -0.555556
v -0.777778 -0.086109 -0.555556
v -0.555556 -0.086109 -0.555556
v -0.333333 -0.086109 -0.555556
v -0.111111 -0.086109 -0.555556
v 0.111111 -0.086109 -0.555556
v 0.333333 -0.086109 -0.555556
v 0.555556 -0.086109 -0.555556
v 0.777778 -0.086109 -0.555556
v 1.000000 -0.086109 -0.555556
v -1.000000 -0.086109 -0.777778
v -0.777778 -0.086109 -0.777778
v -0.555556 -0.086109 -0.777778
v -0.333333 -0.086109 -0.777778
v -0.111111 -0.086109 -0.777778
v 0.111111 -0.086109 -0.777778
v 0.333333 -0.086109 -0.777778
v 0.555556 -0.086109 -0.777778
v 0.777778 -0.086109 -0.777778
v 1.000000 -0.086109 -0.777778
v -1.000000 -0.086109 -1.000000
v -0.777778 -0.086109 -1.000000
v -0.555556 -0.086109 -1.000000
v -0.333333 -0.086109 -1.000000
v -0.111111 -0.086109 -1.000000
v 0.111111 -0.086109 -1.000000
v 0.333333 -0.086109 -1.000000
v 0.555556 -0.086109 -1.000000
v 0.777778 -0.086109 -1.000000
v 1.000000 -0.086109 -1.000000
v -1.400000 0.000000 -0.111111
v -1.400000 0.000000 0.111111
v -1.400000 -0.086109 -0.111111
v -1.400000 -0.086109 0.111111
v 1.400000 0.000000 0.111111
v 1.400000 0.000000 -0.111111
v 1.400000 -0.086109 0.111111
v 1.400000 -0.086109 -0.111111
vn -0.0000 1.0000 -0.0000
vn -0.0000 -1.0000 -0.0000
vn -0.0000 -0.0000 -1.0000
vn -0.0000 -0.0000 1.0000
vn -1.0000 -0.0000 -0.0000
vn 1.0000 -0.0000 -0.0000
vt 0.000000 0.000000
vt 0.111111 0.000000
vt 0.111111 0.111111
vt 0.000000 0.111111
vt 0.222222 0.000000
vt 0.222222 0.111111
vt 0.333333 0.000000
vt 0.333333 0.111111
vt 0.222222 0.111111
vt 0.444444 0.000000
vt 0.444444 0.111111
vt 0.555556 0.000000
vt 0.555556 0.111111
vt 0.444444 0.111111
vt 0.666667 0.000000
vt 0.666667 0.111111
vt 0.777778 0.000000
vt 0.777778 0.111111
vt 0.888889 0.000000
vt 0.888889 0.111111
vt 1.000000 0.000000
vt 1.000000 0.111111
vt 0.111111 0.222222
vt 0.000000 0.222222
vt 1.000000 0.222222
vt 0.888889 0.222222
vt 0.000000 0.222222
vt 0.111111 0.222222
vt 0.111111 0.333333
vt 0.000000 0.333333
vt 0.222222 0.222222
vt 0.222222 0.333333
vt 0.333333 0.222222
vt 0.333333 0.333333
vt 0.222222 0.333333
vt 0.444444 0.222222
vt 0.444444 0.333333
vt 0.555556 0.222222
vt 0.555556 0.333333
vt 0.444444 0.333333
vt 0.666667 0.222222
vt 0.777778 0.222222
vt 0.777778 0.333333
vt 0.666667 0.333333
vt 0.888889 0.222222
vt 0.888889 0.333333
vt 1.000000 0.222222
vt 1.000000 0.333333
vt 0.555556 0.444444
vt 0.444444 0.444444
vt 0.777778 0.444444
vt 0.666667 0.444444
vt 0.000000 0.444444
vt 0.111111 0.444444
vt 0.111111 0.555556
vt 0.000000 0.555556
vt 0.222222 0.444444
vt 0.222222 0.555556
vt 0.333333 0.444444
vt 0.333333 0.555556
vt 0.222222 0.555556
vt 0.666667 0.444444
vt 0.777778 0.444444
vt 0.777778 0.555556
vt 0.666667 0.555556
vt 0.888889 0.444444
vt 0.888889 0.555556
vt 1.000000 0.444444
vt 1.000000 0.555556
vt 0.333333 0.666667
vt 0.222222 0.666667
vt 0.444444 0.555556
vt 0.555556 0.555556
vt 0.555556 0.666667
vt 0.444444 0.666667
vt 0.000000 0.666667
vt 0.111111 0.666667
vt 0.111111 0.777778
vt 0.000000 0.777778
vt 0.222222 0.666667
vt 0.222222 0.777778
vt 0.333333 0.777778
vt 0.222222 0.777778
vt 0.444444 0.666667
vt 0.555556 0.777778
vt 0.444444 0.777778
vt 0.666667 0.666667
vt 0.666667 0.777778
vt 0.777778 0.666667
vt 0.777778 0.777778
vt 0.888889 0.666667
vt 0.888889 0.777778
vt 1.000000 0.666667
vt 1.000000 0.777778
vt 0.111111 0.888889
vt 0.000000 0.888889
vt 1.000000 0.888889
vt 0.888889 0.888889
vt 0.111111 1.000000
vt 0.000000 1.000000
vt 0.222222 0.888889
vt 0.222222 1.000000
vt 0.333333 0.888889
vt 0.333333 1.000000
vt 0.222222 1.000000
vt 0.444444 0.888889
vt 0.444444 1.000000
vt 0.555556 0.888889
vt 0.555556 1.000000
vt 0.444444 1.000000
vt 0.666667 0.888889
vt 0.666667 1.000000
vt 0.777778 0.888889
vt 0.777778 1.000000
vt 0.888889 1.000000
vt 1.000000 1.000000
s 0
f 1/1/1 2/2/1 12/3/1 11/4/1
f 2/2/1 3/5/1 13/6/1 12/3/1
f 3/5/1 4/7/1 14/8/1 13/9/1
f 4/7/1 5/10/1 15/11/1 14/8/1
f 5/10/1 6/12/1 16/13/1 15/14/1
f 6/12/1 7/15/1 17/16/1 16/13/1
f 7/15/1 8/17/1 18/18/1 17/16/1
f 8/17/1 9/19/1 19/20/1 18/18/1
f 9/19/1 10/21/1 20/22/1 19/20/1
f 11/4/1 12/3/1 22/23/1 21/24/1
f 19/20/1 20/22/1 30/25/1 29/26/1
f 21/27/1 22/28/1 32/29/1 31/30/1
f 22/28/1 23/31/1 33/32/1 32/29/1
f 23/31/1 24/33/1 34/34/1 33/35/1
f 24/33/1 25/36/1 35/37/1 34/34/1
f 25/36/1 26/38/1 36/39/1 35/40/1
f 27/41/1 28/42/1 38/43/1 37/44/1
f 28/42/1 29/45/1 39/46/1 38/43/1
f 29/45/1 30/47/1 40/48/1 39/46/1
f 35/37/1 36/39/1 46/49/1 45/50/1
f 37/44/1 38/43/1 48/51/1 47/52/1
f 41/53/1 42/54/1 52/55/1 51/56/1
f 42/54/1 43/57/1 53/58/1 52/55/1
f 43/57/1 44/59/1 54/60/1 53/61/1
f 47/62/1 48/63/1 58/64/1 57/65/1
f 48/63/1 49/66/1 59/67/1 58/64/1
f 49/66/1 50/68/1 60/69/1 59/67/1
f 53/58/1 54/60/1 64/70/1 63/71/1
f 55/72/1 56/73/1 66/74/1 65/75/1
f 61/76/1 62/77/1 72/78/1 71/79/1
f 62/77/1 63/80/1 73/81/1 72/78/1
f 63/80/1 64/70/1 74/82/1 73/83/1
f 65/84/1 66/74/1 76/85/1 75/86/1
f 66/74/1 67/87/1 77/88/1 76/85/1
f 67/87/1 68/89/1 78/90/1 77/88/1
f 68/89/1 69/91/1 79/92/1 78/90/1
f 69/91/1 70/93/1 80/94/1 79/92/1
f 71/79/1 72/78/1 82/95/1 81/96/1
f 79/92/1 80/94/1 90/97/1 89/98/1
f 81/96/1 82/95/1 92/99/1 91/100/1
f 82/95/1 83/101/1 93/102/1 92/99/1
f 83/101/1 84/103/1 94/104/1 93/105/1
f 84/103/1 85/106/1 95/107/1 94/104/1
f 85/106/1 86/108/1 96/109/1 95/110/1
f 86/108/1 87/111/1 97/112/1 96/109/1
f 87/111/1 88/113/1 98/114/1 97/112/1
f 88/113/1 89/98/1 99/115/1 98/114/1
f 89/98/1 90/97/1 100/116/1 99/115/1
f 102/1/2 101/4/2 104/3/2 103/2/2
f 103/2/2 104/3/2 106/6/2 105/5/2
f 105/5/2 106/9/2 108/8/2 107/7/2
f 107/7/2 108/8/2 110/11/2 109/10/2
f 109/10/2 110/14/2 112/13/2 111/12/2
f 111/12/2 112/13/2 114/16/2 113/15/2
f 113/15/2 114/16/2 116/18/2 115/17/2
f 115/17/2 116/18/2 118/20/2 117/19/2
f 117/19/2 118/20/2 120/22/2 119/21/2
f 101/4/2 121/24/2 122/23/2 104/3/2
f 118/20/2 129/26/2 130/25/2 120/22/2
f 121/27/2 131/30/2 132/29/2 122/28/2
f 122/28/2 132/29/2 133/32/2 123/31/2
f 123/31/2 133/35/2 134/34/2 124/33/2
f 124/33/2 134/34/2 135/37/2 125/36/2
f 125/36/2 135/40/2 136/39/2 126/38/2
f 128/41/2 137/44/2 138/43/2 127/42/2
f 127/42/2 138/43/2 139/46/2 129/45/2
f 129/45/2 139/46/2 140/48/2 130/47/2
f 135/37/2 145/50/2 146/49/2 136/39/2
f 137/44/2 147/52/2 148/51/2 138/43/2
f 142/53/2 151/56/2 152/55/2 141/54/2
f 141/54/2 152/55/2 153/58/2 143/57/2
f 143/57/2 153/61/2 154/60/2 144/59/2
f 45/50/3 46/49/3 146/49/3 145/50/3
f 147/62/2 157/65/2 158/64/2 148/63/2
f 148/63/2 158/64/2 159/67/2 149/66/2
f 149/66/2 159/67/2 160/69/2 150/68/2
f 153/58/2 163/71/2 164/70/2 154/60/2
f 155/72/2 165/75/2 166/74/2 156/73/2
f 162/76/2 171/79/2 172/78/2 161/77/2
f 161/77/2 172/78/2 173/81/2 163/80/2
f 163/80/2 173/83/2 174/82/2 164/70/2
f 165/84/2 175/86/2 176/85/2 166/74/2
f 166/74/2 176/85/2 177/88/2 167/87/2
f 167/87/2 177/88/2 178/90/2 168/89/2
f 168/89/2 178/90/2 179/92/2 169/91/2
f 169/91/2 179/92/2 180/94/2 170/93/2
f 171/79/2 181/96/2 182/95/2 172/78/2
f 179/92/2 189/98/2 190/97/2 180/94/2
f 181/96/2 191/100/2 192/99/2 182/95/2
f 182/95/2 192/99/2 193/102/2 183/101/2
f 183/101/2 193/105/2 194/104/2 184/103/2
f 184/103/2 194/104/2 195/107/2 185/106/2
f 185/106/2 195/110/2 196/109/2 186/108/2
f 186/108/2 196/109/2 197/112/2 187/111/2
f 187/111/2 197/112/2 198/114/2 188/113/2
f 188/113/2 198/114/2 199/115/2 189/98/2
f 189/98/2 199/115/2 200/116/2 190/97/2
f 43/57/4 143/57/4 144/59/4 44/59/4
f 14/8/3 108/8/3 106/9/3 13/9/3
f 45/50/5 145/50/5 135/37/5 35/37/5
f 4/7/4 107/7/4 109/10/4 5/10/4
f 79/92/3 179/92/3 178/90/3 78/90/3
f 36/39/6 136/39/6 146/49/6 46/49/6
f 70/93/6 170/93/6 180/94/6 80/94/6
f 15/11/3 110/11/3 108/8/3 14/8/3
f 47/52/5 147/52/5 137/44/5 37/44/5
f 5/10/4 109/10/4 111/12/4 6/12/4
f 81/96/5 181/96/5 171/79/5 71/79/5
f 38/43/6 138/43/6 148/51/6 48/51/6
f 72/78/6 172/78/6 182/95/6 82/95/6
f 16/13/3 112/13/3 110/14/3 15/14/3
f 48/63/4 148/63/4 149/66/4 49/66/4
f 6/12/4 111/12/4 113/15/4 7/15/4
f 82/95/4 182/95/4 183/101/4 83/101/4
f 49/66/4 149/66/4 150/68/4 50/68/4
f 83/101/4 183/101/4 184/103/4 84/103/4
f 41/53/1 51/56/1 201/56/1 202/53/1
f 17/16/3 114/16/3 112/13/3 16/13/3
f 84/103/4 184/103/4 185/106/4 85/106/4
f 7/15/4 113/15/4 115/17/4 8/17/4
f 85/106/4 185/106/4 186/108/4 86/108/4
f 52/55/3 152/55/3 151/56/3 51/56/3
f 86/108/4 186/108/4 187/111/4 87/111/4
f 18/18/3 116/18/3 114/16/3 17/16/3
f 87/111/4 187/111/4 188/113/4 88/113/4
f 53/58/3 153/58/3 152/55/3 52/55/3
f 8/17/4 115/17/4 117/19/4 9/19/4
f 89/98/5 189/98/5 179/92/5 79/92/5
f 44/59/6 144/59/6 154/60/6 54/60/6
f 88/113/4 188/113/4 189/98/4 89/98/4
f 19/20/3 118/20/3 116/18/3 18/18/3
f 80/94/6 180/94/6 190/97/6 90/97/6
f 9/19/4 117/19/4 119/21/4 10/21/4
f 10/21/6 119/21/6 120/22/6 20/22/6
f 91/100/5 191/100/5 181/96/5 81/96/5
f 57/65/5 157/65/5 147/62/5 47/62/5
f 21/24/5 121/24/5 101/4/5 11/4/5
f 92/99/3 192/99/3 191/100/3 91/100/3
f 12/3/6 104/3/6 122/23/6 22/23/6
f 58/64/3 158/64/3 157/65/3 57/65/3
f 93/102/3 193/102/3 192/99/3 92/99/3
f 22/28/4 122/28/4 123/31/4 23/31/4
f 59/67/3 159/67/3 158/64/3 58/64/3
f 23/31/4 123/31/4 124/33/4 24/33/4
f 94/104/3 194/104/3 193/105/3 93/105/3
f 60/69/1 50/68/1 205/68/1 206/69/1
f 24/33/4 124/33/4 125/36/4 25/36/4
f 60/69/3 160/69/3 159/67/3 59/67/3
f 25/36/4 125/36/4 126/38/4 26/38/4
f 95/107/3 195/107/3 194/104/3 94/104/3
f 61/76/4 162/76/4 161/77/4 62/77/4
f 27/41/4 128/41/4 127/42/4 28/42/4
f 63/71/5 163/71/5 153/58/5 53/58/5
f 29/26/5 129/26/5 118/20/5 19/20/5
f 96/109/3 196/109/3 195/110/3 95/110/3
f 62/77/4 161/77/4 163/80/4 63/80/4
f 28/42/4 127/42/4 129/45/4 29/45/4
f 54/60/6 154/60/6 164/70/6 64/70/6
f 20/22/6 120/22/6 130/25/6 30/25/6
f 97/112/3 197/112/3 196/109/3 96/109/3
f 65/75/5 165/75/5 155/72/5 55/72/5
f 31/30/5 131/30/5 121/27/5 21/27/5
f 98/114/3 198/114/3 197/112/3 97/112/3
f 56/73/6 156/73/6 166/74/6 66/74/6
f 32/29/3 132/29/3 131/30/3 31/30/3
f 99/115/3 199/115/3 198/114/3 98/114/3
f 66/74/4 166/74/4 167/87/4 67/87/4
f 90/97/6 190/97/6 200/116/6 100/116/6
f 67/87/4 167/87/4 168/89/4 68/89/4
f 33/32/3 133/32/3 132/29/3 32/29/3
f 100/116/3 200/116/3 199/115/3 99/115/3
f 68/89/4 168/89/4 169/91/4 69/91/4
f 69/91/4 169/91/4 170/93/4 70/93/4
f 34/34/3 134/34/3 133/35/3 33/35/3
f 71/79/5 171/79/5 162/76/5 61/76/5
f 35/37/3 135/37/3 134/34/3 34/34/3
f 26/38/6 126/38/6 136/39/6 36/39/6
f 73/81/3 173/81/3 172/78/3 72/78/3
f 37/44/5 137/44/5 128/41/5 27/41/5
f 11/4/5 101/4/5 102/1/5 1/1/5
f 64/70/6 164/70/6 174/82/6 74/82/6
f 1/1/4 102/1/4 103/2/4 2/2/4
f 74/82/3 174/82/3 173/83/3 73/83/3
f 75/86/5 175/86/5 165/84/5 65/84/5
f 39/46/3 139/46/3 138/43/3 38/43/3
f 2/2/4 103/2/4 105/5/4 3/5/4
f 76/85/3 176/85/3 175/86/3 75/86/3
f 30/47/6 130/47/6 140/48/6 40/48/6
f 40/48/3 140/48/3 139/46/3 39/46/3
f 13/6/3 106/6/3 104/3/3 12/3/3
f 77/88/3 177/88/3 176/85/3 76/85/3
f 41/53/4 142/53/4 141/54/4 42/54/4
f 3/5/4 105/5/4 107/7/4 4/7/4
f 42/54/4 141/54/4 143/57/4 43/57/4
f 78/90/3 178/90/3 177/88/3 77/88/3
f 55/72/4 155/72/4 156/73/4 56/73/4
f 201/56/5 203/56/5 204/53/5 202/53/5
f 142/53/4 41/53/4 202/53/4 204/53/4
f 151/56/2 142/53/2 204/53/2 203/56/2
f 51/56/3 151/56/3 203/56/3 201/56/3
f 205/68/6 207/68/6 208/69/6 206/69/6
f 160/69/3 60/69/3 206/69/3 208/69/3
f 50/68/4 150/68/4 207/68/4 205/68/4
f 150/68/2 160/69/2 208/69/2 207/68/2
